<svg width="44" height="44" viewBox="0 0 44 44" fill="none" xmlns="http://www.w3.org/2000/svg">
<path d="M42.24 40.9199V6.59993C42.24 6.24793 42.24 5.98393 42.24 5.63193C41.888 3.07993 39.6 1.23193 37.048 1.23193H6.952C4.4 1.23193 2.112 3.07993 1.76 5.63193V6.59993V40.9199C1.232 40.9199 0.880005 41.2719 0.880005 41.7999C0.880005 42.3279 1.232 42.6799 1.76 42.6799H42.24C42.768 42.6799 43.12 42.3279 43.12 41.7999C43.12 41.3599 42.768 40.9199 42.24 40.9199ZM6.776 4.66393C7.744 4.66393 8.448 5.45593 8.448 6.33593C8.448 7.21593 7.656 8.00793 6.776 8.00793C5.896 8.00793 5.104 7.30393 5.104 6.33593C5.104 5.45593 5.896 4.66393 6.776 4.66393ZM12.144 36.0799V32.5599C14.168 32.5599 15.928 33.3519 15.928 34.3199C15.928 35.2879 14.256 36.0799 12.144 36.0799ZM25.168 26.6639C23.672 26.6639 22.44 27.7199 22.088 29.2159H13.728L15.928 23.4959C16.016 23.2319 16.28 23.0559 16.544 23.0559C20.064 22.7919 23.672 22.7919 27.28 23.0559C27.544 23.0559 27.808 23.2319 27.896 23.4959L30.096 29.2159H28.16C27.896 27.8079 26.664 26.6639 25.168 26.6639ZM25.608 35.5519L24.992 38.1919H19.096L18.48 35.5519C18.216 34.6719 18.92 33.7919 19.8 33.7919H24.2C25.168 33.8799 25.784 34.6719 25.608 35.5519ZM16.28 40.9199C16.28 40.7439 16.368 40.6559 16.368 40.4799V39.1599H27.72V40.4799C27.72 40.6559 27.72 40.7439 27.808 40.9199H16.28ZM31.856 36.0799C29.832 36.0799 28.072 35.2879 28.072 34.3199C28.072 33.3519 29.744 32.5599 31.856 32.5599V36.0799ZM38.544 40.9199H33.528C33.528 40.7439 33.616 40.6559 33.616 40.4799V32.6479C33.616 32.0319 33.44 31.5039 33.088 30.8879L32.824 30.5359L34.76 29.7439C35.024 29.6559 35.2 29.3919 35.2 29.0399V28.4239C35.2 28.2479 35.024 28.0719 34.848 27.9839C34.848 27.9839 33.088 27.2799 32.472 27.4559C32.208 27.5439 31.856 27.8079 31.592 28.0719L29.568 22.7919C29.216 21.9119 28.336 21.2959 27.368 21.2079C23.76 20.9439 20.064 20.9439 16.368 21.2079C15.4 21.2959 14.608 21.9119 14.168 22.7919L12.32 28.1599C12.056 27.8959 11.704 27.5439 11.44 27.5439C10.824 27.3679 9.064 28.0719 9.064 28.0719C8.888 28.1599 8.8 28.3359 8.8 28.5119V29.0399C8.8 29.3039 8.976 29.5679 9.24 29.7439L11.176 30.5359L10.912 30.9759C10.648 31.5039 10.472 32.1199 10.472 32.6479V40.4799C10.472 40.6559 10.472 40.7439 10.56 40.9199H5.456V11.1759C5.896 11.2639 6.336 11.3519 6.864 11.3519C9.064 11.3519 11 9.85593 11.616 7.91993C11.88 6.95193 12.848 6.33593 13.816 6.33593H14.608C14.608 8.09593 16.016 9.41593 17.776 9.41593C19.536 9.41593 20.944 8.00793 20.944 6.33593H23.32C23.32 8.09593 24.728 9.41593 26.488 9.41593C28.248 9.41593 29.656 8.00793 29.656 6.33593H30.448C31.416 6.33593 32.384 6.95193 32.648 7.91993C33.264 9.94393 35.2 11.3519 37.4 11.3519C37.84 11.3519 38.368 11.2639 38.72 11.1759V40.9199H38.544ZM37.224 8.00793C36.256 8.00793 35.552 7.21593 35.552 6.33593C35.552 5.36793 36.344 4.66393 37.224 4.66393C38.104 4.66393 38.896 5.45593 38.896 6.33593C38.896 7.30393 38.104 8.00793 37.224 8.00793Z" fill="white"/>
<path d="M14.784 10.9121C14.256 10.9121 13.904 11.2641 13.904 11.7921V15.0481C13.904 15.5761 14.256 15.9281 14.784 15.9281C15.312 15.9281 15.664 15.5761 15.664 15.0481V11.7921C15.664 11.3521 15.224 10.9121 14.784 10.9121Z" fill="white"/>
<path d="M18.392 10.9121C17.864 10.9121 17.512 11.2641 17.512 11.7921V13.1121C17.512 13.6401 17.864 13.9921 18.392 13.9921C18.92 13.9921 19.272 13.6401 19.272 13.1121V11.7921C19.272 11.3521 18.832 10.9121 18.392 10.9121Z" fill="white"/>
<path d="M18.392 15.0479C17.864 15.0479 17.512 15.3999 17.512 15.9279V17.2479C17.512 17.7759 17.864 18.1279 18.392 18.1279C18.92 18.1279 19.272 17.7759 19.272 17.2479V15.9279C19.272 15.4879 18.832 15.0479 18.392 15.0479Z" fill="white"/>
<path d="M22 10.9121C21.472 10.9121 21.12 11.2641 21.12 11.7921V13.9921C21.12 14.5201 21.472 14.8721 22 14.8721C22.528 14.8721 22.88 14.5201 22.88 13.9921V11.7921C22.88 11.3521 22.528 10.9121 22 10.9121Z" fill="white"/>
<path d="M22 15.8398C21.472 15.8398 21.12 16.1918 21.12 16.7198V18.9198C21.12 19.4478 21.472 19.7998 22 19.7998C22.528 19.7998 22.88 19.4478 22.88 18.9198V16.7198C22.88 16.1918 22.528 15.8398 22 15.8398Z" fill="white"/>
<path d="M25.608 10.9121C25.08 10.9121 24.728 11.2641 24.728 11.7921V13.1121C24.728 13.6401 25.08 13.9921 25.608 13.9921C26.136 13.9921 26.488 13.6401 26.488 13.1121V11.7921C26.488 11.3521 26.136 10.9121 25.608 10.9121Z" fill="white"/>
<path d="M25.608 15.0479C25.08 15.0479 24.728 15.3999 24.728 15.9279V17.2479C24.728 17.7759 25.08 18.1279 25.608 18.1279C26.136 18.1279 26.488 17.7759 26.488 17.2479V15.9279C26.488 15.4879 26.136 15.0479 25.608 15.0479Z" fill="white"/>
<path d="M29.216 10.9121C28.688 10.9121 28.336 11.2641 28.336 11.7921V15.0481C28.336 15.5761 28.688 15.9281 29.216 15.9281C29.744 15.9281 30.096 15.5761 30.096 15.0481V11.7921C30.096 11.3521 29.744 10.9121 29.216 10.9121Z" fill="white"/>
</svg>
