<svg width="44" height="44" viewBox="0 0 44 44" fill="none" xmlns="http://www.w3.org/2000/svg">
<path d="M9.625 39.1875C11.5232 39.1875 13.0625 40.7268 13.0625 42.625C13.0625 40.7268 14.6018 39.1875 16.5 39.1875C14.6018 39.1875 13.0625 37.6482 13.0625 35.75C13.0625 37.6482 11.5232 39.1875 9.625 39.1875Z" fill="white"/>
<path d="M1.375 34.375C3.27319 34.375 4.8125 35.9143 4.8125 37.8125C4.8125 35.9143 6.35181 34.375 8.25 34.375C6.35181 34.375 4.8125 32.8357 4.8125 30.9375C4.8125 32.8357 3.27319 34.375 1.375 34.375Z" fill="white"/>
<path d="M1.375 4.8125C3.27319 4.8125 4.8125 6.35181 4.8125 8.25C4.8125 6.35181 6.35181 4.8125 8.25 4.8125C6.35181 4.8125 4.8125 3.27319 4.8125 1.375C4.8125 3.27319 3.27319 4.8125 1.375 4.8125Z" fill="white"/>
<path d="M37.125 30.9375C37.125 30.5587 36.817 30.25 36.4375 30.25C36.058 30.25 35.75 30.5587 35.75 30.9375V33H34.375V30.9375V28.1875C34.375 27.8087 34.067 27.5 33.6875 27.5C33.308 27.5 33 27.8087 33 28.1875V29.5625V33H31.625V29.5625V28.1875V26.8125C31.625 26.4337 31.317 26.125 30.9375 26.125C30.558 26.125 30.25 26.4337 30.25 26.8125V28.1875V29.5625V33H28.875V29.5625V28.1875C28.875 27.8087 28.567 27.5 28.1875 27.5C27.808 27.5 27.5 27.8087 27.5 28.1875V35.0625V37.125H26.125V35.0625C26.125 34.6837 25.817 34.375 25.4375 34.375C25.058 34.375 24.75 34.6837 24.75 35.0625V37.4447L28.5691 39.9905C28.7602 40.1184 28.875 40.3329 28.875 40.5625V41.9375H35.75V39.875C35.75 39.6928 35.8222 39.5175 35.9514 39.3889L37.125 38.2154V30.9375Z" fill="white"/>
<path d="M41.5216 24.4784C41.7938 24.0701 41.9375 23.5943 41.9375 23.1034C41.9375 21.7367 40.8258 20.625 39.4591 20.625C38.9682 20.625 38.4931 20.7687 38.0841 21.0409L37.6166 21.3524C35.6318 22.6758 33.3224 23.375 30.9375 23.375C28.5526 23.375 26.2432 22.6758 24.2584 21.3531L23.7909 21.0416C23.3819 20.7694 22.9068 20.6257 22.4159 20.6257C21.0492 20.625 19.9375 21.7367 19.9375 23.1034C19.9375 23.5943 20.0812 24.0701 20.3534 24.4784L20.8553 25.2319C22.0543 27.0291 22.6875 29.1204 22.6875 31.2812C22.6875 33.4421 22.0543 35.5334 20.856 37.3306L20.3541 38.0841C20.0819 38.4924 19.9382 38.9682 19.9382 39.4591C19.9375 40.8258 21.0492 41.9375 22.4159 41.9375C22.9068 41.9375 23.3819 41.7938 23.7909 41.5216L24.2584 41.2101C24.9019 40.7811 25.586 40.425 26.2955 40.128L23.6809 38.3852C23.4898 38.2566 23.375 38.0421 23.375 37.8125V35.0625C23.375 33.9254 24.3004 33 25.4375 33C25.6795 33 25.9091 33.0495 26.125 33.1265V28.1875C26.125 27.0504 27.0504 26.125 28.1875 26.125C28.4591 26.125 28.7169 26.1807 28.9548 26.2763C29.1926 25.3997 29.9867 24.75 30.9375 24.75C31.8883 24.75 32.6831 25.3997 32.9202 26.2763C33.1581 26.1807 33.4159 26.125 33.6875 26.125C34.8246 26.125 35.75 27.0504 35.75 28.1875V29.0015C35.9659 28.9245 36.1955 28.875 36.4375 28.875C37.5746 28.875 38.5 29.8004 38.5 30.9375V38.5C38.5 38.6822 38.4278 38.8575 38.2986 38.9861L37.125 40.1596V40.9104C37.2893 41.0087 37.4564 41.1029 37.6166 41.2094L38.0841 41.5209C38.4931 41.7931 38.9682 41.9368 39.4591 41.9368C40.8258 41.9375 41.9375 40.8258 41.9375 39.4591C41.9375 38.9682 41.7938 38.4924 41.5216 38.0841L41.0197 37.3306C39.8207 35.5334 39.1875 33.4421 39.1875 31.2812C39.1875 29.1204 39.8207 27.0291 41.019 25.2319L41.5216 24.4784Z" fill="white"/>
<path d="M11 19.9375C8.34694 19.9375 6.1875 22.0963 6.1875 24.75C6.1875 27.4037 8.34694 29.5625 11 29.5625C13.6531 29.5625 15.8125 27.4037 15.8125 24.75C15.8125 22.0963 13.6531 19.9375 11 19.9375ZM11 28.1875C9.10456 28.1875 7.5625 26.6454 7.5625 24.75C7.5625 22.8546 9.10456 21.3125 11 21.3125C12.8954 21.3125 14.4375 22.8546 14.4375 24.75C14.4375 26.6454 12.8954 28.1875 11 28.1875Z" fill="white"/>
<path d="M11 26.8125C12.1391 26.8125 13.0625 25.8891 13.0625 24.75C13.0625 23.6109 12.1391 22.6875 11 22.6875C9.86091 22.6875 8.9375 23.6109 8.9375 24.75C8.9375 25.8891 9.86091 26.8125 11 26.8125Z" fill="white"/>
<path d="M3.4375 15.9385L2.0625 16.331V18.5627H3.4375V15.9385Z" fill="white"/>
<path d="M20.405 5.79425L16.355 12.375H26.125V4.8125H22.1616C21.4404 4.8125 20.7832 5.17963 20.405 5.79425Z" fill="white"/>
<path d="M41.25 13.75C40.9716 13.75 40.7199 13.5816 40.6141 13.3244L37.2041 5.04281C36.4588 3.23263 34.7119 2.0625 32.7546 2.0625H21.5552C19.9155 2.0625 18.4051 2.88406 17.5147 4.26044L11.5775 13.4358C11.4867 13.5754 11.3492 13.6778 11.1891 13.7232L4.8125 15.5451V19.25C4.8125 19.6295 4.50519 19.9375 4.125 19.9375H2.0625V24.0625H4.85306C5.19613 20.9736 7.82031 18.5625 11 18.5625C14.1797 18.5625 16.8039 20.9736 17.1469 24.0625H18.6917C18.612 23.7511 18.5625 23.4307 18.5625 23.1034C18.5625 20.9791 20.2916 19.25 22.4159 19.25C23.1791 19.25 23.9188 19.4741 24.5534 19.8969L25.0209 20.2084C26.7788 21.3806 28.8248 22 30.9375 22C33.0502 22 35.0962 21.3806 36.8534 20.2091L37.3209 19.8976C37.9562 19.4741 38.6953 19.25 39.4591 19.25C40.403 19.25 41.2672 19.5924 41.9375 20.1575V13.75H41.25ZM27.5 16.5H24.75V15.125H27.5V16.5ZM15.125 13.75C14.8761 13.75 14.6465 13.6153 14.5248 13.398C14.4031 13.1808 14.4086 12.9147 14.5393 12.7022L19.2342 5.07375C19.8653 4.04938 20.9591 3.4375 22.1616 3.4375H32.4864C33.8979 3.4375 35.1876 4.323 35.695 5.64094L38.4546 12.8157C38.5357 13.0274 38.5076 13.2646 38.3797 13.4516C38.2511 13.6386 38.0387 13.75 37.8125 13.75H15.125ZM38.5 16.5H35.75V15.125H38.5V16.5Z" fill="white"/>
<path d="M32.4864 4.8125H27.5V12.375H36.8115L34.4114 6.13456C34.1069 5.34394 33.3327 4.8125 32.4864 4.8125Z" fill="white"/>
</svg>
