<svg width="44" height="44" viewBox="0 0 44 44" fill="none" xmlns="http://www.w3.org/2000/svg">
<g clip-path="url(#clip0_2151_1356)">
<path d="M29.0584 6.16642L29.4379 7.18025L29.8174 6.16642C29.9759 5.74303 30.2233 5.35857 30.5431 5.03898C30.8628 4.71939 31.2474 4.47211 31.6709 4.31383L32.6792 3.93433L31.6709 3.55483C31.2477 3.39613 30.8635 3.14858 30.5441 2.82885C30.2247 2.50912 29.9775 2.12465 29.8192 1.70133L29.4397 0.6875L29.0584 1.70133C28.9001 2.12465 28.6529 2.50912 28.3335 2.82885C28.0141 3.14858 27.6299 3.39613 27.2067 3.55483L26.1929 3.93433L27.2067 4.31383C27.6298 4.47233 28.0141 4.71971 28.3335 5.03929C28.6529 5.35886 28.9001 5.74321 29.0584 6.16642Z" fill="white"/>
<path d="M36.0956 9.89457L36.3825 10.6627L36.6667 9.89457C36.7867 9.57341 36.9743 9.28176 37.2167 9.03933C37.4591 8.79689 37.7508 8.60933 38.0719 8.48932L38.8401 8.20148L38.0719 7.91365C37.7508 7.79364 37.4591 7.60607 37.2167 7.36364C36.9743 7.12121 36.7867 6.82956 36.6667 6.5084L36.3789 5.74023L36.0919 6.5084C35.9717 6.82941 35.784 7.12092 35.5416 7.36332C35.2992 7.60572 35.0077 7.79337 34.6867 7.91365L33.9176 8.20148L34.6867 8.48932C35.0084 8.60915 35.3006 8.79661 35.5437 9.03903C35.7867 9.28145 35.9749 9.57319 36.0956 9.89457Z" fill="white"/>
<path d="M40.3902 5.62656L40.6771 6.39565L40.9649 5.62656C41.0852 5.30555 41.2728 5.01404 41.5152 4.77164C41.7576 4.52924 42.0491 4.34159 42.3702 4.22131L43.1383 3.93439L42.3702 3.64656C42.049 3.52655 41.7573 3.33899 41.5149 3.09655C41.2725 2.85412 41.0849 2.56247 40.9649 2.24131L40.6771 1.47314L40.3902 2.24131C40.2699 2.56232 40.0822 2.85384 39.8398 3.09623C39.5974 3.33863 39.3059 3.52628 38.9849 3.64656L38.2158 3.93439L38.9849 4.22131C39.3057 4.3419 39.5971 4.52967 39.8394 4.77202C40.0818 5.01438 40.2696 5.30573 40.3902 5.62656Z" fill="white"/>
<path d="M36.5576 40.4736V42.3831C36.5576 42.5055 36.5818 42.6267 36.6288 42.7398C36.6758 42.8529 36.7447 42.9556 36.8315 43.0419C36.9183 43.1283 37.0213 43.1967 37.1346 43.2431C37.2479 43.2896 37.3693 43.3132 37.4917 43.3126H41.0667C41.3132 43.3126 41.5496 43.2146 41.724 43.0403C41.8983 42.866 41.9962 42.6296 41.9962 42.3831V38.7026C41.4061 39.2955 40.6991 39.7592 39.9201 40.0641C39.1412 40.369 38.3073 40.5084 37.4715 40.4736H36.5576Z" fill="white"/>
<path d="M1.95435 38.6484V42.3829C1.95435 42.6295 2.05227 42.8659 2.22659 43.0402C2.40091 43.2145 2.63733 43.3124 2.88385 43.3124H6.45885C6.70536 43.3124 6.94179 43.2145 7.1161 43.0402C7.29042 42.8659 7.38835 42.6295 7.38835 42.3829V40.4735H6.53126C5.6827 40.5101 4.83603 40.3664 4.04709 40.0518C3.25815 39.7372 2.54489 39.2589 1.95435 38.6484Z" fill="white"/>
<path d="M1.98096 34.9249C1.98096 37.5594 3.81429 39.0948 6.53129 39.0948H37.4697C40.183 39.0948 42.0201 37.5594 42.0201 34.9249V34.1641H1.98096V34.9249Z" fill="white"/>
<path d="M42.4417 17.9666L40.15 17.5688C39.967 17.5368 39.7785 17.5676 39.6152 17.6561C39.4518 17.7446 39.3231 17.8857 39.2499 18.0564L38.5367 19.6689L38.247 19.227L36.2377 14.4833C35.9136 13.7137 35.399 13.0393 34.7423 12.5236C34.0856 12.0078 33.3084 11.6677 32.484 11.5353C29.0145 11.0085 25.5092 10.7526 22 10.7699C18.4911 10.7535 14.9861 11.0103 11.517 11.538C10.6918 11.6698 9.91373 12.0096 9.25618 12.5254C8.59863 13.0412 8.08328 13.7159 7.75871 14.486L5.75396 19.2224L5.46888 19.6579L4.75113 18.0519C4.67792 17.8811 4.54921 17.74 4.38584 17.6515C4.22247 17.563 4.034 17.5322 3.85096 17.5642L1.55838 17.9666C1.34659 18.0008 1.15394 18.1094 1.01501 18.2729C0.87607 18.4364 0.799944 18.644 0.800294 18.8585V19.3086C0.800337 19.5152 0.870992 19.7155 1.00054 19.8764C1.13009 20.0373 1.31074 20.1491 1.51254 20.1932L4.65121 20.9109L3.14788 23.2026C2.38707 24.3629 1.9818 25.7201 1.98188 27.1076V32.7909H42.02V27.1076C42.0198 25.7201 41.6142 24.3628 40.8531 23.2026L39.3443 20.8999L42.4885 20.1914C42.6903 20.1472 42.8709 20.0355 43.0005 19.8746C43.13 19.7137 43.2007 19.5133 43.2007 19.3068V18.8567C43.2006 18.6423 43.1241 18.435 42.9851 18.2719C42.846 18.1088 42.6534 18.0006 42.4417 17.9666ZM9.02829 15.0232C9.25989 14.467 9.63012 13.9795 10.1037 13.607C10.5772 13.2346 11.1383 12.9896 11.7334 12.8956C15.131 12.3799 18.5635 12.1289 22 12.1449C25.4365 12.1289 28.8691 12.3799 32.2667 12.8956C32.8613 12.9899 33.4219 13.2349 33.8951 13.6071C34.3683 13.9794 34.7383 14.4666 34.97 15.0223L36.5145 18.6651H7.48371L9.02829 15.0232ZM6.11238 28.3149C5.84291 28.2756 5.59144 28.1563 5.39057 27.9724C5.1897 27.7885 5.04869 27.5486 4.98579 27.2836C4.90293 26.9746 4.87043 26.6542 4.88954 26.3349C4.96379 25.5099 5.22321 25.1038 5.74754 25.1038C5.74754 25.1038 9.34271 25.3274 9.82854 25.4769C10.3144 25.6263 12.1789 29.171 12.1789 29.171L6.11238 28.3149ZM29.1427 29.6899L21.956 30.1005L14.8574 29.6999L13.047 25.86C13.047 25.86 19.4242 26.4155 21.9991 26.4155C24.574 26.4155 30.9531 25.86 30.9531 25.86L29.1427 29.6899ZM39.0134 27.2873C38.9505 27.5522 38.8095 27.7922 38.6086 27.9761C38.4077 28.1599 38.1563 28.2792 37.8868 28.3185L31.8203 29.1747C31.8203 29.1747 33.6857 25.6299 34.1715 25.4805C34.6574 25.3311 38.2516 25.1074 38.2516 25.1074C38.7769 25.1074 39.0354 25.5172 39.1096 26.3385C39.1287 26.6579 39.0962 26.9783 39.0134 27.2873Z" fill="white"/>
</g>
<defs>
<clipPath id="clip0_2151_1356">
<rect width="44" height="44" fill="white"/>
</clipPath>
</defs>
</svg>
