<svg width="44" height="36" viewBox="0 0 44 36" fill="none" xmlns="http://www.w3.org/2000/svg">
<path d="M12.7783 31.5749H18.651V33.6321C18.651 34.7867 17.7154 35.7224 16.5608 35.7224H14.8686C13.7139 35.7224 12.7783 34.7867 12.7783 33.6321V31.5749ZM36.601 33.6321C36.601 34.7867 37.5367 35.7224 38.6913 35.7224H40.3834C41.5381 35.7224 42.4671 34.7867 42.4671 33.6321V31.5749H36.601V33.6321ZM44 20.0207V29.2258C44 29.7899 43.5421 30.2477 42.9781 30.2477H12.2673C11.7099 30.2477 11.2521 29.7899 11.2521 29.2258V20.0207C11.2521 18.0896 12.8181 16.5236 14.7491 16.5236H20.0866C20.0733 16.4562 20.0656 16.3867 20.0656 16.3154C20.0656 15.7266 20.543 15.2493 21.1318 15.2493C21.5093 15.2493 21.839 15.4467 22.0285 15.7427C22.2359 15.3471 22.6458 15.0743 23.1235 15.0743C23.2515 15.0743 23.3725 15.0992 23.4886 15.1352C23.678 14.3727 24.3618 13.8053 25.183 13.8053C26.1501 13.8053 26.9341 14.5893 26.9341 15.5564C26.9341 15.557 26.9339 15.5575 26.9339 15.5581C26.9369 15.5581 26.9393 15.5564 26.9423 15.5564C27.4119 15.5564 27.7926 15.9371 27.7926 16.4067C27.7926 16.4482 27.7748 16.4837 27.769 16.5236H39.9343L38.0144 6.08663C37.8485 5.19075 37.0655 4.54047 36.1564 4.54047H19.0956C18.1799 4.54047 17.3968 5.19075 17.2309 6.08663L17.1181 6.70376C16.793 6.47809 16.4081 6.35867 16.0099 6.35867H15.9303L16.0232 5.86763C16.2953 4.38786 17.5893 3.31284 19.0956 3.31284H33.5852C33.5753 3.26387 33.5557 3.21839 33.5557 3.16648C33.5557 2.7482 33.8948 2.40912 34.3131 2.40912C34.5433 2.40912 34.7424 2.51729 34.8813 2.67939C34.9504 2.31999 35.2519 2.04313 35.6315 2.04313C35.9611 2.04313 36.2394 2.24911 36.3532 2.53823C36.577 2.18508 36.9687 1.949 37.4176 1.949C38.1147 1.949 38.6798 2.5141 38.6798 3.21121C38.6798 3.31318 38.6645 3.41095 38.6417 3.50591C38.9889 3.53066 39.2654 3.81269 39.2654 4.16622C39.2654 4.46209 39.0704 4.70513 38.8043 4.79371C39.0035 5.11606 39.1502 5.47626 39.2222 5.86763L41.1962 16.5935C42.7951 16.9154 44 18.3271 44 20.0207ZM19.1952 22.2491C19.1952 21.0015 18.1799 19.9862 16.9323 19.9862C15.6782 19.9862 14.6695 21.0015 14.6695 22.2491C14.6695 23.4966 15.6782 24.5119 16.9323 24.5119C18.1799 24.5119 19.1952 23.4966 19.1952 22.2491ZM31.2525 25.2883C31.2525 25.0162 31.0336 24.7906 30.7548 24.7906H24.4906C24.2185 24.7906 23.9995 25.0162 23.9995 25.2883V27.2658C23.9995 27.5445 24.2185 27.7635 24.4906 27.7635H30.7548C31.0336 27.7635 31.2525 27.5445 31.2525 27.2658V25.2883ZM40.5825 22.2491C40.5825 21.0015 39.5672 19.9862 38.3197 19.9862C37.0722 19.9862 36.0569 21.0015 36.0569 22.2491C36.0569 23.4966 37.0722 24.5119 38.3197 24.5119C39.5673 24.5119 40.5825 23.4966 40.5825 22.2491ZM36.7184 1.00985C36.9205 1.00985 37.0844 0.845996 37.0844 0.643864C37.0844 0.441691 36.9205 0.277832 36.7184 0.277832C36.5162 0.277832 36.3524 0.441691 36.3524 0.643864C36.3524 0.845989 36.5162 1.00985 36.7184 1.00985ZM34.9152 1.27971C35.1231 1.27971 35.2917 1.11114 35.2917 0.903265C35.2917 0.695344 35.1231 0.526783 34.9152 0.526783C34.7073 0.526783 34.5387 0.695351 34.5387 0.903271C34.5387 1.11115 34.7073 1.27971 34.9152 1.27971ZM21.8709 13.036C21.8709 12.7967 21.6769 12.6027 21.4377 12.6027C21.1984 12.6027 21.0045 12.7967 21.0045 13.036C21.0045 13.2752 21.1984 13.4692 21.4377 13.4692C21.6769 13.4692 21.8709 13.2752 21.8709 13.036ZM23.5057 13.5509C23.5057 13.3342 23.3301 13.1586 23.1134 13.1586C22.8967 13.1586 22.721 13.3342 22.721 13.5509C22.721 13.7676 22.8967 13.9433 23.1134 13.9433C23.3301 13.9433 23.5057 13.7676 23.5057 13.5509ZM14.2852 7.22345C14.5984 7.22345 14.8524 6.9695 14.8524 6.65622C14.8524 6.34293 14.5984 6.08898 14.2852 6.08898C13.9719 6.08898 13.7179 6.34293 13.7179 6.65622C13.7179 6.9695 13.9719 7.22345 14.2852 7.22345ZM13.6508 8.71288C13.8291 8.71288 13.9736 8.56836 13.9736 8.39007C13.9736 8.21182 13.8291 8.0673 13.6508 8.0673C13.4725 8.0673 13.328 8.21182 13.328 8.39007C13.328 8.56837 13.4726 8.71288 13.6508 8.71288ZM18.0242 8.0673C18.0242 7.90869 17.8957 7.78012 17.7371 7.78012C17.5785 7.78012 17.4499 7.90869 17.4499 8.0673C17.4499 8.22588 17.5785 8.35445 17.7371 8.35445C17.8957 8.35445 18.0242 8.22588 18.0242 8.0673ZM6.04265 12.2579L6.4436 12.4425L8.76361 13.5122L8.76378 13.5106L10.7514 14.4256C10.9153 14.5011 11.0896 14.5378 11.263 14.5378C11.5617 14.5378 11.8566 14.4285 12.0866 14.2196L13.0717 13.3242C12.9217 13.8756 12.7908 14.3987 12.684 14.8512C12.5647 15.3575 12.9373 15.8644 13.4575 15.8676C13.4621 15.8677 13.4667 15.8677 13.4713 15.8677C14.7131 15.8677 14.8771 14.8325 16.1231 14.8325C16.171 14.8325 16.2168 14.834 16.2607 14.837C16.7133 14.8677 17.0985 14.5093 17.1269 14.0565C17.2892 11.4675 17.2895 7.68507 16.0132 7.68507C15.7149 7.68507 15.4218 7.8992 15.1383 8.24719C15.0051 8.30006 14.8779 8.37374 14.7656 8.476L11.0394 11.863L8.90261 10.8792C8.63309 9.61412 7.59101 8.60184 6.23535 8.44235C4.53658 8.23661 2.99041 9.45765 2.79135 11.1564L1.66124 20.7657C1.65069 20.8539 1.64423 20.9434 1.64943 21.0352L1.99516 27.1254L0.0613967 33.7619C-0.174766 34.5733 0.291139 35.4229 1.10246 35.6594C1.24539 35.7009 1.38956 35.721 1.53115 35.721C2.1941 35.721 2.80485 35.2868 2.9996 34.6187L5.00688 27.7294C5.05547 27.5622 5.07524 27.3879 5.06554 27.2142L4.73131 21.3266L6.35481 27.4968L6.75302 34.2797C6.80064 35.093 7.47493 35.7203 8.27913 35.7203C8.30925 35.7203 8.33972 35.7197 8.37019 35.7177C9.21358 35.6685 9.85743 34.9446 9.80784 34.1009L9.40089 27.1656C9.39506 27.0639 9.37915 26.9641 9.35327 26.8656L7.858 21.1829L8.59771 14.8924L5.4891 13.4632C5.15697 13.3105 5.01099 12.9179 5.16268 12.5853C5.31495 12.2514 5.70926 12.1049 6.04265 12.2579ZM8.07695 8.33183C10.0409 8.33183 11.6329 6.73976 11.6329 4.77587C11.6329 2.81194 10.0409 1.21987 8.07695 1.21987C6.11306 1.21987 4.521 2.81194 4.521 4.77587C4.521 6.73976 6.11306 8.33183 8.07695 8.33183Z" fill="white"/>
</svg>
