<svg width="28" height="22" viewBox="0 0 28 22" fill="none" xmlns="http://www.w3.org/2000/svg">
<path d="M0 18.6562C0 20.3148 1.3493 21.6641 3.00781 21.6641H24.9922C26.6507 21.6641 28 20.3148 28 18.6562V18.3828H0V18.6562Z" fill="#FCFCFC"/>
<path d="M11.1544 9.63264L11.6913 7.21665L10.5939 7.87509C10.2054 8.10817 9.70147 7.98222 9.46839 7.59372L8.53121 6.03174L7.59398 7.59372C7.3609 7.98222 6.85701 8.10817 6.46851 7.87509L5.37109 7.21665L5.90802 9.63264H11.1544Z" fill="#FCFCFC"/>
<path d="M24.9922 0.335938H3.00781C1.3493 0.335938 0 1.68524 0 3.34375V16.7422H28V3.34375C28 1.68524 26.6507 0.335938 24.9922 0.335938ZM4.57827 4.82786L6.60926 6.04646L7.82786 4.01548C8.14647 3.48446 8.91609 3.48446 9.2347 4.01548L10.4533 6.04646L12.4843 4.82786C13.1021 4.45719 13.8634 5.00592 13.7071 5.7092L12.8351 9.63281H12.9062C13.3593 9.63281 13.7266 10.0001 13.7266 10.4531C13.7266 10.9062 13.3593 11.2734 12.9062 11.2734H4.15625C3.70322 11.2734 3.33594 10.9062 3.33594 10.4531C3.33594 10.0001 3.70322 9.63281 4.15625 9.63281H4.2274L3.35546 5.7092C3.19916 5.00592 3.96052 4.45719 4.57827 4.82786ZM23.8438 15.1016H4.15625C3.70322 15.1016 3.33594 14.7343 3.33594 14.2812C3.33594 13.8282 3.70322 13.4609 4.15625 13.4609H23.8438C24.2968 13.4609 24.6641 13.8282 24.6641 14.2812C24.6641 14.7343 24.2968 15.1016 23.8438 15.1016ZM23.8438 11.8203H17.2812C16.8282 11.8203 16.4609 11.453 16.4609 11C16.4609 10.547 16.8282 10.1797 17.2812 10.1797H23.8438C24.2968 10.1797 24.6641 10.547 24.6641 11C24.6641 11.453 24.2968 11.8203 23.8438 11.8203ZM23.8438 8.53906H17.2812C16.8282 8.53906 16.4609 8.17178 16.4609 7.71875C16.4609 7.26572 16.8282 6.89844 17.2812 6.89844H23.8438C24.2968 6.89844 24.6641 7.26572 24.6641 7.71875C24.6641 8.17178 24.2968 8.53906 23.8438 8.53906ZM23.8438 5.25781H17.2812C16.8282 5.25781 16.4609 4.89053 16.4609 4.4375C16.4609 3.98447 16.8282 3.61719 17.2812 3.61719H23.8438C24.2968 3.61719 24.6641 3.98447 24.6641 4.4375C24.6641 4.89053 24.2968 5.25781 23.8438 5.25781Z" fill="#FCFCFC"/>
</svg>
