<svg width="40" height="40" viewBox="0 0 40 40" fill="none" xmlns="http://www.w3.org/2000/svg">
<g clip-path="url(#clip0_13_347)">
<path d="M25.9375 17.2979V26.3786L38.304 32.5619C39.0832 32.9516 40 32.385 40 31.5138V19.0558L25.9375 17.2979Z" fill="#FCFCFC"/>
<path d="M22.5672 16.8766C21.8365 16.8076 21.25 17.3426 21.25 18.0393V23.3105C21.25 23.758 21.4984 24.1596 21.8977 24.3588L23.5938 25.2068V17.0049L22.5672 16.8766Z" fill="#FCFCFC"/>
<path d="M18.9062 23.3113V18.0394C18.9062 15.9051 20.7912 14.2846 22.8579 14.5513L39.8289 16.6728C38.9276 11.4246 35.875 6.55128 31.2979 3.48081C26.3266 0.145967 20.0458 -0.849658 14.2047 0.754796C6.41586 2.89144 0 11.6033 0 19.9815V25.5937C0 26.9682 0.809062 28.2247 2.09773 28.8107L27.9769 39.4789C31.4255 40.9082 35.4307 39.2869 36.8552 35.6966C36.9793 35.385 37.1109 34.9964 37.2394 34.6504L20.8494 26.4554C19.6586 25.86 18.9062 24.6427 18.9062 23.3113ZM9.45312 25.9313C6.86789 25.9313 4.76562 23.829 4.76562 21.2438C4.76562 18.6585 6.86789 16.5563 9.45312 16.5563C12.0384 16.5563 14.1406 18.6585 14.1406 21.2438C14.1406 23.829 12.0384 25.9313 9.45312 25.9313Z" fill="#FCFCFC"/>
<path d="M9.45312 18.8999C8.16109 18.8999 7.10938 19.9516 7.10938 21.2437C7.10938 22.5357 8.16109 23.5874 9.45312 23.5874C10.7452 23.5874 11.7969 22.5357 11.7969 21.2437C11.7969 19.9516 10.7452 18.8999 9.45312 18.8999Z" fill="#FCFCFC"/>
</g>
<defs>
<clipPath id="clip0_13_347">
<rect width="40" height="40" fill="white"/>
</clipPath>
</defs>
</svg>
