<svg width="34" height="30" viewBox="0 0 34 30" fill="none" xmlns="http://www.w3.org/2000/svg">
<path d="M19.4969 0.49707H6.09538C5.48703 0.49707 4.99383 0.990271 4.99383 1.59862C4.99383 2.20697 5.48703 2.70017 6.09538 2.70017H11.8213C10.6133 3.45674 9.524 4.38589 8.58867 5.45338H1.10155C0.4932 5.45344 0 5.94671 0 6.55506C0 7.16341 0.4932 7.65661 1.10155 7.65661H6.99512C5.72423 9.81189 4.99376 12.3222 4.99376 15.0002C4.99376 18.1162 5.98182 21.0058 7.66071 23.3725H4.53522C3.92687 23.3725 3.43368 23.8657 3.43368 24.474C3.43368 25.0824 3.92687 25.5756 4.53522 25.5756H9.58337C10.2702 26.2198 11.0196 26.798 11.8213 27.3001H1.21517C0.606821 27.3001 0.113621 27.7933 0.113621 28.4016C0.113621 29.01 0.606821 29.5032 1.21517 29.5032H19.4969C27.494 29.5032 34 22.9971 34 15.0001C34 7.0031 27.494 0.49707 19.4969 0.49707ZM24.8478 22.2292C24.8276 22.2463 24.8074 22.2636 24.7856 22.2793C24.761 22.2972 24.7358 22.3138 24.7104 22.3294C23.2386 23.3793 21.4386 23.9977 19.4969 23.9977C17.5552 23.9977 15.7553 23.3793 14.2834 22.3294C14.2579 22.3138 14.2328 22.2972 14.2082 22.2793C14.1865 22.2634 14.1663 22.2462 14.146 22.2292C11.935 20.5883 10.4993 17.9588 10.4993 15.0002C10.4993 10.0389 14.5356 6.00256 19.4969 6.00256C24.4582 6.00256 28.4945 10.0389 28.4945 15.0002C28.4945 17.9589 27.0589 20.5883 24.8478 22.2292Z" fill="#1D1D1D"/>
</svg>
