<svg width="42" height="42" viewBox="0 0 42 42" fill="none" xmlns="http://www.w3.org/2000/svg">
<g clip-path="url(#clip0_40_140)">
<path d="M14.4105 22.2305C11.4554 22.2305 9.05127 24.6347 9.05127 27.5898C9.05127 30.5449 11.4554 32.9492 14.4105 32.9492C17.3657 32.9492 19.77 30.5449 19.77 27.5898C19.77 24.6347 17.3657 22.2305 14.4105 22.2305Z" fill="#E63946"/>
<path d="M40.7695 13.1796H22.2305V17.0461C22.2305 17.7256 21.6795 18.2766 21 18.2766C20.3204 18.2766 19.7695 17.7256 19.7695 17.0461V13.1796H14.4101C12.5151 13.1796 10.7048 13.548 9.04583 14.2159C8.94362 11.8104 6.95559 9.88477 4.52534 9.88477C2.03011 9.88477 0 11.9148 0 14.4101C0 16.3995 1.29093 18.092 3.07871 18.697C1.15106 21.1479 0 24.237 0 27.5898C0 35.5357 6.46439 42 14.4102 42C22.356 42 28.8204 35.5356 28.8204 27.5898C28.8204 27.4038 28.8168 27.217 28.8095 27.03L40.9222 25.5158C41.5379 25.4389 42.0001 24.9154 42.0001 24.2949V14.4101C42 13.7306 41.4491 13.1796 40.7695 13.1796ZM4.52542 16.4746C3.38707 16.4746 2.46094 15.5484 2.46094 14.4101C2.46094 13.2718 3.38707 12.3457 4.52542 12.3457C5.66377 12.3457 6.58998 13.2718 6.58998 14.4101C6.58998 15.5484 5.66377 16.4746 4.52542 16.4746ZM14.4102 35.4101C10.0981 35.4101 6.58998 31.9019 6.58998 27.5898C6.58998 23.2778 10.098 19.7695 14.4102 19.7695C18.7223 19.7695 22.2305 23.2778 22.2305 27.5898C22.2305 31.9019 18.7223 35.4101 14.4102 35.4101Z" fill="#E63946"/>
<path d="M21 5.75581C21.6795 5.75581 22.2305 5.20488 22.2305 4.52534V1.23047C22.2305 0.550922 21.6795 0 21 0C20.3204 0 19.7695 0.550922 19.7695 1.23047V4.52534C19.7696 5.20488 20.3204 5.75581 21 5.75581Z" fill="#E63946"/>
<path d="M11.8244 7.23845L14.6778 8.88589C14.8715 8.99778 15.0831 9.05102 15.2919 9.05102C15.7171 9.05102 16.1308 8.83035 16.3587 8.43554C16.6984 7.84704 16.4968 7.09449 15.9083 6.75472L13.0549 5.10728C12.4664 4.76743 11.7138 4.9689 11.374 5.55763C11.0343 6.14613 11.2359 6.89868 11.8244 7.23845Z" fill="#E63946"/>
<path d="M26.7084 9.05101C26.9171 9.05101 27.1287 8.99778 27.3224 8.88589L30.1761 7.23845C30.7647 6.89868 30.9663 6.14621 30.6266 5.55771C30.2868 4.96906 29.5342 4.76734 28.9457 5.10728L26.092 6.75471C25.5035 7.09449 25.3018 7.84696 25.6416 8.43545C25.8696 8.83027 26.2832 9.05101 26.7084 9.05101Z" fill="#E63946"/>
</g>
<defs>
<clipPath id="clip0_40_140">
<rect width="42" height="42" fill="white"/>
</clipPath>
</defs>
</svg>
