<svg width="24" height="22" viewBox="0 0 24 22" fill="none" xmlns="http://www.w3.org/2000/svg">
<path d="M0.70208 17.3284H19.0779C19.2427 17.3284 19.402 17.2707 19.5283 17.1656C19.7048 17.0178 23.731 13.5543 23.9765 6.07788H4.24121C3.99665 12.8645 0.288765 16.0544 0.250232 16.0862C0.0243312 16.2771 -0.0587819 16.5889 0.0428476 16.8663C0.143774 17.143 0.406801 17.3284 0.70208 17.3284Z" fill="#FCFCFC"/>
<path d="M23.2968 1.85895H19.781V1.15579C19.781 0.762026 19.4716 0.452637 19.0778 0.452637C18.684 0.452637 18.3747 0.762026 18.3747 1.15579V1.85895H14.812V1.15579C14.812 0.762026 14.5026 0.452637 14.1088 0.452637C13.7151 0.452637 13.4057 0.762026 13.4057 1.15579V1.85895H9.8899V1.15579C9.8899 0.762026 9.58051 0.452637 9.18674 0.452637C8.79298 0.452637 8.48359 0.762026 8.48359 1.15579V1.85895H4.96781C4.57404 1.85895 4.26465 2.16834 4.26465 2.56211V4.67158H23.9999V2.56211C23.9999 2.16834 23.6905 1.85895 23.2968 1.85895Z" fill="#FCFCFC"/>
<path d="M20.4314 18.2437C20.0496 18.5616 19.5703 18.7346 19.0779 18.7346H4.26477V20.8441C4.26477 21.2328 4.57927 21.5473 4.96793 21.5473H23.2969C23.6855 21.5473 24 21.2328 24 20.8441V12.9619C22.6443 16.2879 20.7526 17.9748 20.4314 18.2437Z" fill="#FCFCFC"/>
</svg>
