<svg width="28" height="22" viewBox="0 0 28 22" fill="none" xmlns="http://www.w3.org/2000/svg">
<path d="M6.26407 5.79959C6.78232 5.79959 7.2038 5.3779 7.2038 4.85986C7.2038 4.34161 6.78232 3.91992 6.26407 3.91992C5.74582 3.91992 5.32434 4.34161 5.32434 4.85986C5.32434 5.3779 5.74582 5.79959 6.26407 5.79959Z" fill="#1D1D1D"/>
<path d="M0 21.7609H28V14.4512H0V21.7609ZM22.1739 17.045L22.9705 15.9615L23.7671 17.045L25.0437 17.4677L24.2592 18.5602L24.252 19.9054L22.9705 19.4967L21.6889 19.9054L21.6815 18.5602L20.897 17.4677L22.1739 17.045ZM16.2409 17.045L17.0375 15.9615L17.8339 17.045L19.1109 17.4677L18.3263 18.5602L18.3188 19.9054L17.0373 19.4967L15.756 19.9054L15.7485 18.5602L14.9641 17.4677L16.2409 17.045ZM10.308 17.045L11.1046 15.9615L11.9009 17.045L13.1778 17.4677L12.3933 18.5602L12.3859 19.9054L11.1043 19.4967L9.82281 19.9054L9.81555 18.5602L9.03113 17.4677L10.308 17.045ZM5.17139 15.9615L5.96799 17.045L7.24481 17.4677L6.46039 18.5602L6.45291 19.9052L5.17139 19.4965L3.89008 19.9052L3.8826 18.5602L3.09796 17.4677L4.37479 17.045L5.17139 15.9615Z" fill="#1D1D1D"/>
<path d="M7.11646 7.43994H5.41196C4.71384 7.43994 4.14624 8.00775 4.14624 8.70566V9.08057H8.38196V8.70566C8.38196 8.00754 7.81436 7.43994 7.11646 7.43994Z" fill="#1D1D1D"/>
<path d="M28 0.226562H0V12.8107H28V0.226562ZM12.0859 5.79935H19.4861V7.43997H12.0859V5.79935ZM10.0226 10.7214H2.50558V8.7059C2.50558 7.60297 3.12296 6.64166 4.03043 6.14948C3.81039 5.76965 3.68372 5.32938 3.68372 4.85983C3.68372 3.43689 4.84113 2.27927 6.26407 2.27927C7.68701 2.27927 8.84442 3.43689 8.84442 4.85983C8.84442 5.32938 8.71774 5.76965 8.49771 6.14948C9.40518 6.64166 10.0226 7.60297 10.0226 8.7059V10.7214ZM12.0859 10.7214V9.08081H23.1837V10.7214H12.0859Z" fill="#1D1D1D"/>
</svg>
