<svg width="32" height="16" viewBox="0 0 32 16" fill="none" xmlns="http://www.w3.org/2000/svg">
<path d="M17.8776 15.2439C17.5606 15.3908 17.1845 15.2526 17.0381 14.9354L13.8164 7.95847L13.0786 8.4518C11.0252 9.82211 8.61349 10.5347 6.18065 10.5347C5.17716 10.5347 4.16944 10.4124 3.17861 10.1679C2.95935 10.113 2.79069 9.9486 2.72324 9.73356L0.825886 3.40905C0.76263 3.19401 0.817445 2.96212 0.969253 2.79767C1.12104 2.63325 1.35293 2.56156 1.57219 2.61215L2.27209 2.76815C5.27412 3.43434 8.44904 2.81877 10.9873 1.08584L11.392 0.807569C11.548 0.702161 11.7462 0.668423 11.9317 0.723238C12.113 0.778052 12.2606 0.912978 12.3323 1.09006L14.6597 6.76104L18.1859 14.4057C18.3319 14.7223 18.194 15.0974 17.8776 15.2439Z" fill="#E63946"/>
<path d="M31.1742 3.40905L29.2769 9.73356C29.2094 9.9486 29.0408 10.113 28.8215 10.1679C27.8307 10.4124 26.823 10.5347 25.8195 10.5347C23.3866 10.5347 20.9749 9.82211 18.9216 8.4518L18.1837 7.95847L14.9621 14.9354C14.8156 15.2526 14.4396 15.3908 14.1225 15.2439C13.8061 15.0974 13.6682 14.7223 13.8143 14.4057L17.3404 6.76104L19.6679 1.09006C19.7395 0.912978 19.8871 0.778052 20.0684 0.723238C20.2539 0.668423 20.4521 0.702161 20.6081 0.807569L21.0129 1.08584C23.5511 2.81877 26.726 3.43434 29.728 2.76815L30.4279 2.61215C30.6472 2.56156 30.8791 2.63325 31.0309 2.79767C31.1827 2.96212 31.2375 3.19401 31.1742 3.40905Z" fill="#E63946"/>
</svg>
