<svg width="32" height="28" viewBox="0 0 32 28" fill="none" xmlns="http://www.w3.org/2000/svg">
<path d="M27.3805 15.0825H24.9058C25.158 15.7731 25.2958 16.5185 25.2958 17.2953V26.6484C25.2958 26.9723 25.2394 27.2832 25.1369 27.5723H29.2282C30.7565 27.5723 31.9998 26.3289 31.9998 24.8007V19.7018C31.9999 17.1548 29.9276 15.0825 27.3805 15.0825Z" fill="#FCFCFC"/>
<path d="M6.70408 17.2953C6.70408 16.5184 6.84189 15.7731 7.09414 15.0825H4.61938C2.07225 15.0825 0 17.1548 0 19.7019V24.8007C0 26.329 1.24331 27.5724 2.77163 27.5724H6.86301C6.76045 27.2831 6.70408 26.9723 6.70408 26.6484V17.2953Z" fill="#FCFCFC"/>
<path d="M18.8293 12.6758H13.1716C10.6245 12.6758 8.55225 14.748 8.55225 17.2952V26.6483C8.55225 27.1585 8.96587 27.5722 9.47612 27.5722H22.5248C23.035 27.5722 23.4487 27.1586 23.4487 26.6483V17.2952C23.4487 14.748 21.3764 12.6758 18.8293 12.6758Z" fill="#FCFCFC"/>
<path d="M16.0002 0.427734C12.937 0.427734 10.4448 2.91986 10.4448 5.98318C10.4448 8.061 11.5916 9.87569 13.2853 10.8284C14.0886 11.2803 15.0147 11.5386 16.0002 11.5386C16.9857 11.5386 17.9118 11.2803 18.7152 10.8284C20.4088 9.87569 21.5556 8.06094 21.5556 5.98318C21.5556 2.91993 19.0635 0.427734 16.0002 0.427734Z" fill="#FCFCFC"/>
<path d="M6.24454 5.60547C3.9536 5.60547 2.08984 7.46922 2.08984 9.76016C2.08984 12.0511 3.9536 13.9149 6.24454 13.9149C6.82566 13.9149 7.37904 13.7945 7.88173 13.5781C8.75086 13.2039 9.46748 12.5415 9.91092 11.7119C10.2222 11.1295 10.3992 10.4652 10.3992 9.76016C10.3992 7.46928 8.53548 5.60547 6.24454 5.60547Z" fill="#FCFCFC"/>
<path d="M25.7548 5.60547C23.4639 5.60547 21.6001 7.46922 21.6001 9.76016C21.6001 10.4653 21.7772 11.1296 22.0884 11.7119C22.5319 12.5416 23.2485 13.204 24.1176 13.5781C24.6203 13.7945 25.1737 13.9149 25.7548 13.9149C28.0457 13.9149 29.9095 12.0511 29.9095 9.76016C29.9095 7.46922 28.0457 5.60547 25.7548 5.60547Z" fill="#FCFCFC"/>
</svg>
