<svg width="48" height="32" viewBox="0 0 48 32" fill="none" xmlns="http://www.w3.org/2000/svg">
<path d="M40.4259 16.1741C40.2461 16.1741 40.0683 16.1826 39.8916 16.1951L41.7859 23.39L39.066 24.1061L37.1715 16.9103C34.5727 18.1522 32.7876 20.8322 32.8538 23.9142C32.9386 27.8517 36.0808 31.1014 40.0136 31.3109C44.3763 31.5434 47.9998 28.0609 47.9998 23.748C47.9998 19.5717 44.6022 16.1741 40.4259 16.1741Z" fill="#FCFCFC"/>
<path d="M8.75286 22.3417H15.0147C14.3482 18.8082 11.2216 16.1329 7.48798 16.1746C3.51955 16.2188 0.22264 19.3718 0.011046 23.3348C-0.221923 27.6978 3.2607 31.3218 7.57386 31.3218C11.2695 31.3218 14.3534 28.6606 15.0147 25.1542H8.75286V22.3417Z" fill="#FCFCFC"/>
<path d="M39.8915 16.195L39.1151 13.2716C39.4231 13.3619 39.7487 13.4113 40.0859 13.4113H43.7845V6.27041H40.3422C39.2562 6.27041 38.2795 6.7385 37.6029 7.48391L35.811 0.678223H28.5136V3.49072H33.5494L34.233 6.26488H31.1382C27.2566 6.26488 23.5289 7.76329 20.7275 10.4403C23.9262 12.9136 28.1465 13.7679 32.098 12.6624L35.723 11.6483L37.1714 16.9102C37.1714 16.9102 38.4236 16.1584 39.8915 16.195Z" fill="#FCFCFC"/>
<path d="M28.6324 15.9505C24.5182 15.9505 20.4955 14.3342 17.5106 11.3493L16.7886 10.6274H8.97998V5.87695H6.16748V13.4399H7.57373C10.35 13.4399 12.9584 14.5094 14.9182 16.4514C16.5423 18.0608 17.5615 20.1147 17.864 22.3417H15.0146C15.3282 24.0373 15.0146 25.1542 15.0146 25.1542H30.0402V23.748C30.0402 19.8389 32.2113 16.4279 35.4108 14.6561L32.8559 15.3708C31.4631 15.7605 30.042 15.9505 28.6324 15.9505Z" fill="#FCFCFC"/>
</svg>
