<svg width="28" height="24" viewBox="0 0 28 24" fill="none" xmlns="http://www.w3.org/2000/svg">
<path d="M2.5 21.75H10.5C10.7761 21.75 11 21.5261 11 21.25V12.75C11 12.4739 10.7761 12.25 10.5 12.25H2.5C2.22386 12.25 2 12.4739 2 12.75V21.25C2 21.5261 2.22386 21.75 2.5 21.75ZM3 19.25C2.99768 18.1271 3.62446 17.0976 4.623 16.584C4.54318 16.3131 4.50177 16.0324 4.5 15.75C4.5 14.3715 5.397 13.25 6.5 13.25C7.603 13.25 8.5 14.3715 8.5 15.75C8.49823 16.0324 8.45682 16.3131 8.377 16.584C9.37554 17.0976 10.0023 18.1271 10 19.25V19.75C10 20.3023 9.55228 20.75 9 20.75H4C3.44772 20.75 3 20.3023 3 19.75V19.25Z" fill="#1D1D1D"/>
<path d="M24.5 14.5C24.5 14.0858 24.1642 13.75 23.75 13.75H22.5V15.25H23.75C24.1642 15.25 24.5 14.9142 24.5 14.5Z" fill="#1D1D1D"/>
<path d="M9 19.2499C9.00095 18.509 8.59126 17.8287 7.936 17.4829C7.60383 17.9493 7.07236 18.2332 6.5 18.2499C5.92764 18.2332 5.39617 17.9493 5.064 17.4829C4.40875 17.8287 3.99905 18.509 4 19.2499L4 19.7499H9L9 19.2499Z" fill="#1D1D1D"/>
<path d="M6.5 17.25C7.05228 17.25 7.5 16.5784 7.5 15.75C7.5 14.9216 7.05228 14.25 6.5 14.25C5.94772 14.25 5.5 14.9216 5.5 15.75C5.5 16.5784 5.94772 17.25 6.5 17.25Z" fill="#1D1D1D"/>
<path d="M12 5.25H16C16.2761 5.25 16.5 5.02614 16.5 4.75V0.75C16.5 0.473858 16.2761 0.25 16 0.25H12C11.7239 0.25 11.5 0.473858 11.5 0.75V4.75C11.5 5.02614 11.7239 5.25 12 5.25ZM13 1.25H15C15.2761 1.25 15.5 1.47386 15.5 1.75C15.5 2.02614 15.2761 2.25 15 2.25H13C12.7239 2.25 12.5 2.02614 12.5 1.75C12.5 1.47386 12.7239 1.25 13 1.25ZM13 3.25H15C15.2761 3.25 15.5 3.47386 15.5 3.75C15.5 4.02614 15.2761 4.25 15 4.25H13C12.7239 4.25 12.5 4.02614 12.5 3.75C12.5 3.47386 12.7239 3.25 13 3.25Z" fill="#1D1D1D"/>
<path d="M7 7.25H28V4.75C28 3.92157 27.3284 3.25 26.5 3.25H17.5V4.75C17.5 5.57843 16.8284 6.25 16 6.25H12C11.1716 6.25 10.5 5.57843 10.5 4.75V3.25H1.5C0.671573 3.25 0 3.92157 0 4.75V7.25H4C4.27614 7.25 4.5 7.47386 4.5 7.75C4.5 8.02614 4.27614 8.25 4 8.25H0V9.25H28V8.25H7C6.72386 8.25 6.5 8.02614 6.5 7.75C6.5 7.47386 6.72386 7.25 7 7.25Z" fill="#1D1D1D"/>
<path d="M0 22.25C0 23.0784 0.671573 23.75 1.5 23.75H26.5C27.3284 23.75 28 23.0784 28 22.25V10.25H0V22.25ZM26 22.25H19.5C19.2239 22.25 19 22.0261 19 21.75C19 21.4739 19.2239 21.25 19.5 21.25H26C26.2761 21.25 26.5 21.4739 26.5 21.75C26.5 22.0261 26.2761 22.25 26 22.25ZM26.5 19.75C26.5 20.0261 26.2761 20.25 26 20.25H16C15.7239 20.25 15.5 20.0261 15.5 19.75C15.5 19.4739 15.7239 19.25 16 19.25H26C26.2761 19.25 26.5 19.4739 26.5 19.75ZM21.5 15.75V13.25C21.5 12.9739 21.7239 12.75 22 12.75H23.75C24.7165 12.75 25.5 13.5335 25.5 14.5C25.5 15.4665 24.7165 16.25 23.75 16.25H22.5V17.25C22.5 17.5261 22.2761 17.75 22 17.75C21.7239 17.75 21.5 17.5261 21.5 17.25V15.75ZM19.5 13.25C19.5 12.9739 19.7239 12.75 20 12.75C20.2761 12.75 20.5 12.9739 20.5 13.25V17.25C20.5 17.5261 20.2761 17.75 20 17.75C19.7239 17.75 19.5 17.5261 19.5 17.25V13.25ZM14.824 12.7815C14.9483 12.7347 15.0861 12.7393 15.207 12.7943C15.328 12.8493 15.422 12.9501 15.4685 13.0745L16.5 15.826L17.5315 13.076C17.6281 12.8173 17.9163 12.6859 18.175 12.7825C18.4337 12.8791 18.5651 13.1673 18.4685 13.426L16.9685 17.426C16.8956 17.6216 16.7088 17.7513 16.5 17.7513C16.2912 17.7513 16.1044 17.6216 16.0315 17.426L14.5315 13.426C14.4847 13.3018 14.4892 13.164 14.5441 13.0431C14.599 12.9222 14.6997 12.8281 14.824 12.7815ZM1 12.75C1 11.9216 1.67157 11.25 2.5 11.25H10.5C11.3284 11.25 12 11.9216 12 12.75V21.25C12 22.0784 11.3284 22.75 10.5 22.75H2.5C1.67157 22.75 1 22.0784 1 21.25V12.75Z" fill="#1D1D1D"/>
</svg>
