<svg width="44" height="28" viewBox="0 0 44 28" fill="none" xmlns="http://www.w3.org/2000/svg">
<path d="M43.4995 8.11103C43.0881 7.74072 42.4983 7.64471 42.0047 7.87783C39.4126 9.05723 37.9589 7.72699 35.6001 5.27216C33.8035 3.39331 31.6367 1.14415 28.5098 1.41845C28.4001 1.02068 28.0983 0.69155 27.6732 0.540713C26.9601 0.280139 26.1784 0.636723 25.9178 1.34981L25.3692 2.85843L22.0024 12.1082L18.6355 2.85843L18.0869 1.34981C17.8264 0.636723 17.0309 0.280138 16.3315 0.540713C15.9064 0.691551 15.6184 1.02068 15.4949 1.41845C12.3681 1.13042 10.2012 3.39331 8.39093 5.27216C6.04584 7.72699 4.59212 9.05723 2.0001 7.87783C1.49268 7.64471 0.902978 7.74072 0.491482 8.11103C0.0937982 8.49499 -0.0433113 9.07096 0.134981 9.59211L3.93378 20.0287C4.05725 20.3715 4.31782 20.6458 4.66068 20.7967C5.73035 21.2904 6.70409 21.4961 7.59556 21.4961C10.4343 21.4961 12.4641 19.3841 14.1784 17.6013C16.3726 15.3247 17.7715 14.0082 20.0618 14.8035L20.5438 16.1297L17.0584 25.7064C16.7978 26.4196 17.1544 27.2013 17.8675 27.4619C18.6644 27.7274 19.3989 27.2927 19.6229 26.6527L21.9993 20.1347L24.3681 26.6527C24.6358 27.3669 25.427 27.715 26.1235 27.4619C26.8367 27.2013 27.207 26.4196 26.9464 25.7064L23.4617 16.1236L23.943 14.8035C26.2332 14.0219 27.6458 15.3247 29.8264 17.6013C31.5269 19.3841 33.5567 21.4961 36.4092 21.4961C37.3007 21.4961 38.2744 21.2904 39.3441 20.7967C39.6732 20.6458 39.9338 20.3715 40.0573 20.0287L43.8561 9.59211C44.0481 9.07096 43.911 8.49499 43.4995 8.11103Z" fill="#FCFCFC"/>
</svg>
