<svg width="24" height="22" viewBox="0 0 24 22" fill="none" xmlns="http://www.w3.org/2000/svg">
<path d="M22.6655 15.6711C22.1992 15.2721 21.6412 15.0536 21.0626 14.9811C20.1566 14.6416 18.5096 14.9016 17.7686 14.3014L14.1085 11.1698C15.6527 9.82592 17.0587 8.63235 19.6013 6.4715C20.1359 6.3385 20.9175 6.443 21.3908 6.36182C22.8616 6.11222 24.0076 4.83834 23.9999 3.61713C22.4375 4.32446 22.7493 4.15951 21.915 4.5922C20.9166 4.3426 20.2136 3.59036 20.5366 2.18865C21.3813 1.67046 21.8338 1.44419 22.7096 0.960543C22.0299 0.490717 20.648 0.198803 19.6427 0.827541C17.7159 2.04529 18.4077 3.72768 17.7712 4.25969L11.9899 9.35696L6.28811 4.47128C5.63865 3.94705 6.31229 2.24652 4.35008 1.04691C3.33011 0.424216 1.9379 0.738585 1.2608 1.21964C2.15381 1.69637 2.60896 1.91747 3.47261 2.4322C3.8198 3.8365 3.12197 4.60256 2.11495 4.87115C1.27116 4.44797 1.58467 4.6112 0.000732422 3.91596C0.0110962 5.14752 1.18653 6.4145 2.67201 6.64855C3.14529 6.72109 3.9338 6.6045 4.48135 6.73146C6.95917 8.78263 8.37815 9.95288 9.88004 11.2164L6.52648 14.1744C5.75697 14.8161 3.9623 14.5095 3.11247 14.9621C2.10286 15.5036 0.866974 16.6375 1.01811 17.9166C1.88436 17.3466 2.19872 17.243 3.30938 16.6479C4.0668 17.0573 4.31726 17.3112 4.77413 17.6972C4.84668 18.6015 4.84668 18.6015 4.86741 19.5204C4.06594 19.9384 3.22992 20.3391 2.44746 20.7787C3.9243 21.5016 5.19473 21.1665 6.08775 20.5965C7.42036 19.7527 7.25886 17.8803 7.93855 16.5978C9.66153 15.0752 10.9389 13.9473 11.9994 13.0093C13.1308 13.974 14.4954 15.1443 16.3756 16.7688C17.0768 18.0367 16.9533 19.9039 18.2661 20.7468C18.2782 20.758 18.2851 20.7632 18.2946 20.7744C19.6324 21.9179 21.8857 21.7469 23.0317 20.4091C24.1752 19.0713 24.0033 16.8146 22.6655 15.6711ZM18.6133 2.38902C18.52 4.25192 19.5132 5.75726 21.0574 6.15627C19.0106 6.07077 18.1538 3.76568 18.6133 2.38902ZM17.0095 6.11654C17.3428 5.82635 17.7505 5.74258 17.9189 5.92913C18.0899 6.12345 17.956 6.51727 17.6235 6.81351L13.3847 10.5488L12.6705 9.94079L17.0095 6.11654ZM3.00365 6.43609C4.55736 6.01117 5.53155 4.47647 5.4141 2.5963C5.90033 3.979 5.06259 6.31777 3.00365 6.43609ZM7.02481 18.7967C7.03344 17.5314 5.79929 15.0994 3.87766 15.0657C5.9107 14.8316 7.27267 16.7705 7.02481 18.7967ZM8.71843 14.6632C8.3816 14.9595 7.97569 15.0424 7.80468 14.8498C7.63454 14.6563 7.77186 14.2616 8.10264 13.9706L10.571 11.7942C10.7972 11.9928 11.0365 12.1915 11.2826 12.4013L8.71843 14.6632ZM16.4904 15.0018C16.3211 15.1996 15.9092 15.1236 15.5698 14.8291L6.47725 7.0441C6.13525 6.75219 5.99533 6.36095 6.16461 6.16059C6.33216 5.96972 6.74412 6.04658 7.08353 6.33936L16.1735 14.1174C16.5163 14.411 16.6588 14.8075 16.4904 15.0018ZM20.6403 15.1926C18.5692 14.8835 16.9525 17.439 17.5035 19.0247C16.5371 16.8068 18.267 14.5173 20.6403 15.1926ZM22.2855 19.0877L22.1827 19.6508L21.6412 19.8417L21.2707 20.2796L20.7119 20.1759L20.1713 20.3702L19.7326 19.9997L19.1703 19.8961L18.9795 19.3554L18.5416 18.9841L18.6444 18.4175L18.45 17.8812L18.8214 17.4459L18.9251 16.8802L19.4657 16.6876L19.8371 16.2549L20.4028 16.3586L20.94 16.1643L21.3744 16.5348L21.9401 16.6393L22.1335 17.1799L22.5662 17.5513L22.4626 18.1101L22.6569 18.6507L22.2855 19.0877Z" fill="#EB3300"/>
</svg>
