<svg width="34" height="24" viewBox="0 0 34 24" fill="none" xmlns="http://www.w3.org/2000/svg">
<path d="M29.0195 13.9922C28.2035 13.9922 27.4439 14.2083 26.7635 14.5577L25.4173 12.9577C26.0141 12.6049 26.6598 12.3336 27.3423 12.1808C27.8987 12.0555 28.4501 12.0096 29.025 12.001C29.7674 12.0067 30.4978 11.7139 31.0444 11.1723C31.6146 10.6081 31.9414 9.82312 31.9414 8.89499C31.9414 3.79338 27.6437 0.046875 23.106 0.046875H21.9805C21.43 0.046875 20.9844 0.492523 20.9844 1.04297C20.9844 1.59341 21.43 2.03906 21.9805 2.03906H23.106C23.4028 2.03906 23.6858 2.09016 23.9727 2.127V4.05174C23.3942 4.10414 22.8495 4.28313 22.334 4.52307C22.3275 4.51555 22.3192 4.51062 22.313 4.5031C21.4954 4.88545 20.7906 5.48337 20.2801 6.24911L18.0127 9.64984C17.8571 9.88226 17.6119 10.0389 17.3346 10.0817C15.3181 10.3917 13.57 11.6773 12.6519 13.5546C13.5028 14.8262 14.0117 16.341 14.0117 17.9766H11.9531C11.9531 14.6809 9.27223 12 5.97656 12C2.68089 12 0 14.6809 0 17.9766C0 21.2722 2.68089 23.9531 5.97656 23.9531C8.5703 23.9531 10.7609 22.2826 11.5861 19.9688H20.9844C21.5348 19.9688 21.9805 19.5231 21.9805 18.9727C21.9805 18.4191 22.0466 17.8539 22.1761 17.2938C22.4474 16.1307 23.0523 15.0721 23.8642 14.2072L25.2087 15.8049C24.4894 16.6684 24.0391 17.7636 24.0391 18.9727C24.0391 21.7187 26.2735 23.9531 29.0195 23.9531C31.7655 23.9531 34 21.7187 34 18.9727C34 16.2267 31.7655 13.9922 29.0195 13.9922ZM5.97656 21.9609C3.77919 21.9609 1.99219 20.1739 1.99219 17.9766C1.99219 15.7792 3.77919 13.9922 5.97656 13.9922C8.17393 13.9922 9.96094 15.7792 9.96094 17.9766H6.97266C6.42299 17.9766 5.97656 17.5301 5.97656 16.9805C5.97656 16.43 5.53091 15.9844 4.98047 15.9844C4.43002 15.9844 3.98438 16.43 3.98438 16.9805C3.98438 18.6282 5.32495 19.9688 6.97266 19.9688H9.40686C8.71582 21.1539 7.44502 21.9609 5.97656 21.9609ZM29.0195 21.9609C27.3718 21.9609 26.0312 20.6204 26.0312 18.9727C26.0312 18.3955 26.2032 17.8609 26.4878 17.4033L28.2413 19.5952C28.5876 20.0271 29.2149 20.0922 29.6421 19.7509C30.0711 19.4064 30.1412 18.7802 29.7977 18.3501L28.0463 16.1608C28.3529 16.0542 28.6769 15.9844 29.0195 15.9844C30.6672 15.9844 32.0078 17.325 32.0078 18.9727C32.0078 20.6204 30.6672 21.9609 29.0195 21.9609Z" fill="#1D1D1D"/>
<path d="M16.916 7.70409L18.6226 5.14407C19.1681 4.32541 19.8835 3.66031 20.6962 3.14384C19.6031 2.45358 18.343 2.03906 17 2.03906C14.6465 2.03906 12.4725 3.23878 11.1929 5.16275L12.7861 6.1189C14.066 6.88672 15.4675 7.40085 16.916 7.70409Z" fill="#1D1D1D"/>
<path d="M11.7609 7.82678L5.36879 4.03125H0.996094C0.445648 4.03125 0 4.4769 0 5.02734C0 7.77335 2.23447 10.0078 4.98047 10.0078C6.97292 10.0078 9.03981 10.0511 11.2543 11.9761C11.2629 11.9603 11.2629 11.9424 11.2725 11.9271C12.0452 10.6846 13.1362 9.72118 14.3871 9.04414C13.4815 8.71289 12.5949 8.3269 11.7609 7.82678Z" fill="#1D1D1D"/>
</svg>
