<svg width="22" height="38" viewBox="0 0 22 38" fill="none" xmlns="http://www.w3.org/2000/svg">
<path fill-rule="evenodd" clip-rule="evenodd" d="M18.422 27.1351C18.422 22.7201 14.8351 19.1273 10.4166 19.1273C5.9982 19.1273 2.41124 22.7201 2.41124 27.1351C2.41124 31.5496 5.99812 35.1419 10.4166 35.1419C14.8351 35.142 18.422 31.5497 18.422 27.1351ZM17.433 13.5251H20.5574V37.6902H0.275879V13.5251H3.40028V16.4266C3.40028 16.7499 3.66108 17.0117 3.9858 17.0117H8.2714C8.59612 17.0117 8.85692 16.7499 8.85692 16.4266V13.5251H11.9764V16.4266C11.9764 16.7499 12.2372 17.0117 12.562 17.0117H16.8524C17.1723 17.0117 17.4331 16.7499 17.4331 16.4266V13.5251H17.433ZM15.1254 24.09C15.3419 24.3331 15.3173 24.7016 15.0762 24.9151L9.02916 30.232C8.78804 30.446 8.419 30.4219 8.20748 30.1813L5.70796 27.361C5.49644 27.1205 5.51604 26.7505 5.75716 26.5364C5.99828 26.3229 6.36724 26.3445 6.5838 26.5871L8.6946 28.9705L14.2988 24.0384C14.5399 23.8247 14.9138 23.8479 15.1254 24.09ZM17.2559 27.1351C17.2559 30.9055 14.1856 33.9743 10.4167 33.9743C6.64284 33.9743 3.57748 30.9055 3.57748 27.1351C3.57748 23.3637 6.64284 20.2959 10.4167 20.2959C14.1856 20.2959 17.2559 23.3637 17.2559 27.1351ZM21.138 7.0687H11.0021V12.358H9.83108V0.894138C9.83108 0.571898 10.0919 0.310059 10.4166 0.310059H21.138C21.6595 0.310059 21.9203 0.940379 21.5512 1.30742L19.1748 3.68934L21.5512 6.07174C21.9203 6.43838 21.6596 7.0687 21.138 7.0687Z" fill="#FCFCFC"/>
</svg>
