<svg width="48" height="48" viewBox="0 0 48 48" fill="none" xmlns="http://www.w3.org/2000/svg">
<g clip-path="url(#clip0_2121_1063)">
<path d="M30.3999 27.3321L37.5999 28.6415V27.0575C37.5999 26.5543 37.5343 26.0665 37.4104 25.6008H30.3999V27.3321Z" fill="#EB3300"/>
<path d="M42.7709 15.2969C43.0439 15.0239 43.1998 14.6481 43.1998 14.2625C43.1998 13.4559 42.5439 12.8 41.7365 12.8C41.3463 12.8 40.9783 12.952 40.7021 13.2282L33.835 20.0961C34.8639 20.3649 35.7936 20.8465 36.5783 21.4903L42.7709 15.2969Z" fill="#EB3300"/>
<path d="M39.8881 40.6374L39.5361 42.3999H43.2002V40.1761C43.2002 35.7405 42.7475 31.2983 41.8635 26.9487C40.9842 27.0753 40.0955 27.1511 39.2002 27.18V29.0151C40.0107 29.3999 40.5568 30.2288 40.5568 31.1815L40.8002 39.1761C40.8002 39.828 40.426 40.3776 39.8881 40.6374Z" fill="#EB3300"/>
<path d="M43.9025 16.4282L37.6904 22.6407C38.3514 23.4931 38.8209 24.4938 39.0451 25.5841C41.8947 25.504 44.6682 24.9009 47.2963 23.7743L47.8873 23.5208L46.4002 16.0802C46.1865 15.0114 45.5529 14.12 44.7025 13.5337C44.7611 13.7681 44.8002 14.0099 44.8002 14.2626C44.8002 15.0817 44.4818 15.8497 43.9025 16.4282Z" fill="#EB3300"/>
<path d="M40.8001 1.6001C39.0353 1.6001 37.6001 3.03525 37.6001 4.8001H44.0001C44.0001 3.03525 42.5649 1.6001 40.8001 1.6001Z" fill="#EB3300"/>
<path d="M40.8001 11.1999C42.5649 11.1999 44.0001 9.76475 44.0001 7.9999V6.3999H37.6001V7.9999C37.6001 9.76475 39.0353 11.1999 40.8001 11.1999Z" fill="#EB3300"/>
<path d="M20.7953 13.9586L22.716 18.2801L24.6008 18.5816L21.8145 12.3121L25.7328 5.98242C27.4312 3.23828 30.3727 1.6 33.6 1.6V0C29.8145 0 26.3648 1.92148 24.3719 5.14062L17.4199 16.3703L18.6055 17.4937L20.7953 13.9586Z" fill="#EB3300"/>
<path d="M10.9259 15.3937L13.8665 17.6H16.3923L4.50088 6.33433C3.63838 5.51675 2.66572 5.02222 1.6001 4.86011V6.63042C2.1626 6.82729 2.67432 7.14331 3.10322 7.57183L10.9259 15.3937Z" fill="#EB3300"/>
<path d="M38.9568 31.2054C38.9568 30.7839 38.6713 30.4519 38.2779 30.3902L28.8002 28.6679V24H36.701C35.865 22.7121 34.5072 21.7863 32.885 21.5273L18.3369 19.2H14.3811C14.2963 21.5585 13.8346 23.864 13.0049 26.0742C17.1268 27.2152 20.4178 30.3617 21.7514 34.4H39.0545L38.9568 31.2054Z" fill="#EB3300"/>
<path d="M8.46856 15.2H5.9998C5.33809 15.2 4.7998 15.7382 4.7998 16.4C4.7998 17.0617 5.33809 17.6 5.9998 17.6H11.2076L9.83418 16.5656L8.46856 15.2Z" fill="#EB3300"/>
<path d="M43.8122 44.9879L41.704 46.0414C41.6399 46.0734 41.6001 46.1383 41.6001 46.2105V46.4H48.0001V44H44.6802C44.5267 44.4207 44.2298 44.7793 43.8122 44.9879Z" fill="#EB3300"/>
<path d="M47.9272 25.2449C46.4694 25.8695 44.9694 26.3425 43.439 26.6687C44.3382 31.1097 44.7999 35.6464 44.7999 40.1761V42.4H47.9999V25.2136L47.9272 25.2449Z" fill="#EB3300"/>
<path d="M39.1779 44C39.017 44.4008 38.7217 44.7328 38.3268 44.9312L36.1049 46.0426C36.0408 46.0742 36.001 46.1391 36.001 46.2113C36.0002 46.3152 36.085 46.4 36.1889 46.4H40.0002V46.2113C40.0002 45.5297 40.3787 44.9176 40.9881 44.6121L42.2115 44H39.1779Z" fill="#EB3300"/>
<path d="M3.1998 16.4C3.1998 14.8559 4.45566 13.6 5.9998 13.6H6.86855L1.97168 8.70317C1.8584 8.5895 1.73184 8.4938 1.60059 8.40552V16.8H3.24121C3.22129 16.668 3.1998 16.5368 3.1998 16.4Z" fill="#EB3300"/>
<path d="M11.4177 25.744C12.2345 23.6433 12.6931 21.448 12.781 19.1999H6.0001C5.23994 19.1999 4.55205 18.8937 4.04658 18.3999H1.6001V28.4097C3.85596 26.6069 6.68408 25.5999 9.6001 25.5999C10.2185 25.5999 10.8224 25.6593 11.4177 25.744Z" fill="#EB3300"/>
<path d="M39.2001 39.2L39.1024 36H22.1665C22.3153 36.7785 22.4001 37.5793 22.4001 38.4V39.2H39.2001Z" fill="#EB3300"/>
<path d="M9.60019 36C8.27715 36 7.2002 37.077 7.2002 38.4C7.2002 39.723 8.27715 40.8 9.60019 40.8C10.9232 40.8 12.0002 39.723 12.0002 38.4C12.0002 37.077 10.9232 36 9.60019 36ZM10.4002 39.2H8.8002V37.6H10.4002V39.2Z" fill="#EB3300"/>
<path d="M9.6 28.8C4.30625 28.8 0 33.1063 0 38.4C0 43.6938 4.30625 48 9.6 48C14.8937 48 19.2 43.6938 19.2 38.4C19.2 33.1063 14.8937 28.8 9.6 28.8ZM9.6 42.4C7.39453 42.4 5.6 40.6055 5.6 38.4C5.6 36.1946 7.39453 34.4 9.6 34.4C11.8055 34.4 13.6 36.1946 13.6 38.4C13.6 40.6055 11.8055 42.4 9.6 42.4Z" fill="#EB3300"/>
</g>
<defs>
<clipPath id="clip0_2121_1063">
<rect width="48" height="48" fill="white"/>
</clipPath>
</defs>
</svg>
