<svg width="44" height="44" viewBox="0 0 44 44" fill="none" xmlns="http://www.w3.org/2000/svg">
<path d="M11.1353 43.9625L11.9453 43.7362C12.7245 43.5184 13.1796 42.7102 12.9619 41.931L3.70039 8.7878C3.5697 8.32007 3.25856 7.92341 2.8354 7.68509C2.41225 7.44678 1.91175 7.38632 1.44403 7.51704L1.33941 7.54624C0.365364 7.81839 -0.203643 8.82863 0.0684957 9.80268L9.33019 42.9459C9.54792 43.7251 10.3561 44.1803 11.1353 43.9625Z" fill="#E63946"/>
<path d="M43.7496 20.8013C40.8126 19.3369 38.0955 17.4676 35.6779 15.2482C35.4746 15.0622 35.3951 14.7767 35.473 14.5124C36.6709 9.98052 37.5606 5.37274 38.1358 0.720659C38.2268 -0.0531344 37.8096 -0.280721 37.3696 0.250314C28.7365 10.5751 13.7992 -1.63865 4.9082 7.74549C5.01495 7.94534 5.09892 8.15655 5.15855 8.37514L11.1668 29.8896C20.073 20.6193 34.9572 32.7572 43.5751 22.4551C44.0151 21.9241 44.0985 20.9531 43.7496 20.8013Z" fill="#E63946"/>
</svg>
