<svg width="40" height="34" viewBox="0 0 40 34" fill="none" xmlns="http://www.w3.org/2000/svg">
<path d="M39.9565 15.7731L39.5183 14.0521C39.3812 13.5134 38.8333 13.1879 38.2946 13.325L37.2539 13.5899L37.0477 12.7803L37.2616 12.7259C37.7328 12.6059 38.0177 12.1266 37.8977 11.6552L37.5623 10.3378C37.4423 9.86657 36.963 9.58173 36.4916 9.70173L36.2776 9.75618L36.216 9.51407C35.8964 8.2586 34.6194 7.49977 33.3639 7.81954L31.1855 8.37415L28.3899 3.57906C27.1038 1.37328 24.4661 0.191477 21.8784 0.850306L15.662 2.43289C14.0088 2.85375 13.0062 4.54117 13.4271 6.1943L15.0291 12.4873L11.5032 13.3849L9.47764 5.42852C9.2899 4.69141 8.54013 4.24594 7.8031 4.43352C7.06591 4.62125 6.62052 5.37086 6.8081 6.10805L7.39724 8.42227L4.12145 15.2641L1.07395 16.0399C0.710119 16.1325 0.490353 16.5026 0.582931 16.8664L2.03168 22.5568L1.61356 22.6633C1.07489 22.8004 0.749416 23.3484 0.886525 23.8871L1.32473 25.6082C1.46184 26.1468 2.00973 26.4723 2.54848 26.3352L5.18169 25.6648C4.42622 22.6971 6.21622 19.6839 9.18428 18.9282C12.1316 18.1779 15.1601 19.9425 15.9209 22.9308L24.9325 20.6366C24.5674 19.2023 24.7827 17.7117 25.5387 16.4394C26.2947 15.167 27.5009 14.2653 28.9352 13.9C31.8826 13.1497 34.911 14.9143 35.6718 17.9026L38.1886 17.2619L39.2293 16.997C39.7681 16.8598 40.0937 16.312 39.9565 15.7731ZM7.59982 14.3788L8.45787 12.5867L8.83404 14.0645L7.59982 14.3788ZM16.3417 5.10242L17.8173 4.7268L19.4339 11.0765L17.6296 11.5358L16.0967 5.51477C16.0506 5.33352 16.1605 5.14852 16.3417 5.10242ZM21.5879 14.3417L17.9785 15.2605C17.563 15.3665 17.1373 15.116 17.0308 14.6974C16.9251 14.2824 17.1749 13.8562 17.5939 13.7496L21.2033 12.8308C21.624 12.7233 22.0458 12.9806 22.151 13.3939C22.2573 13.8111 22.005 14.2355 21.5879 14.3417ZM22.1034 10.3969L20.4868 4.04711L22.5581 3.51976C23.934 3.1693 25.3304 3.80023 26.0103 4.96656L28.2621 8.82892L22.1034 10.3969Z" fill="#FCFCFC"/>
<path d="M39.505 21.9327C39.1912 21.6711 38.7775 21.5623 38.3755 21.6355L34.9667 22.2578L31.4442 22.9008L31.0182 22.8329C31.0785 22.8207 31.1388 22.8082 31.1991 22.7928C33.1447 22.2974 34.3204 20.3186 33.825 18.3731C33.3296 16.427 31.3508 15.2517 29.4053 15.7471C27.4596 16.2424 26.284 18.2212 26.7793 20.1668C27.0338 21.1662 27.6799 21.9618 28.5116 22.4328L26.7219 22.1471C26.1076 22.0492 25.5084 22.3784 25.2539 22.9307L23.9053 25.857L18.5789 24.5133C18.2148 24.4215 17.8291 24.4823 17.5109 24.6815L15.9154 25.6809L13.8055 27.0025L12.4858 27.3763C13.7865 26.5593 14.4736 24.9698 14.0743 23.4013C13.5788 21.4553 11.6002 20.28 9.65459 20.7753C7.70911 21.2708 6.53333 23.2496 7.02872 25.1952C7.44482 26.8297 8.90755 27.92 10.5183 27.9339L7.35896 28.8287L1.00223 30.6292C0.340818 30.8165 -0.0812143 31.4629 0.0133171 32.1439C0.107849 32.8249 0.690037 33.3318 1.37754 33.3318H38.6228C39.3835 33.3318 40 32.7151 40 31.9545V22.9904C40.0001 22.5818 39.8187 22.1944 39.505 21.9327ZM10.8328 25.4032C10.2223 25.5586 9.60162 25.1898 9.44623 24.5794C9.29083 23.969 9.65966 23.3482 10.2701 23.1929C10.8807 23.0375 11.5013 23.4064 11.6566 24.0167C11.812 24.6271 11.4432 25.2479 10.8328 25.4032ZM29.197 19.5513C29.0416 18.9409 29.4105 18.3201 30.0208 18.1647C30.6314 18.0093 31.252 18.3782 31.4074 18.9885C31.5628 19.5989 31.1939 20.2197 30.5835 20.3751C29.9731 20.5305 29.3524 20.1616 29.197 19.5513Z" fill="#FCFCFC"/>
</svg>
