<svg width="40" height="34" viewBox="0 0 40 34" fill="none" xmlns="http://www.w3.org/2000/svg">
<path fill-rule="evenodd" clip-rule="evenodd" d="M28.0478 29.4059V33.9537H14.9866V29.4059H28.0478ZM26.6053 16.9964C26.6411 17.7485 27.2739 18.3531 28.0272 18.3531C28.8059 18.3531 29.4477 17.7084 29.4477 16.93V13.6273C29.4477 12.8491 28.8062 12.2041 28.0272 12.2041C27.247 12.2041 26.6062 12.847 26.6062 13.6273L26.6053 16.9964ZM22.5145 12.4071V16.9298C22.5145 17.7083 23.1564 18.3531 23.9352 18.3532C24.7141 18.3531 25.3561 17.7083 25.3561 16.9298C25.3604 16.9298 25.3504 12.4071 25.3585 12.4071C25.3585 11.6282 24.7136 10.9863 23.9352 10.9863C23.1551 10.9863 22.5145 11.6269 22.5145 12.4071ZM18.4229 10.9714V12.5814H18.7491C19.7505 12.5814 20.6516 13.0264 21.2645 13.7286C21.2645 12.8095 21.2645 11.8905 21.2645 10.9714C21.2645 10.1929 20.6227 9.54816 19.8438 9.54816C19.0649 9.54824 18.4229 10.193 18.4229 10.9714ZM14.5482 12.5814H17.1729V11.8333C17.1729 11.0531 16.5323 10.4125 15.7521 10.4125C14.972 10.4125 14.3313 11.0531 14.3313 11.8332V12.5857C14.4036 12.5829 14.4759 12.5814 14.5482 12.5814ZM36.0256 9.6798C36.3236 9.50723 36.7051 9.60887 36.8777 9.90684C37.0502 10.2048 36.9486 10.5863 36.6506 10.7589L33.7398 12.4394C33.4419 12.612 33.0604 12.5104 32.8878 12.2124C32.7152 11.9144 32.8169 11.5329 33.1148 11.3604L36.0256 9.6798ZM3.97195 29.162C3.67398 29.3332 3.29359 29.2304 3.12234 28.9325C2.95109 28.6345 3.05391 28.2541 3.35187 28.0829L6.26266 26.4023C6.56063 26.2311 6.94102 26.3338 7.11227 26.6318C7.28352 26.9298 7.1807 27.3102 6.88273 27.4814L3.97195 29.162ZM1.25 19.8456C0.904844 19.8456 0.625 19.5657 0.625 19.2206C0.625 18.8754 0.904844 18.5956 1.25 18.5956H4.61109C4.95625 18.5956 5.23609 18.8754 5.23609 19.2206C5.23609 19.5657 4.95625 19.8456 4.61109 19.8456H1.25ZM3.54969 10.412C3.25172 10.2394 3.15008 9.85793 3.32266 9.55996C3.49523 9.26199 3.87672 9.16035 4.17469 9.33293L7.08547 11.0135C7.38344 11.1861 7.48508 11.5675 7.3125 11.8655C7.13992 12.1635 6.75844 12.2651 6.46047 12.0925L3.54969 10.412ZM29.0089 2.97301C29.1802 2.67504 29.5605 2.5723 29.8585 2.74348C30.1565 2.91473 30.2592 3.29512 30.088 3.59309L28.4075 6.50387C28.2362 6.80184 27.8559 6.90457 27.5579 6.7334C27.2599 6.56215 27.1572 6.18176 27.3284 5.88379L29.0089 2.97301ZM10.2589 3.39527C10.0863 3.0973 10.188 2.71582 10.4859 2.54324C10.7839 2.37066 11.1654 2.4723 11.338 2.77027L13.0185 5.68106C13.1911 5.97902 13.0895 6.36051 12.7915 6.53309C12.4935 6.70566 12.112 6.60402 11.9395 6.30606L10.2589 3.39527ZM19.5753 0.670898C19.5753 0.325742 19.8552 0.0458984 20.2003 0.0458984C20.5455 0.0458984 20.8253 0.325742 20.8253 0.670898V4.03199C20.8253 4.37715 20.5455 4.65699 20.2003 4.65699C19.8552 4.65699 19.5753 4.37715 19.5753 4.03199V0.670898ZM36.4479 28.4298C36.7459 28.6011 36.8486 28.9814 36.6774 29.2794C36.5062 29.5774 36.1258 29.6801 35.8278 29.5089L32.917 27.8284C32.6191 27.6571 32.5163 27.2768 32.6875 26.9788C32.8587 26.6808 33.2391 26.5781 33.5371 26.7493L36.4479 28.4298ZM38.75 18.9962C39.0952 18.9962 39.375 19.2761 39.375 19.6212C39.375 19.9664 39.0952 20.2462 38.75 20.2462H35.3889C35.0438 20.2462 34.7639 19.9664 34.7639 19.6212C34.7639 19.2761 35.0438 18.9962 35.3889 18.9962H38.75ZM14.9866 28.1559C14.9524 25.06 9.99906 24.8354 10.317 20.1124L10.519 17.113C10.6514 15.1454 12.5762 13.8314 14.5482 13.8314H18.7491C19.8982 13.8314 20.8384 14.7715 20.8384 15.9207C20.8384 17.0698 19.8982 18.01 18.7491 18.01C17.2401 18.01 15.731 18.01 14.222 18.01C13.8769 18.01 13.597 18.2898 13.597 18.635C13.597 18.9801 13.8769 19.26 14.222 19.26H15.4036C19.4525 19.26 19.4476 21.6261 19.4438 23.4438C19.4425 24.0847 19.4411 22.5262 19.4411 23.6311C19.4411 23.9763 19.7209 24.2561 20.0661 24.2561C20.4113 24.2561 20.6911 23.9763 20.6911 23.6311C20.6911 22.4026 20.6879 23.9586 20.6889 23.4438C20.6919 21.9994 20.6952 20.2887 19.4846 19.178C20.2831 18.9973 20.9747 18.529 21.444 17.8885C21.8316 18.8861 22.8037 19.5981 23.9341 19.5981C24.7159 19.5981 25.4781 19.24 25.9811 18.6427C26.9081 19.7486 28.5268 19.9144 29.6559 19.0431C30.3323 23.0569 30.5274 25.5668 28.0477 28.1557H14.9866V28.1559ZM17.3366 30.7794C16.8393 30.7794 16.4363 31.1825 16.4363 31.6797C16.4363 32.1769 16.8394 32.5801 17.3366 32.5801C17.8338 32.5801 18.237 32.177 18.237 31.6797C18.237 31.1825 17.8338 30.7794 17.3366 30.7794Z" fill="#FCFCFC"/>
</svg>
