<svg width="24" height="18" viewBox="0 0 24 18" fill="none" xmlns="http://www.w3.org/2000/svg">
<path d="M6.02856 15.5144V16.6001C6.02856 16.744 6.08558 16.8824 6.18762 16.9839C6.28916 17.0859 6.42756 17.1429 6.57144 17.1429H17.4286C17.5724 17.1429 17.7108 17.0859 17.8124 16.9839C17.9144 16.8824 17.9714 16.744 17.9714 16.6001V15.5144C17.9714 13.9309 17.3423 12.412 16.2224 11.2921C15.1024 10.1721 13.5835 9.54297 12 9.54297C10.4165 9.54297 8.89758 10.1721 7.77765 11.2921C6.65774 12.412 6.02856 13.9309 6.02856 15.5144Z" fill="#E63946"/>
<path d="M1.14285 17.1429H5.0362C4.97488 16.9703 4.94283 16.7868 4.94283 16.6V15.5143C4.94283 14.2745 5.26908 13.0682 5.87382 12.0107C5.42054 11.8196 4.92276 11.7144 4.39996 11.7144C2.3013 11.7144 0.599976 13.4157 0.599976 15.5143V16.6C0.599976 16.8997 0.843169 17.1429 1.14285 17.1429Z" fill="#E63946"/>
<path d="M19.6 11.7144C19.0772 11.7144 18.5794 11.8196 18.1262 12.0107C18.7309 13.0682 19.0572 14.2745 19.0572 15.5143V16.6C19.0572 16.7868 19.0251 16.9703 18.9638 17.1429H22.8571C23.1568 17.1429 23.4 16.8997 23.4 16.6V15.5143C23.4 13.4157 21.6987 11.7144 19.6 11.7144Z" fill="#E63946"/>
<path d="M6.29669 9.85628C7.36697 8.80699 7.38399 7.08874 6.33469 6.01846C5.2854 4.94818 3.56715 4.93117 2.49687 5.98046C1.42659 7.02975 1.40958 8.748 2.45887 9.81828C3.50816 10.8886 5.22642 10.9056 6.29669 9.85628Z" fill="#E63946"/>
<path d="M21.5003 9.86207C22.5706 8.81268 22.5877 7.09428 21.5383 6.02391C20.4889 4.95354 18.7705 4.93652 17.7001 5.98591C16.6297 7.03529 16.6127 8.7537 17.6621 9.82407C18.7115 10.8944 20.4299 10.9115 21.5003 9.86207Z" fill="#E63946"/>
<path d="M12.6015 8.40418C14.6729 8.0705 16.0816 6.12083 15.7479 4.04947C15.4142 1.97812 13.4645 0.569454 11.3932 0.903137C9.3218 1.23682 7.91314 3.18649 8.24683 5.25785C8.58051 7.3292 10.5302 8.73786 12.6015 8.40418Z" fill="#E63946"/>
</svg>
