<svg width="44" height="38" viewBox="0 0 44 38" fill="none" xmlns="http://www.w3.org/2000/svg">
<path d="M30.9998 16C36.2858 15.832 36.2848 8.167 30.9998 8C25.7138 8.168 25.7148 15.833 30.9998 16Z" fill="#FCFCFC"/>
<path d="M25.626 21.769C28.989 23.227 31.217 26.756 31 30.603L37.418 25.102V22.202C36.304 19.643 33.805 18 31 18C29.844 18 28.719 18.298 27.709 18.838C27.329 20.017 26.591 21.034 25.626 21.769Z" fill="#FCFCFC"/>
<path d="M32.3938 0C29.2938 0 26.3788 1.207 24.1868 3.399L21.9998 5.586L19.8128 3.399C12.6478 -3.89 -0.0692086 1.375 -0.00020865 11.607C-0.00020865 15.954 1.65179 20.099 4.58079 23.243C4.61679 22.918 4.50779 21.908 4.65379 21.625C5.55679 19.395 7.27279 17.695 9.37679 16.773C7.93579 15.675 6.99979 13.947 6.99979 12C7.23879 4.179 18.5248 4.021 18.9908 11.818C20.7348 10.741 23.2658 10.74 25.0088 11.818C25.4718 4.021 36.7658 4.182 36.9998 12C36.9998 13.947 36.0638 15.675 34.6218 16.772C36.7688 17.743 38.7638 19.59 39.4178 22V23.243C47.1458 15.148 45.1298 0.557 32.3938 0Z" fill="#FCFCFC"/>
<path d="M16.9995 12.0003C16.8315 6.71426 9.16651 6.71526 8.99951 12.0003C9.16751 17.2863 16.8325 17.2853 16.9995 12.0003Z" fill="#FCFCFC"/>
<path d="M21.9995 23C18.1395 23 14.9995 26.14 14.9995 30V32.317L21.3485 37.759C21.7235 38.08 22.2755 38.08 22.6505 37.759L28.9995 32.317V30C28.9995 26.14 25.8585 23 21.9995 23Z" fill="#FCFCFC"/>
<path d="M6.58154 22.2011V25.1011L12.9995 30.6031C12.7815 26.7561 15.0105 23.2281 18.3735 21.7691C17.4085 21.0331 16.6705 20.0171 16.2895 18.8371C12.8175 16.8791 8.09254 18.5161 6.58154 22.2011Z" fill="#FCFCFC"/>
<path d="M21.9998 13C16.7138 13.168 16.7148 20.833 21.9998 21C27.2858 20.832 27.2848 13.167 21.9998 13Z" fill="#FCFCFC"/>
</svg>
