<svg width="48" height="48" viewBox="0 0 48 48" fill="none" xmlns="http://www.w3.org/2000/svg">
<g clip-path="url(#clip0_40_291)">
<path d="M8.39191 9.9314C8.83175 10.0179 9.28789 9.92239 9.65602 9.66658C10.0241 9.41076 10.2728 9.01657 10.345 8.57416C10.4343 8.08636 10.3003 7.58422 9.97964 7.2059C9.65903 6.82758 9.18568 6.61294 8.68984 6.62105C7.77571 6.53878 6.96797 7.21313 6.8857 8.12726C6.80343 9.04139 7.47778 9.84913 8.39191 9.9314Z" fill="#FCFCFC"/>
<path d="M29.9085 41.3792C30.4998 41.4324 31.0747 41.1661 31.4164 40.6806C31.7582 40.1951 31.815 39.5641 31.5654 39.0254C31.3158 38.4867 30.7978 38.122 30.2064 38.0688C29.2923 37.9865 28.4846 38.6609 28.4023 39.575C28.32 40.4891 28.9944 41.2969 29.9085 41.3792Z" fill="#FCFCFC"/>
<path d="M31.7877 23.7933L30.6208 20.3257C21.3932 22.4526 21.807 22.2788 21.1946 22.7091L17.0566 25.5809L19.796 29.5533C20.1238 30.0293 20.7745 30.1513 21.2525 29.8264L21.9228 29.3547L20.2677 26.9546C20.0355 26.5805 20.1369 26.09 20.4985 25.8387C20.8601 25.5874 21.3551 25.6632 21.6249 26.0112L23.2801 28.4112L24.8608 27.3105L23.4787 25.2995C23.2913 25.0577 23.2525 24.7322 23.3779 24.4532C23.5034 24.1741 23.7725 23.987 24.0778 23.9667C24.383 23.9464 24.6746 24.0961 24.836 24.356L26.218 26.3671C26.5149 26.1443 26.8306 25.9477 27.1615 25.7795L28.0966 31.7298C23.8373 32.8633 21.2138 37.1362 22.1299 41.4475C23.046 45.7588 27.1803 48.5956 31.5325 47.8992C35.8847 47.2029 38.9275 43.2177 38.4527 38.8358C37.9779 34.4539 34.1521 31.213 29.7518 31.465L28.767 25.3243C28.9822 25.3243 30.7615 25.2002 30.8608 25.1919C31.1884 25.1684 31.4866 24.9943 31.6681 24.7205C31.8496 24.4467 31.8937 24.1042 31.7877 23.7933ZM30.5049 36.414C31.8653 36.5389 33.0092 37.4868 33.3848 38.8002C33.7605 40.1137 33.2906 41.523 32.202 42.3484C31.1134 43.1737 29.6295 43.2455 28.4663 42.5292C27.303 41.8128 26.6993 40.4555 26.9463 39.1119C27.256 37.4274 28.7994 36.2573 30.5049 36.414Z" fill="#FCFCFC"/>
<path d="M13.3989 15.0785C15.8598 13.392 17.2226 10.5115 16.9657 7.53917C21.8485 6.61227 21.2526 6.71158 21.3437 6.71158L22.0306 9.83158C22.3945 11.4532 22.0085 13.1526 20.9795 14.4578L15.3106 21.6826C15.0333 22.0591 15.0333 22.5723 15.3106 22.9488L16.1382 24.215C20.5409 21.153 20.7064 20.9047 21.8485 20.6481L30.952 18.5543L37.4071 16.6592C35.3713 11.8178 38.2844 16.2619 31.9037 6.96813C31.396 6.23154 30.7247 5.62253 29.9423 5.18882L23.6609 1.72123C23.212 1.48065 22.6888 1.41858 22.1961 1.54744L25.2416 5.96675C25.7713 6.59572 26.0692 7.58054 27.1947 7.77917C27.8069 7.85441 28.4238 7.68157 28.9078 7.29917C29.2828 7.03929 29.7973 7.13183 30.0582 7.50606C30.318 7.881 30.2255 8.39552 29.8513 8.65641C29.0153 9.30993 27.9436 9.5831 26.8968 9.40951C25.9422 9.23966 25.0973 8.69027 24.5547 7.88675L20.8885 2.56537C20.6436 3.01889 20.5815 3.54887 20.7147 4.04675L20.9464 5.09779L16.6182 5.92537C15.5957 2.48677 12.4742 0.0984814 8.88787 0.0107938C5.30153 -0.0768938 2.06707 2.15599 0.877749 5.54051C-0.311572 8.92503 0.815096 12.6904 3.66793 14.8655C6.52077 17.0405 10.4501 17.1299 13.3989 15.0868V15.0785ZM5.4292 7.67985C5.74423 5.95827 7.34492 4.77938 9.08246 4.98927C10.82 5.19915 12.0939 6.72529 11.99 8.47237C11.886 10.2195 10.4401 11.5837 8.68989 11.5861C7.70686 11.5874 6.7741 11.1517 6.14416 10.3971C5.51421 9.64241 5.25225 8.64682 5.4292 7.67985Z" fill="#FCFCFC"/>
<path d="M38.897 24.0001C46.9991 30.6208 46.4694 30.2319 46.5604 30.207C47.4956 29.9588 47.5535 29.9505 47.5784 29.8512C47.6018 29.8191 47.6018 29.7756 47.5784 29.7436C41.5618 23.4374 40.0225 21.8815 38.1439 18.207L35.1729 19.0346C36.0145 20.9549 37.2892 22.6544 38.897 24.0001Z" fill="#FCFCFC"/>
</g>
<defs>
<clipPath id="clip0_40_291">
<rect width="48" height="48" fill="white"/>
</clipPath>
</defs>
</svg>
