<svg width="24" height="22" viewBox="0 0 24 22" fill="none" xmlns="http://www.w3.org/2000/svg">
<g clip-path="url(#clip0_2069_781)">
<path d="M22.6648 15.6711C22.1984 15.2721 21.6405 15.0536 21.0619 14.9811C20.1559 14.6416 18.5089 14.9016 17.7679 14.3014L14.1077 11.1698C15.6519 9.82592 17.058 8.63235 19.6006 6.4715C20.1352 6.3385 20.9168 6.443 21.39 6.36182C22.8608 6.11222 24.0069 4.83834 23.9991 3.61713C22.4368 4.32446 22.7486 4.15951 21.9143 4.5922C20.9159 4.3426 20.2129 3.59036 20.5359 2.18865C21.3805 1.67046 21.8331 1.44419 22.7088 0.960543C22.0291 0.490717 20.6473 0.198803 19.642 0.827541C17.7152 2.04529 18.407 3.72768 17.7705 4.25969L11.9892 9.35696L6.28738 4.47128C5.63791 3.94705 6.31156 2.24652 4.34935 1.04691C3.32937 0.424216 1.93717 0.738585 1.26007 1.21964C2.15308 1.69637 2.60823 1.91747 3.47188 2.4322C3.81906 3.8365 3.12123 4.60256 2.11422 4.87115C1.27043 4.44797 1.58394 4.6112 0 3.91596C0.0103638 5.14752 1.18579 6.4145 2.67127 6.64855C3.14455 6.7211 3.93307 6.6045 4.48062 6.73146C6.95844 8.78263 8.37741 9.95288 9.8793 11.2164L6.52575 14.1744C5.75623 14.8161 3.96157 14.5095 3.11173 14.9621C2.10213 15.5036 0.866242 16.6375 1.01738 17.9166C1.88362 17.3466 2.19799 17.243 3.30865 16.6479C4.06607 17.0573 4.31653 17.3112 4.7734 17.6972C4.84595 18.6015 4.84595 18.6015 4.86667 19.5204C4.06521 19.9384 3.22919 20.3391 2.44672 20.7787C3.92357 21.5016 5.194 21.1665 6.08701 20.5965C7.41963 19.7527 7.25812 17.8803 7.93782 16.5978C9.6608 15.0752 10.9381 13.9473 11.9987 13.0093C13.1301 13.974 14.4947 15.1443 16.3748 16.7688C17.0761 18.0367 16.9526 19.9039 18.2654 20.7468C18.2774 20.758 18.2844 20.7632 18.2939 20.7744C19.6317 21.9179 21.8849 21.7469 23.031 20.4091C24.1745 19.0713 24.0026 16.8146 22.6648 15.6711ZM18.6125 2.38902C18.5193 4.25192 19.5125 5.75726 21.0567 6.15627C19.0098 6.07077 18.1531 3.76568 18.6125 2.38902ZM17.0087 6.11654C17.3421 5.82635 17.7498 5.74258 17.9182 5.92913C18.0892 6.12345 17.9553 6.51727 17.6228 6.81351L13.384 10.5488L12.6698 9.94079L17.0087 6.11654ZM3.00291 6.43609C4.55662 6.01117 5.53082 4.47647 5.41336 2.5963C5.8996 3.979 5.06186 6.31777 3.00291 6.43609ZM7.02407 18.7967C7.03271 17.5314 5.79855 15.0994 3.87693 15.0657C5.90996 14.8316 7.27194 16.7705 7.02407 18.7967ZM8.71769 14.6632C8.38087 14.9595 7.97495 15.0424 7.80395 14.8498C7.63381 14.6563 7.77113 14.2616 8.10191 13.9706L10.5702 11.7942C10.7965 11.9928 11.0357 12.1915 11.2819 12.4013L8.71769 14.6632ZM16.4897 15.0018C16.3204 15.1996 15.9085 15.1236 15.569 14.8291L6.47652 7.0441C6.13451 6.75219 5.9946 6.36095 6.16388 6.16059C6.33143 5.96972 6.74339 6.04658 7.0828 6.33936L16.1727 14.1174C16.5156 14.411 16.6581 14.8075 16.4897 15.0018ZM20.6395 15.1926C18.5685 14.8835 16.9517 17.439 17.5028 19.0247C16.5363 16.8068 18.2662 14.5173 20.6395 15.1926ZM22.2848 19.0877L22.182 19.6508L21.6405 19.8417L21.27 20.2796L20.7112 20.1759L20.1706 20.3702L19.7318 19.9997L19.1696 19.8961L18.9787 19.3554L18.5409 18.9841L18.6436 18.4175L18.4493 17.8812L18.8207 17.4459L18.9243 16.8802L19.465 16.6876L19.8363 16.2549L20.402 16.3586L20.9392 16.1643L21.3736 16.5348L21.9393 16.6393L22.1328 17.1799L22.5655 17.5513L22.4618 18.1101L22.6562 18.6507L22.2848 19.0877Z" fill="#EB3300"/>
</g>
<defs>
<clipPath id="clip0_2069_781">
<rect width="24" height="21.0653" fill="white" transform="translate(0 0.467285)"/>
</clipPath>
</defs>
</svg>
