<svg width="18" height="18" viewBox="0 0 18 18" fill="none" xmlns="http://www.w3.org/2000/svg">
<path d="M17.4545 4.0522C17.4545 3.46202 17.2233 3.38402 16.9413 3.38402C16.6576 3.38402 16.2987 3.38402 16.2987 3.38402C15.81 3.38402 15.468 3.56075 15.2313 3.7822C14.8522 2.81838 13.716 0.381836 11.922 0.381836H5.532C3.73855 0.381836 2.60291 2.81838 2.22327 3.7822C1.98709 3.56075 1.64509 3.38402 1.15636 3.38402C1.15636 3.38402 0.796909 3.38402 0.513818 3.38402C0.231273 3.38402 0 3.46202 0 4.0522C0 4.55075 0.186545 4.81093 1.07891 4.8802C0.724909 5.2522 0.442364 5.75293 0.442364 6.4102V9.2962C0.442364 9.87274 0.502364 10.7815 1.43455 11.1638V12.1811C1.43455 12.4898 1.68491 12.7402 1.99309 12.7402H4.27418C4.58236 12.7402 4.83218 12.4898 4.83218 12.1811V11.3438H8.72727C8.72727 11.3438 10.7302 11.3438 12.6224 11.3438V12.1811C12.6224 12.4898 12.8716 12.7402 13.1804 12.7402H15.4615C15.7691 12.7402 16.0195 12.4898 16.0195 12.1811V11.1638C16.9516 10.7815 17.0122 9.87274 17.0122 9.2962C17.0122 8.55165 17.0122 8.17856 17.0122 6.4102C17.0122 5.75293 16.7296 5.2522 16.3751 4.8802C17.268 4.81038 17.4545 4.55075 17.4545 4.0522ZM15.6115 6.57984C15.9949 7.06038 15.9545 7.66529 15.2536 7.66529C14.6465 7.66529 13.5256 7.66529 12.9644 7.66529C12.4042 7.66529 12.498 6.87493 13.758 6.38565C14.3504 6.15711 15.2727 6.15493 15.6115 6.57984ZM13.3522 10.0893C13.5065 9.87329 13.7836 9.58747 14.1693 9.58747H15.1996C15.6747 9.58747 15.03 10.332 14.6253 10.332C14.3427 10.332 13.7635 10.332 13.4395 10.332C13.2136 10.332 13.2562 10.2235 13.3522 10.0893ZM5.532 1.21911H11.9225C13.1209 1.21911 14.1256 3.2242 14.4987 4.21038C14.4851 4.22947 14.4709 4.24638 14.4573 4.26493C12.5225 5.18129 9.49364 5.10656 8.72782 5.10656C7.962 5.10656 4.93255 5.18129 2.99727 4.26493C2.98364 4.24693 2.96945 4.23002 2.95582 4.21093C3.32891 3.2242 4.33309 1.21911 5.532 1.21911ZM3.696 6.3862C4.95709 6.87493 5.05036 7.66584 4.48964 7.66584C3.92891 7.66584 2.808 7.66584 2.20036 7.66584C1.49945 7.66584 1.45964 7.06093 1.84255 6.58038C2.18182 6.15493 3.10418 6.15711 3.696 6.3862ZM2.25545 9.58747H3.28527C3.67145 9.58747 3.948 9.87275 4.10236 10.0893C4.19836 10.2235 4.24145 10.332 4.01509 10.332C3.69109 10.332 3.11236 10.332 2.82982 10.332C2.424 10.332 1.78036 9.58747 2.25545 9.58747ZM11.3585 10.332C10.6255 10.332 8.72727 10.332 8.72727 10.332C8.72727 10.332 6.82855 10.332 6.09545 10.332C5.36182 10.332 5.96673 9.49147 6.78655 9.49147H8.72782C8.72782 9.49147 9.84873 9.49147 10.6691 9.49147C11.4878 9.49147 12.0916 10.332 11.3585 10.332ZM6.01145 8.25165H11.4442C11.2664 8.42838 11.052 8.55002 10.8218 8.55002C9.93764 8.55002 8.72727 8.55002 8.72727 8.55002C8.72727 8.55002 7.51746 8.55002 6.63273 8.55002C6.40255 8.55002 6.18927 8.42838 6.01145 8.25165ZM11.7475 7.83275H5.70655C5.65091 7.72638 5.60727 7.61565 5.57782 7.50765H11.8778C11.8478 7.61565 11.8042 7.72638 11.7475 7.83275ZM5.544 7.0882C5.57564 6.91256 5.68145 6.79093 5.88818 6.79093H8.72727C8.72727 6.79093 10.7749 6.79093 11.5664 6.79093C11.7731 6.79093 11.8784 6.91256 11.9105 7.0882H5.544Z" fill="#EB3300"/>
<path d="M14.7473 15.5716L15.4684 14.6765L17.0388 14.9236C16.7775 14.071 15.985 13.4514 15.0468 13.4514C14.251 13.4514 13.5604 13.8976 13.2103 14.5532H4.24407C3.8928 13.8981 3.2028 13.4514 2.40698 13.4514C1.75735 13.4514 1.17644 13.7498 0.794073 14.2161C1.22389 14.2832 2.26516 14.4452 2.28098 14.4474L2.70698 15.4979L1.98535 16.3919L0.415527 16.1459C0.676255 16.9979 1.4688 17.6181 2.40698 17.6181C3.2028 17.6181 3.89389 17.1719 4.24407 16.5163H13.2103C13.561 17.1714 14.251 17.6181 15.0468 17.6181C15.6964 17.6181 16.2773 17.3198 16.6597 16.8534C16.2304 16.7863 15.1886 16.6243 15.1733 16.6221L14.7473 15.5716Z" fill="#EB3300"/>
</svg>
