<svg width="218" height="90" viewBox="0 0 218 90" fill="none" xmlns="http://www.w3.org/2000/svg">
<path fill-rule="evenodd" clip-rule="evenodd" d="M143.132 26.5921C144.128 26.0047 145.124 25.4173 146.12 24.83C147.218 24.4383 148.372 24.307 149.529 24.174C151.844 23.9076 154.149 23.6099 156.414 23.0448C159.023 22.394 160.634 20.8647 161.45 18.5344C161.495 18.4265 161.54 18.3183 161.585 18.2103C161.593 18.1958 161.599 18.1805 161.604 18.1647C161.718 17.8907 161.832 17.6172 161.945 17.3434C162.017 17.1643 162.103 16.9889 162.161 16.806C162.849 14.6402 163.11 12.4375 162.811 10.1884C162.783 8.88306 162.393 7.65125 161.967 6.29852C161.737 6.60766 161.579 6.80403 161.439 7.01067C159.722 9.5495 157.996 12.0831 156.305 14.6364C156.04 15.0357 155.75 15.2321 155.252 15.2747C153.267 15.4454 151.37 15.2893 149.643 14.2335C148.549 13.5648 147.817 12.6007 147.035 11.6701C146.872 11.3753 146.74 11.0596 146.538 10.7895C145.851 9.87269 145.767 8.98247 146.596 8.10104C148.026 6.06356 149.443 4.01779 150.745 1.90592C150.936 1.63515 151.127 1.36448 151.317 1.09361C151.584 0.764301 151.869 0.444896 151.989 0C151.451 0.0196904 150.969 0.144324 150.495 0.303283C148.976 0.655368 147.497 1.10957 146.116 1.80816C145.797 1.93849 145.484 2.08372 145.158 2.19585C144.402 2.45602 140.662 5.26334 139.681 6.46487C137.743 8.83831 137.138 11.3866 137.53 14.2768C137.826 16.4689 137.163 18.5035 135.967 20.4055C135.389 21.3264 134.558 22.0539 133.887 22.9018C133.475 23.266 133.061 23.6282 132.651 23.9942C132.056 24.5252 131.142 25.3399 129.983 26.373L116.092 26.1417L101.546 28.0302C100.224 27.1089 99.1837 26.3838 98.5106 25.9142C98.0559 25.5968 97.5973 25.2837 97.1409 24.9684C96.3647 24.2019 95.4449 23.5728 94.7503 22.7236C93.3151 20.9694 92.3915 19.0241 92.4 16.8149C92.4116 13.902 91.4792 11.4401 89.2461 9.30124C88.1155 8.21843 84.0369 5.85085 83.2518 5.67742C82.9135 5.6027 82.584 5.49361 82.2504 5.39995C80.7889 4.86117 79.2614 4.57604 77.7072 4.39685C77.216 4.29212 76.7219 4.22241 76.1847 4.26318C76.3618 4.69136 76.6869 4.97644 76.9944 5.27344C77.219 5.52096 77.4437 5.76826 77.6688 6.01561C79.2364 7.96613 80.9093 9.83815 82.5953 11.7003C83.5325 12.4825 83.5658 13.3755 83.0036 14.3625C82.838 14.6534 82.7483 14.9815 82.6241 15.2925C81.9696 16.3038 81.3691 17.3429 80.3705 18.1293C78.7938 19.3708 76.9307 19.7384 74.9375 19.7915C74.4378 19.805 74.1242 19.6426 73.8093 19.2758C71.7975 16.9308 69.754 14.6092 67.7186 12.2814C67.5529 12.0919 67.3705 11.9147 67.102 11.6336C66.8548 13.0242 66.6282 14.2907 66.7708 15.5896C66.7681 17.8557 67.3134 20.013 68.2798 22.0858C68.3613 22.2607 68.4685 22.4253 68.5638 22.595C68.7121 22.8541 68.8609 23.1128 69.0092 23.3721C69.0166 23.3872 69.025 23.4017 69.0342 23.4152C69.0927 23.5174 69.1514 23.6197 69.2102 23.7218C70.3248 25.9435 72.1233 27.281 74.7976 27.6347C77.1198 27.9418 79.4467 27.9791 81.78 27.984C82.9458 27.9864 84.1083 27.9875 85.2489 28.2532C86.3514 28.7409 87.4538 29.2287 88.5559 29.7166M95.3123 32.5861C93.545 31.3648 92.5021 30.6474 92.4939 30.6494C91.591 29.9242 90.519 29.4328 89.5445 28.8066C88.3525 28.2788 87.1603 27.7514 85.968 27.2239C84.8275 26.9581 83.665 26.9571 82.4991 26.9546C80.1659 26.9497 77.8391 26.9125 75.5167 26.6054C72.8424 26.2518 71.0439 24.9142 69.9292 22.6925C69.8706 22.5904 69.8117 22.488 69.7532 22.3859C69.744 22.3723 69.7357 22.3578 69.7283 22.3428C69.58 22.0835 69.4313 21.8246 69.2829 21.5656C69.1875 21.396 69.0805 21.2314 68.9988 21.0565C68.0325 18.9837 67.4872 16.8264 67.4899 14.5602C67.3471 13.2612 68.6465 18.085 69.6126 20.1577C69.6944 20.3326 69.8015 20.4972 69.8968 20.6669C70.0452 20.926 70.1938 21.1847 70.3422 21.444C70.3495 21.4591 70.3578 21.4736 70.3672 21.4871C70.4256 21.5894 70.4844 21.6917 70.543 21.7938C71.6577 24.0155 73.4563 25.353 76.1305 25.7068C78.4528 26.0138 80.7798 26.051 83.1129 26.056C84.2787 26.0584 85.4413 26.0594 86.582 26.3251C87.7742 26.8526 88.9663 27.3802 90.1582 27.9078C91.1328 28.5341 92.2049 29.0254 93.1076 29.7507C93.1178 29.7482 92.8514 30.8838 95.3123 32.5861L134.926 30.3582C137.147 28.3926 138.504 27.1957 138.514 27.197C139.316 26.3759 140.316 25.768 141.202 25.0371C142.316 24.3797 143.431 23.7225 144.546 23.0652C145.643 22.6737 146.797 22.5423 147.954 22.4093C150.269 22.1429 152.574 21.8451 154.84 21.2801C157.448 20.6293 159.059 19.1 159.876 16.7697C159.921 16.6618 159.966 16.5536 160.01 16.4455C160.018 16.4311 160.024 16.4157 160.029 16.3999C160.143 16.1259 160.257 15.8524 160.37 15.5786C160.443 15.3995 160.528 15.2241 160.586 15.0413C161.275 12.8755 161.935 7.94154 161.963 9.24691C162.261 11.4962 162.001 13.6988 161.312 15.8647C161.254 16.0475 161.169 16.2228 161.097 16.4019C160.983 16.6756 160.87 16.9492 160.756 17.2233C160.751 17.239 160.744 17.2543 160.737 17.2689C160.692 17.3768 160.647 17.4851 160.602 17.593C159.786 19.9234 158.175 21.4526 155.566 22.1034C153.301 22.6684 150.996 22.9662 148.681 23.2325C147.523 23.3657 146.37 23.497 145.272 23.8886C144.157 24.5458 143.043 25.203 141.928 25.8605C141.043 26.5913 140.043 27.1992 139.241 28.0203C139.232 28.0193 138.291 28.8482 136.696 30.2586M145.641 8.23472C145.652 8.2187 145.662 8.20273 145.672 8.18666C145.677 8.19172 145.683 8.19688 145.688 8.20172C145.673 8.2121 145.658 8.2221 145.641 8.23472ZM150.494 1.9966L150.499 1.99937C150.494 2.00527 150.489 2.01001 150.484 2.01634C150.487 2.00995 150.491 2.0032 150.494 1.9966ZM149.226 2.43256L149.231 2.43532C149.226 2.44128 149.221 2.44602 149.216 2.4523C149.219 2.44591 149.222 2.43905 149.226 2.43256ZM144.6 7.71361C147.037 5.05286 150.558 1.43633 150.292 1.76564C150.101 2.0363 146.758 6.49962 145.327 8.53699C144.659 9.24776 145.248 10.941 145.587 11.7246C145.724 11.9968 145.804 12.1499 145.767 12.1061C145.735 12.049 145.668 11.9128 145.587 11.7246C145.113 10.7816 143.958 8.39767 144.6 7.71361ZM144.373 8.67062C144.383 8.65455 144.393 8.63858 144.403 8.62251C144.409 8.62762 144.414 8.63278 144.42 8.63768C144.405 8.648 144.39 8.65801 144.373 8.67062ZM138.225 15.7164C138.255 15.7826 138.3 15.8797 138.357 16.0034C138.474 16.2489 138.645 16.596 138.868 17.0005C138.978 17.2032 139.107 17.4176 139.243 17.6433C139.383 17.8673 139.531 18.1015 139.697 18.3364C139.858 18.5735 140.04 18.808 140.225 19.0452C140.418 19.2765 140.613 19.512 140.829 19.7304L140.988 19.8965L141.153 20.0556C141.261 20.1636 141.378 20.262 141.49 20.3638C141.603 20.4645 141.724 20.5551 141.837 20.6518C141.957 20.7413 142.075 20.8298 142.191 20.9168C142.312 20.9983 142.431 21.0784 142.548 21.1567C142.668 21.2302 142.786 21.3019 142.901 21.3717C143.02 21.4365 143.136 21.4994 143.248 21.5602C143.36 21.6217 143.474 21.6712 143.581 21.7245C143.688 21.7796 143.795 21.8203 143.896 21.8632C143.997 21.9055 144.092 21.9505 144.184 21.9845C144.37 22.0478 144.53 22.1161 144.667 22.1594C144.94 22.2445 145.097 22.3004 145.097 22.3004C145.097 22.3004 144.932 22.2944 144.639 22.2711C144.492 22.2579 144.317 22.2285 144.114 22.1955C144.013 22.1781 143.908 22.1503 143.796 22.1259C143.683 22.1005 143.565 22.071 143.446 22.0309C143.326 21.9919 143.198 21.9567 143.07 21.9093C142.944 21.859 142.813 21.807 142.678 21.7535C142.547 21.6912 142.414 21.6271 142.277 21.5615C142.143 21.4902 142.01 21.4118 141.872 21.3347C141.741 21.2504 141.606 21.164 141.473 21.0729C141.345 20.977 141.21 20.8842 141.086 20.7792C140.962 20.6735 140.83 20.573 140.714 20.4575L140.535 20.2885L140.363 20.1125C140.135 19.8763 139.928 19.6246 139.735 19.3712C139.548 19.1142 139.372 18.8562 139.223 18.5963C139.069 18.339 138.94 18.081 138.825 17.8348C138.712 17.5873 138.616 17.3496 138.539 17.1271C138.458 16.9062 138.398 16.6993 138.349 16.5155C138.298 16.3323 138.265 16.1696 138.239 16.0362C138.188 15.7688 138.179 15.6136 138.179 15.6136C138.179 15.6136 138.195 15.6493 138.225 15.7164ZM83.5089 11.6986C83.5138 11.6932 83.5188 11.6874 83.5236 11.6818C83.5355 11.6967 83.5477 11.7114 83.5601 11.7261C83.5412 11.7155 83.5252 11.7073 83.5089 11.6986ZM86.3434 25.4394C86.4732 25.3811 86.6231 25.2954 86.7997 25.2117C86.8866 25.1677 86.9752 25.1123 87.07 25.059C87.1645 25.005 87.2658 24.9526 87.3642 24.8861C87.4635 24.8211 87.5704 24.7592 87.6736 24.6856C87.7769 24.6127 87.8834 24.5373 87.9932 24.4596C88.0981 24.3775 88.206 24.2931 88.3163 24.2066C88.4217 24.1159 88.5294 24.023 88.6391 23.9285C88.743 23.8292 88.8487 23.728 88.9556 23.6257C89.0556 23.517 89.1635 23.4136 89.2627 23.3009C89.3606 23.1873 89.4636 23.0765 89.557 22.9572L89.7005 22.7807L89.8366 22.598C90.0217 22.3571 90.1849 22.1015 90.3462 21.8502C90.4991 21.594 90.649 21.3408 90.7785 21.0874C90.9118 20.8357 91.0292 20.5865 91.1382 20.3485C91.2435 20.1092 91.3443 19.882 91.4272 19.6684C91.5957 19.2418 91.7199 18.8782 91.8042 18.6214C91.8447 18.4922 91.8764 18.3907 91.898 18.3216C91.9187 18.2517 91.9299 18.2145 91.9299 18.2145C91.9299 18.2145 91.9407 18.3697 91.9254 18.6409C91.9166 18.7761 91.906 18.9413 91.879 19.1288C91.8544 19.3168 91.8217 19.5289 91.7699 19.7573C91.722 19.9868 91.6582 20.2335 91.5786 20.4919C91.4959 20.7491 91.4018 21.0196 91.2823 21.2924C91.1684 21.5671 91.0275 21.8429 90.8751 22.1189C90.7164 22.3921 90.5441 22.6652 90.3488 22.9252L90.2013 23.1191L90.0452 23.3069C89.9448 23.4346 89.8273 23.5492 89.7185 23.668C89.6081 23.7861 89.4866 23.8934 89.3716 24.003C89.2519 24.1083 89.1296 24.2091 89.0097 24.3075C88.8833 24.3995 88.7615 24.4922 88.6381 24.578C88.5107 24.6584 88.3862 24.737 88.2647 24.8135C88.1382 24.8817 88.0149 24.948 87.8957 25.0121C87.775 25.0734 87.6523 25.1228 87.5385 25.1749C87.4254 25.2281 87.3124 25.2706 87.2038 25.3084C87.0952 25.3452 86.9944 25.3846 86.8965 25.4132C86.6994 25.4687 86.5293 25.5176 86.386 25.547C86.0979 25.603 85.9342 25.6276 85.9342 25.6276C85.9342 25.6276 86.0835 25.5545 86.3434 25.4394ZM84.8396 11.9724C84.8516 11.9872 84.8636 12.0019 84.8762 12.0167C84.8573 12.0061 84.8411 11.9979 84.8249 11.9893C84.8298 11.9838 84.8349 11.978 84.8396 11.9724ZM79.2452 6.36818C79.2493 6.37424 79.2534 6.38069 79.2577 6.38659C79.252 6.3809 79.2461 6.3768 79.2404 6.37143L79.2452 6.36818ZM77.9246 6.08097L77.9292 6.07761C77.9332 6.08379 77.9374 6.09012 77.9416 6.09608C77.9361 6.09038 77.9301 6.08629 77.9246 6.08097ZM78.0997 5.82568C77.7925 5.52862 81.7595 8.724 84.5253 11.0922C85.2523 11.6993 84.4162 14.1952 84.0691 15.1844C84.0129 15.3802 83.9641 15.523 83.9402 15.5832C83.9092 15.6307 83.9689 15.4699 84.0691 15.1844C84.3034 14.3684 84.667 12.6217 83.9113 11.9909C82.2251 10.1288 78.3244 6.07298 78.0997 5.82568Z" fill="#161921"/>
<path d="M212.705 49.4845C211.734 48.4561 210.578 47.5009 209.285 46.6082C209.842 44.5323 210.488 42.0277 211.042 39.8622C211.652 37.4607 209.651 35.1976 207.177 35.4961L186.744 37.96C179.558 36.3156 173.877 35.6535 173.877 35.6535C173.877 35.6535 146.925 25.1873 114.38 25.1846C86.2619 25.1819 62.6898 43.8647 55.367 50.3366C48.8433 50.5726 43.0996 50.8033 38.5804 51.034C8.41373 52.5753 0.125409 73.1984 0 73.5213C22.2194 54.1356 34.4295 56.206 53.7224 56.4638C73.0154 56.7216 159.711 52.5861 171.556 51.6798C183.4 50.7762 195.488 51.81 206.721 58.2737C216.529 63.9179 214.23 71.0166 214.173 71.1957C214.333 70.976 222.499 59.8504 212.705 49.4845ZM110.513 48.3801C96.3883 48.9499 81.4072 49.4384 68.1362 49.8888C66.2489 49.9539 65.4253 47.5498 66.9553 46.4507C76.779 39.3982 94.0674 29.5317 114.285 29.1572C115.436 29.1382 116.584 29.1328 117.724 29.1463C118.771 29.1572 119.467 30.2236 119.044 31.176L111.779 47.5198C111.555 48.0246 111.067 48.3557 110.513 48.3801ZM167.099 42.47C166.09 43.0506 164.936 43.6286 163.619 44.1849C159.708 45.8294 141.01 47.0505 118.684 48.0355C117.604 48.0816 116.854 46.9799 117.299 46.0003C119.461 41.2407 122.472 34.5247 124.111 30.8614C124.501 29.993 125.399 29.4558 126.353 29.5263C143.369 30.8207 158.257 35.1108 166.646 37.9818C168.667 38.6736 168.946 41.4036 167.099 42.47Z" fill="#EB3300"/>
<path d="M32.414 89.4689C29.9307 89.4689 27.7095 89.1148 25.7505 88.4067C23.7914 87.6985 22.1221 86.7044 20.7425 85.4242C19.3629 84.1441 18.3006 82.6324 17.5556 80.8892C16.8382 79.1461 16.4795 77.2395 16.4795 75.1695C16.4795 73.0994 16.8382 71.1928 17.5556 69.4497C18.3006 67.7065 19.3629 66.1948 20.7425 64.9147C22.1221 63.6346 23.7914 62.6404 25.7505 61.9322C27.7095 61.2241 29.9307 60.87 32.414 60.87H36.8426V67.2026H32.6623C31.3655 67.2026 30.2066 67.4069 29.1857 67.8154C28.1924 68.224 27.3508 68.796 26.661 69.5314C25.9712 70.2395 25.447 71.0839 25.0883 72.0644C24.7296 73.0177 24.5502 74.0527 24.5502 75.1695C24.5502 76.2862 24.7296 77.3348 25.0883 78.3153C25.447 79.2959 25.9712 80.1402 26.661 80.8484C27.3508 81.5565 28.1924 82.1149 29.1857 82.5235C30.2066 82.932 31.3655 83.1363 32.6623 83.1363H36.8426V89.4689H32.414Z" fill="#161921"/>
<path d="M37.9963 89.4689L47.3087 64.3427C47.8329 63.0081 48.6607 62.0139 49.792 61.3603C50.9232 60.6793 52.2063 60.3389 53.6411 60.3389C55.0759 60.3389 56.3589 60.6657 57.4902 61.3194C58.6491 61.9731 59.4768 62.9672 59.9735 64.3019L69.2859 89.4689H60.8013L59.1044 84.2394H48.0123L46.2326 89.4689H37.9963ZM49.8747 78.0293H57.2833L54.0964 67.6929C54.0688 67.5839 54.0136 67.5022 53.9308 67.4477C53.848 67.3933 53.7515 67.366 53.6411 67.366C53.5583 67.366 53.4755 67.3933 53.3928 67.4477C53.3376 67.5022 53.2824 67.5839 53.2272 67.6929L49.8747 78.0293Z" fill="#161921"/>
<path d="M70.8674 89.4689V60.87H84.3186C86.3604 60.87 88.2091 61.3058 89.8647 62.1774C91.5202 63.0217 92.8446 64.2065 93.8379 65.7318C94.8313 67.2298 95.3279 68.9866 95.3279 71.0022C95.3279 72.7454 94.9002 74.3523 94.0449 75.8231C93.2171 77.2667 92.0996 78.4379 90.6924 79.3367L92.6377 82.5235C92.8032 82.7686 92.9826 82.9593 93.1757 83.0954C93.3965 83.2044 93.6862 83.2589 94.0449 83.2589H96.3626V89.4689H92.0582C90.6786 89.4689 89.4508 89.1693 88.3747 88.5701C87.2986 87.9436 86.4708 87.1402 85.8914 86.1596L82.9528 81.1752C82.7872 81.1752 82.6217 81.1752 82.4561 81.1752C82.2906 81.1752 82.1388 81.1752 82.0009 81.1752H78.7726V89.4689H70.8674ZM78.7726 74.9652H83.4908C84.1806 74.9652 84.8153 74.8154 85.3947 74.5158C86.0017 74.1889 86.4708 73.7259 86.8019 73.1267C87.1606 72.5275 87.34 71.8329 87.34 71.043C87.34 70.2532 87.1606 69.5722 86.8019 69.0003C86.4432 68.4283 85.9741 67.9925 85.3947 67.6929C84.8153 67.366 84.1806 67.2026 83.4908 67.2026H78.7726V74.9652Z" fill="#161921"/>
<path d="M113.605 90C111.315 90 109.218 89.6323 107.314 88.8969C105.41 88.1343 103.768 87.0857 102.389 85.7511C101.036 84.3892 99.9742 82.8095 99.2016 81.0118C98.4566 79.2142 98.0841 77.2667 98.0841 75.1695C98.0841 73.0722 98.4566 71.1248 99.2016 69.3271C99.9742 67.5022 101.036 65.9225 102.389 64.5879C103.768 63.2532 105.41 62.2182 107.314 61.4828C109.218 60.7202 111.315 60.3389 113.605 60.3389C115.923 60.3389 118.02 60.7202 119.896 61.4828C121.8 62.2182 123.441 63.2532 124.821 64.5879C126.201 65.9225 127.263 67.5022 128.008 69.3271C128.753 71.1248 129.125 73.0722 129.125 75.1695C129.125 77.2667 128.753 79.2142 128.008 81.0118C127.263 82.8095 126.201 84.3892 124.821 85.7511C123.441 87.0857 121.8 88.1343 119.896 88.8969C118.02 89.6323 115.923 90 113.605 90ZM113.605 83.5449C114.736 83.5449 115.757 83.3406 116.668 82.932C117.606 82.4962 118.406 81.897 119.068 81.1344C119.758 80.3445 120.268 79.4457 120.599 78.4379C120.958 77.4301 121.137 76.3406 121.137 75.1695C121.137 73.9983 120.958 72.9088 120.599 71.901C120.268 70.866 119.758 69.9672 119.068 69.2045C118.406 68.4419 117.606 67.8563 116.668 67.4477C115.757 67.012 114.736 66.7941 113.605 66.7941C112.501 66.7941 111.48 67.012 110.542 67.4477C109.604 67.8563 108.804 68.4419 108.142 69.2045C107.479 69.9672 106.969 70.866 106.61 71.901C106.251 72.9088 106.072 73.9983 106.072 75.1695C106.072 76.3406 106.251 77.4301 106.61 78.4379C106.969 79.4457 107.479 80.3445 108.142 81.1344C108.804 81.897 109.604 82.4962 110.542 82.932C111.48 83.3406 112.501 83.5449 113.605 83.5449Z" fill="#161921"/>
<path d="M132.672 89.4689V69.2045C132.672 67.652 133.044 66.2493 133.789 64.9964C134.562 63.7435 135.583 62.7493 136.852 62.0139C138.149 61.2513 139.57 60.87 141.115 60.87H151.586V66.0178H141.777C140.894 66.0178 140.136 66.331 139.501 66.9575C138.894 67.5839 138.59 68.333 138.59 69.2045V73.8212H150.179V78.969H138.59V89.4689H132.672Z" fill="#161921"/>
<path d="M155.179 89.4689V84.3211H160.394V66.0178H155.179V60.87H171.527V66.0178H166.313V84.3211H171.527V89.4689H155.179Z" fill="#161921"/>
<path d="M176.081 89.4689L183.655 77.0897C182.303 76.5994 181.117 75.9049 180.096 75.006C179.103 74.08 178.33 72.9633 177.778 71.6559C177.226 70.3485 176.95 68.8641 176.95 67.2026V60.87H182.869V67.5703C182.869 68.4147 183.048 69.2045 183.407 69.9399C183.766 70.6481 184.276 71.2337 184.938 71.6967C185.6 72.1598 186.373 72.4457 187.256 72.5547L194.251 60.87H200.914L193.34 73.0041C194.885 73.3854 196.237 74.0391 197.396 74.9652C198.555 75.8912 199.452 77.0488 200.086 78.4379C200.721 79.7998 201.038 81.3659 201.038 83.1363V89.4689H195.12V82.7686C195.12 81.3523 194.651 80.1675 193.713 79.2142C192.802 78.2336 191.491 77.7434 189.781 77.7434L182.745 89.4689H176.081Z" fill="#161921"/>
</svg>
