<?xml version="1.0" encoding="UTF-8"?>
<svg id="Layer_1" xmlns="http://www.w3.org/2000/svg" version="1.1" xmlns:xlink="http://www.w3.org/1999/xlink" viewBox="0 0 600 368.84">
  <!-- Generator: Adobe Illustrator 29.8.4, SVG Export Plug-In . SVG Version: 2.1.1 Build 6)  -->
  <defs>
    <style>
      .st0 {
        fill: #2170b7;
      }

      .st1 {
        fill: #0a9ad7;
      }

      .st2 {
        fill: #0c99d5;
      }

      .st3 {
        fill: #1884c7;
      }

      .st4 {
        fill: #216fb6;
      }

      .st5 {
        fill: #0c9cd8;
      }

      .st6 {
        fill: #11ace3;
      }

      .st7 {
        fill: #1491d0;
      }

      .st8, .st9, .st10 {
        fill: #0c1221;
      }

      .st8, .st11 {
        clip-rule: evenodd;
      }

      .st12 {
        fill: #1e75bb;
      }

      .st13 {
        fill: #198ece;
      }

      .st14 {
        fill: #226eb5;
      }

      .st15 {
        fill: #1292d0;
      }

      .st16 {
        fill: #1198d5;
      }

      .st17 {
        fill: #0da3dd;
      }

      .st18 {
        fill: #14b1e6;
      }

      .st19 {
        fill: #1789ca;
      }

      .st20 {
        fill: #1d7ec1;
      }

      .st21 {
        fill: #1494d2;
      }

      .st9 {
        fill-rule: evenodd;
      }

      .st22 {
        fill: #15a0db;
      }

      .st23 {
        fill: #1981c5;
      }

      .st24 {
        fill: #1883c6;
      }

      .st25 {
        fill: #0eaee5;
      }

      .st26 {
        fill: #12aae2;
      }

      .st27 {
        fill: #1786c8;
      }

      .st28 {
        clip-path: url(#clippath-1);
      }

      .st29 {
        fill: #168ccc;
      }

      .st30 {
        fill: #10b0e6;
      }

      .st31 {
        fill: #0dabe3;
      }

      .st32 {
        fill: #16a1dc;
      }

      .st33 {
        fill: #1c7abf;
      }

      .st34 {
        fill: #10a6df;
      }

      .st35 {
        fill: #1f74ba;
      }

      .st36 {
        fill: #1a8bcb;
      }

      .st37 {
        fill: #1b80c3;
      }

      .st38 {
        fill: #119fda;
      }

      .st39 {
        fill: #1b77bc;
      }

      .st40 {
        fill: #10aee5;
      }

      .st41 {
        fill: #1887c9;
      }

      .st42 {
        fill: #1e73b9;
      }

      .st43 {
        fill: #1d7bbf;
      }

      .st44 {
        clip-path: url(#clippath-3);
      }

      .st45 {
        fill: #12a2dc;
      }

      .st46 {
        fill: #0d9ad6;
      }

      .st47 {
        fill: #11a4de;
      }

      .st11 {
        fill: none;
      }

      .st48 {
        fill: #1295d2;
      }

      .st49 {
        fill: #0fade4;
      }

      .st50 {
        fill: #188acb;
      }

      .st51 {
        fill: #2271b8;
      }

      .st52 {
        fill: #1688c9;
      }

      .st53 {
        fill: #15b4e9;
      }

      .st54 {
        fill: #1b79be;
      }

      .st55 {
        fill: #11b3e8;
      }

      .st56 {
        fill: #226db5;
      }

      .st57 {
        fill: #2072b8;
      }

      .st58 {
        fill: #1980c3;
      }

      .st59 {
        fill: #1b85c7;
      }

      .st60 {
        fill: #11a9e1;
      }

      .st61 {
        clip-path: url(#clippath-2);
      }

      .st62 {
        fill: #1d75ba;
      }

      .st63 {
        fill: #0aa7e0;
      }

      .st64 {
        fill: #1d78bd;
      }

      .st65 {
        fill: #1782c5;
      }

      .st66 {
        fill: #0e9dd8;
      }

      .st67 {
        fill: #1396d3;
      }

      .st68 {
        fill: #0ba5de;
      }

      .st69 {
        fill: #1b7cc0;
      }

      .st70 {
        fill: #1a7fc2;
      }

      .st71 {
        fill: #129ed9;
      }

      .st72 {
        fill: #1393d1;
      }

      .st73 {
        fill: #188dcd;
      }

      .st74 {
        fill: #1d77bc;
      }

      .st75 {
        fill: #1c7dc1;
      }

      .st76 {
        clip-path: url(#clippath);
      }

      .st77 {
        fill: #109ed9;
      }

      .st78 {
        fill: #0e97d4;
      }

      .st79 {
        fill: #17b1e7;
      }

      .st80 {
        fill: #0ca8e1;
      }

      .st81 {
        fill: #178fce;
      }
    </style>
    <clipPath id="clippath">
      <path class="st8" d="M81.44,50.94c-9.02,5.57-16.93,12.26-23.67,19.88l-22.71-12.1-8.38,13.89-8.38,13.89,19.25,17.94c-3.78,9.9-6.24,20.48-7.37,31.52l-23.35-.39.96,17.91.95,17.91,23.71,7.87c2.29,11.49,5.9,23.13,10.9,34.74l-17.67,11.45,10.03,17.12,10.02,17.13,21.86-4.28c7.91,10.45,16.72,20.03,26.23,28.65l-7.27,20.19,16.42,11.75,16.41,11.76,14.15-15.3c11.19,6.14,22.79,11.12,34.54,14.85l5.07,23.57,18.41,3.23,18.42,3.23,2.63-22.18c11.42.37,22.7-.57,33.6-2.92l16.05,20.59,15.46-6.16,15.46-6.16-9.57-23.17c9.01-5.57,16.92-12.27,23.66-19.87l22.72,12.1,8.38-13.89,8.38-13.89-2.13-1.97h-40.35c-10.22,10.21-22.84,18.58-37.68,24.48-11.08,4.41-22.71,7.16-34.59,8.38-57.41,9.51-125.11-24.83-160.07-84.52-34.96-59.69-25.48-124.75,19.25-155.89,8.54-6.91,18.37-12.7,29.46-17.11,34.14-13.59,73.43-11.47,109.11,2.92l1.72-2.23c-11.18-6.14-22.78-11.12-34.52-14.85l-5.08-23.58-18.42-3.23-18.41-3.23-2.63,22.19c-11.42-.37-22.69.56-33.59,2.92l-16.06-20.59-15.46,6.16-15.46,6.15,9.57,23.16Z"/>
    </clipPath>
    <clipPath id="clippath-1">
      <path class="st11" d="M123.72,60.23c-10.2,4.06-19.46,9.46-27.56,16.01-46.99,38.01-45.07,101.85-17.67,148.63,27.4,46.77,86.86,87.72,152.18,81.03,11.27-1.15,22.15-3.77,32.36-7.83,10.2-4.06,19.46-9.46,27.56-16.01.91-.74,1.81-1.49,2.68-2.24h-16.01c-5.86,3.93-12.24,7.28-19.05,10-9.56,3.81-19.77,6.27-30.32,7.35-60.85,6.23-116.22-31.72-141.77-75.32-25.54-43.61-27.15-102.95,16.61-138.36,7.59-6.14,16.27-11.2,25.83-15,9.57-3.81,19.77-6.27,30.32-7.35,30.16-3.08,58.96,4.68,83.47,18.6,4.16-.62,8.33-1.18,12.47-1.7-28.14-18.43-62.53-29.36-98.74-25.65-11.26,1.16-22.14,3.78-32.35,7.84Z"/>
    </clipPath>
    <clipPath id="clippath-2">
      <path class="st8" d="M466.02,176.33c20.88-23.12,68.15-24.66,89.37.09-14.57-25.22-40.71-25.92-66.26-26.54-64.6-1.56-239.21,13.24-296.38-30,0,0,31.84-16.31,86.54-24.65,47.15-7.19,88.96,2.41,126.15,35.68l-42.81.56-112.84-.32h0l-25.04.21c104.08,24.89,194.39,3.09,291.27,14.2h-.03c26.89,2.76,54.23,11.33,66.87,17.85,0,0-19.1-36.62-165.61-35.05-36.71-30.41-72.83-48.17-141.29-41.67-22.57,2.14-71.63,9.27-109.79,22.77-45.13,3.81-75.34,13.97-69.71,62.29l8.72.19c20.89-23.12,68.16-24.67,89.37.09-6.74-24.6-27.26-34.89-45.18-39.25,51.3,2.89,55.01,43.83,82.77,43.42,73.91-1.24,162.55-2.49,236.52-3.74-.91,1.23-1.79,2.52-2.63,3.86Z"/>
    </clipPath>
    <clipPath id="clippath-3">
      <path class="st11" d="M360.24,106.19c-43.15-21.17-114.42-5.11-157.74,13.78l18.02,7.68h74.53l-72.52-3.44c-1.81-.9-8.74-3.58-9.87-4.38,13-4.96,88.36-33.91,147.57-13.64Z"/>
    </clipPath>
  </defs>
  <g>
    <g>
      <path class="st9" d="M81.44,50.94c-9.02,5.57-16.93,12.26-23.67,19.88l-22.71-12.1-8.38,13.89-8.38,13.89,19.25,17.94c-3.78,9.9-6.24,20.48-7.37,31.52l-23.35-.39.96,17.91.95,17.91,23.71,7.87c2.29,11.49,5.9,23.13,10.9,34.74l-17.67,11.45,10.03,17.12,10.02,17.13,21.86-4.28c7.91,10.45,16.72,20.03,26.23,28.65l-7.27,20.19,16.42,11.75,16.41,11.76,14.15-15.3c11.19,6.14,22.79,11.12,34.54,14.85l5.07,23.57,18.41,3.23,18.42,3.23,2.63-22.18c11.42.37,22.7-.57,33.6-2.92l16.05,20.59,15.46-6.16,15.46-6.16-9.57-23.17c9.01-5.57,16.92-12.27,23.66-19.87l22.72,12.1,8.38-13.89,8.38-13.89-2.13-1.97h-40.35c-10.22,10.21-22.84,18.58-37.68,24.48-11.08,4.41-22.71,7.16-34.59,8.38-57.41,9.51-125.11-24.83-160.07-84.52-34.96-59.69-25.48-124.75,19.25-155.89,8.54-6.91,18.37-12.7,29.46-17.11,34.14-13.59,73.43-11.47,109.11,2.92l1.72-2.23c-11.18-6.14-22.78-11.12-34.52-14.85l-5.08-23.58-18.42-3.23-18.41-3.23-2.63,22.19c-11.42-.37-22.69.56-33.59,2.92l-16.06-20.59-15.46,6.16-15.46,6.15,9.57,23.16Z"/>
      <g class="st76">
        <polygon class="st10" points="54.86 357.35 48.01 333.14 344.11 249.22 346.77 258.58 346.77 357.35 54.86 357.35"/>
        <rect class="st10" x="41.7" y="287.74" width="307.77" height="3.51" transform="translate(-71.51 64.29) rotate(-15.82)"/>
        <rect class="st10" x="40.74" y="284.36" width="307.77" height="3.51" transform="translate(-70.65 63.92) rotate(-15.83)"/>
        <rect class="st10" x="39.78" y="280.98" width="307.77" height="3.51" transform="translate(-69.77 63.54) rotate(-15.83)"/>
        <rect class="st10" x="38.82" y="277.61" width="307.77" height="3.51" transform="translate(-68.86 63.12) rotate(-15.82)"/>
        <rect class="st10" x="37.87" y="274.23" width="307.77" height="3.51" transform="translate(-68 62.76) rotate(-15.83)"/>
        <rect class="st10" x="36.91" y="270.85" width="307.77" height="3.51" transform="translate(-67.11 62.36) rotate(-15.83)"/>
        <rect class="st10" x="35.95" y="267.48" width="307.77" height="3.51" transform="translate(-66.21 61.95) rotate(-15.82)"/>
        <rect class="st10" x="35" y="264.1" width="307.77" height="3.51" transform="translate(-65.35 61.59) rotate(-15.83)"/>
        <rect class="st10" x="34.04" y="260.72" width="307.77" height="3.51" transform="translate(-64.46 61.2) rotate(-15.83)"/>
        <rect class="st10" x="33.08" y="257.35" width="307.77" height="3.51" transform="translate(-63.56 60.79) rotate(-15.82)"/>
        <rect class="st10" x="32.12" y="253.97" width="307.77" height="3.51" transform="translate(-62.69 60.42) rotate(-15.83)"/>
        <rect class="st10" x="31.17" y="250.59" width="307.77" height="3.51" transform="translate(-61.8 60.03) rotate(-15.83)"/>
        <rect class="st10" x="30.21" y="247.21" width="307.77" height="3.51" transform="translate(-60.91 59.63) rotate(-15.82)"/>
        <rect class="st10" x="29.25" y="243.84" width="307.77" height="3.51" transform="translate(-60.03 59.25) rotate(-15.83)"/>
        <rect class="st10" x="28.3" y="240.46" width="307.77" height="3.51" transform="translate(-59.15 58.87) rotate(-15.83)"/>
        <rect class="st10" x="27.34" y="237.08" width="307.77" height="3.51" transform="translate(-58.25 58.45) rotate(-15.82)"/>
        <rect class="st10" x="26.38" y="233.71" width="307.77" height="3.51" transform="translate(-57.38 58.09) rotate(-15.83)"/>
        <rect class="st10" x="25.42" y="230.33" width="307.77" height="3.51" transform="translate(-56.5 57.7) rotate(-15.83)"/>
        <rect class="st10" x="24.47" y="226.95" width="307.77" height="3.51" transform="translate(-55.6 57.29) rotate(-15.82)"/>
        <rect class="st10" x="23.51" y="223.58" width="307.77" height="3.51" transform="translate(-54.73 56.92) rotate(-15.83)"/>
        <rect class="st10" x="22.55" y="220.2" width="307.77" height="3.51" transform="translate(-53.84 56.53) rotate(-15.83)"/>
        <rect class="st10" x="21.6" y="216.82" width="307.77" height="3.51" transform="translate(-52.94 56.12) rotate(-15.82)"/>
        <rect class="st10" x="20.64" y="213.44" width="307.77" height="3.51" transform="translate(-52.08 55.76) rotate(-15.83)"/>
        <rect class="st10" x="19.68" y="210.07" width="307.77" height="3.51" transform="translate(-51.19 55.36) rotate(-15.83)"/>
        <rect class="st10" x="18.72" y="206.69" width="307.77" height="3.51" transform="translate(-50.29 54.96) rotate(-15.82)"/>
        <rect class="st10" x="17.77" y="203.31" width="307.77" height="3.51" transform="translate(-49.42 54.58) rotate(-15.83)"/>
        <rect class="st10" x="16.81" y="199.94" width="307.77" height="3.51" transform="translate(-48.53 54.19) rotate(-15.83)"/>
        <rect class="st10" x="15.85" y="196.56" width="307.77" height="3.51" transform="translate(-47.64 53.79) rotate(-15.82)"/>
        <rect class="st10" x="14.9" y="193.18" width="307.77" height="3.51" transform="translate(-46.76 53.42) rotate(-15.83)"/>
        <rect class="st10" x="13.94" y="189.81" width="307.77" height="3.51" transform="translate(-45.88 53.03) rotate(-15.83)"/>
        <rect class="st10" x="12.98" y="186.43" width="307.77" height="3.51" transform="translate(-44.98 52.62) rotate(-15.82)"/>
        <rect class="st10" x="12.02" y="183.05" width="307.77" height="3.51" transform="translate(-44.11 52.25) rotate(-15.83)"/>
        <rect class="st10" x="11.07" y="179.68" width="307.77" height="3.51" transform="translate(-43.23 51.87) rotate(-15.83)"/>
        <rect class="st10" x="10.11" y="176.3" width="307.77" height="3.51" transform="translate(-42.33 51.45) rotate(-15.82)"/>
        <rect class="st10" x="9.15" y="172.92" width="307.77" height="3.51" transform="translate(-41.46 51.08) rotate(-15.83)"/>
        <rect class="st10" x="8.2" y="169.54" width="307.77" height="3.51" transform="translate(-40.57 50.7) rotate(-15.83)"/>
        <rect class="st10" x="7.24" y="166.17" width="307.77" height="3.51" transform="translate(-39.68 50.29) rotate(-15.82)"/>
        <rect class="st10" x="6.28" y="162.79" width="307.77" height="3.51" transform="translate(-38.8 49.92) rotate(-15.83)"/>
        <rect class="st10" x="5.32" y="159.41" width="307.77" height="3.51" transform="translate(-37.92 49.53) rotate(-15.83)"/>
        <rect class="st10" x="4.37" y="156.04" width="307.77" height="3.51" transform="translate(-37.02 49.12) rotate(-15.82)"/>
        <rect class="st10" x="3.41" y="152.66" width="307.77" height="3.51" transform="translate(-36.15 48.75) rotate(-15.83)"/>
        <rect class="st10" x="2.45" y="149.28" width="307.77" height="3.51" transform="translate(-35.26 48.36) rotate(-15.83)"/>
        <rect class="st10" x="1.5" y="145.91" width="307.77" height="3.51" transform="translate(-34.37 47.96) rotate(-15.82)"/>
        <polygon class="st10" points="6.85 187.94 6.83 187.88 6.83 184.29 302 100.63 302.96 104.01 6.85 187.94"/>
        <polygon class="st10" points="6.83 180.64 301.04 97.25 302 100.63 6.83 184.29 6.83 180.64"/>
        <polygon class="st10" points="6.83 176.99 300.09 93.88 301.04 97.25 6.83 180.64 6.83 176.99"/>
        <polygon class="st10" points="6.83 173.35 299.13 90.5 300.09 93.88 6.83 176.99 6.83 173.35"/>
        <polygon class="st10" points="6.83 169.7 298.17 87.12 299.13 90.5 6.83 173.35 6.83 169.7"/>
        <polygon class="st10" points="6.83 166.05 297.22 83.75 298.17 87.12 6.83 169.7 6.83 166.05"/>
        <polygon class="st10" points="6.83 162.4 296.26 80.37 297.22 83.75 6.83 166.05 6.83 162.4"/>
        <polygon class="st10" points="6.83 158.75 295.3 76.99 296.26 80.37 6.83 162.4 6.83 158.75"/>
        <polygon class="st10" points="6.83 155.11 294.34 73.62 295.3 76.99 6.83 158.75 6.83 155.11"/>
        <polygon class="st10" points="6.83 151.46 293.39 70.24 294.34 73.62 6.83 155.11 6.83 151.46"/>
        <polygon class="st10" points="6.83 147.81 292.43 66.86 293.39 70.24 6.83 151.46 6.83 147.81"/>
        <polygon class="st10" points="6.83 144.16 291.47 63.49 292.43 66.86 6.83 147.81 6.83 144.16"/>
        <polygon class="st10" points="6.83 140.51 290.52 60.11 291.47 63.49 6.83 144.16 6.83 140.51"/>
        <polygon class="st10" points="6.83 136.86 289.56 56.73 290.52 60.11 6.83 140.51 6.83 136.86"/>
        <polygon class="st10" points="6.83 133.22 288.6 53.35 289.56 56.73 6.83 136.86 6.83 133.22"/>
        <polygon class="st10" points="6.83 129.57 287.64 49.98 288.6 53.35 6.83 133.22 6.83 129.57"/>
        <polygon class="st10" points="6.83 125.92 286.69 46.6 287.64 49.98 6.83 129.57 6.83 125.92"/>
        <polygon class="st10" points="6.83 122.27 285.73 43.22 286.69 46.6 6.83 125.92 6.83 122.27"/>
        <polygon class="st10" points="6.83 118.62 284.77 39.85 285.73 43.22 6.83 122.27 6.83 118.62"/>
        <polygon class="st10" points="6.83 114.97 283.82 36.47 284.77 39.85 6.83 118.62 6.83 114.97"/>
        <polygon class="st10" points="6.83 111.33 282.86 33.09 283.82 36.47 6.83 114.97 6.83 111.33"/>
        <polygon class="st10" points="6.83 107.68 281.9 29.72 282.86 33.09 6.83 111.33 6.83 107.68"/>
        <polygon class="st10" points="6.83 104.03 280.94 26.34 281.9 29.72 6.83 107.68 6.83 104.03"/>
        <polygon class="st10" points="6.83 100.38 279.99 22.96 280.94 26.34 6.83 104.03 6.83 100.38"/>
        <polygon class="st10" points="6.83 96.73 279.03 19.58 279.99 22.96 6.83 100.38 6.83 96.73"/>
        <polygon class="st10" points="6.83 93.08 278.07 16.21 279.03 19.58 6.83 96.73 6.83 93.08"/>
        <polygon class="st10" points="6.83 89.44 277.12 12.83 278.07 16.21 6.83 93.08 6.83 89.44"/>
        <polygon class="st10" points="6.83 85.79 270.85 10.96 276.58 10.96 277.12 12.83 6.83 89.44 6.83 85.79"/>
        <polygon class="st10" points="6.83 82.14 257.98 10.96 270.85 10.96 6.83 85.79 6.83 82.14"/>
        <polygon class="st10" points="6.83 78.49 245.11 10.96 257.98 10.96 6.83 82.14 6.83 78.49"/>
        <polygon class="st10" points="6.83 74.84 232.24 10.96 245.11 10.96 6.83 78.49 6.83 74.84"/>
        <polygon class="st10" points="6.83 71.2 219.37 10.96 232.24 10.96 6.83 74.84 6.83 71.2"/>
        <polygon class="st10" points="6.83 67.55 206.49 10.96 219.37 10.96 6.83 71.2 6.83 67.55"/>
        <polygon class="st10" points="6.83 63.9 193.62 10.96 206.49 10.96 6.83 67.55 6.83 63.9"/>
        <polygon class="st10" points="6.83 60.25 180.75 10.96 193.62 10.96 6.83 63.9 6.83 60.25"/>
        <polygon class="st10" points="6.83 56.6 167.88 10.96 180.75 10.96 6.83 60.25 6.83 56.6"/>
        <polygon class="st10" points="6.83 52.95 155.01 10.96 167.88 10.96 6.83 56.6 6.83 52.95"/>
        <polygon class="st10" points="6.83 49.31 142.14 10.96 155.01 10.96 6.83 52.95 6.83 49.31"/>
        <polygon class="st10" points="6.83 45.66 129.26 10.96 142.14 10.96 6.83 49.31 6.83 45.66"/>
        <polygon class="st10" points="6.83 42.01 116.39 10.96 129.26 10.96 6.83 45.66 6.83 42.01"/>
        <polygon class="st10" points="6.83 38.36 103.52 10.96 116.39 10.96 6.83 42.01 6.83 38.36"/>
        <polygon class="st10" points="6.83 34.71 90.65 10.96 103.52 10.96 6.83 38.36 6.83 34.71"/>
        <polygon class="st10" points="6.83 31.06 77.78 10.96 90.65 10.96 6.83 34.71 6.83 31.06"/>
        <polygon class="st10" points="6.83 27.42 64.9 10.96 77.78 10.96 6.83 31.06 6.83 27.42"/>
        <polygon class="st10" points="6.83 23.77 52.03 10.96 64.9 10.96 6.83 27.42 6.83 23.77"/>
        <polygon class="st10" points="6.83 20.12 39.16 10.96 52.03 10.96 6.83 23.77 6.83 20.12"/>
        <polygon class="st10" points="6.83 16.47 26.29 10.96 39.16 10.96 6.83 20.12 6.83 16.47"/>
        <polygon class="st10" points="6.83 12.82 13.42 10.96 26.29 10.96 6.83 16.47 6.83 12.82"/>
        <polygon class="st10" points="13.42 10.96 6.83 12.82 6.83 10.96 13.42 10.96"/>
      </g>
    </g>
    <g class="st28">
      <polygon class="st56" points="49.17 114.1 203.4 312.59 49.17 312.59 49.17 114.1"/>
      <polygon class="st56" points="49.17 112.3 204.8 312.59 203.4 312.59 49.17 114.1 49.17 112.3"/>
      <polygon class="st14" points="49.17 110.49 206.21 312.59 204.8 312.59 49.17 112.3 49.17 110.49"/>
      <polygon class="st4" points="49.17 108.69 207.61 312.59 206.21 312.59 49.17 110.49 49.17 108.69"/>
      <polygon class="st0" points="49.17 106.88 209.01 312.59 207.61 312.59 49.17 108.69 49.17 106.88"/>
      <polygon class="st51" points="49.17 105.08 210.41 312.59 209.01 312.59 49.17 106.88 49.17 105.08"/>
      <polygon class="st57" points="49.17 104.47 49.75 104.02 211.82 312.59 210.41 312.59 49.17 105.08 49.17 104.47"/>
      <polygon class="st42" points="49.75 104.02 50.63 103.34 213.22 312.59 211.82 312.59 49.75 104.02"/>
      <polygon class="st35" points="50.63 103.34 51.5 102.66 214.62 312.59 213.22 312.59 50.63 103.34"/>
      <polygon class="st62" points="51.5 102.66 52.38 101.98 216.02 312.59 214.62 312.59 51.5 102.66"/>
      <polygon class="st12" points="52.38 101.98 53.25 101.3 217.43 312.59 216.02 312.59 52.38 101.98"/>
      <polygon class="st39" points="53.25 101.3 54.13 100.62 218.83 312.59 217.43 312.59 53.25 101.3"/>
      <polygon class="st74" points="54.13 100.62 55 99.94 220.23 312.59 218.83 312.59 54.13 100.62"/>
      <polygon class="st64" points="55 99.94 55.88 99.26 221.63 312.59 220.23 312.59 55 99.94"/>
      <polygon class="st54" points="55.88 99.26 56.75 98.58 223.04 312.59 221.63 312.59 55.88 99.26"/>
      <polygon class="st33" points="56.75 98.58 57.62 97.9 224.44 312.59 223.04 312.59 56.75 98.58"/>
      <polygon class="st43" points="57.62 97.9 58.5 97.22 225.84 312.59 224.44 312.59 57.62 97.9"/>
      <polygon class="st69" points="58.5 97.22 59.37 96.54 227.24 312.59 225.84 312.59 58.5 97.22"/>
      <polygon class="st75" points="59.37 96.54 60.25 95.86 228.65 312.59 227.24 312.59 59.37 96.54"/>
      <polygon class="st20" points="60.25 95.86 61.12 95.18 230.05 312.59 228.65 312.59 60.25 95.86"/>
      <polygon class="st70" points="61.12 95.18 62 94.51 231.45 312.59 230.05 312.59 61.12 95.18"/>
      <polygon class="st37" points="62 94.51 62.87 93.83 232.85 312.59 231.45 312.59 62 94.51"/>
      <polygon class="st58" points="62.87 93.83 63.75 93.15 234.26 312.59 232.85 312.59 62.87 93.83"/>
      <polygon class="st23" points="63.75 93.15 64.62 92.47 235.66 312.59 234.26 312.59 63.75 93.15"/>
      <polygon class="st65" points="64.62 92.47 65.5 91.79 237.06 312.59 235.66 312.59 64.62 92.47"/>
      <polygon class="st24" points="65.5 91.79 66.37 91.11 238.46 312.59 237.06 312.59 65.5 91.79"/>
      <polygon class="st3" points="66.37 91.11 67.24 90.43 239.87 312.59 238.46 312.59 66.37 91.11"/>
      <polygon class="st59" points="67.24 90.43 68.12 89.75 241.27 312.59 239.87 312.59 67.24 90.43"/>
      <polygon class="st27" points="68.12 89.75 68.99 89.07 242.67 312.59 241.27 312.59 68.12 89.75"/>
      <polygon class="st41" points="68.99 89.07 69.87 88.39 244.07 312.59 242.67 312.59 68.99 89.07"/>
      <polygon class="st52" points="69.87 88.39 70.74 87.71 245.48 312.59 244.07 312.59 69.87 88.39"/>
      <polygon class="st19" points="70.74 87.71 71.62 87.03 246.88 312.59 245.48 312.59 70.74 87.71"/>
      <polygon class="st50" points="71.62 87.03 72.49 86.35 248.28 312.59 246.88 312.59 71.62 87.03"/>
      <polygon class="st36" points="72.49 86.35 73.37 85.67 249.68 312.59 248.28 312.59 72.49 86.35"/>
      <polygon class="st29" points="73.37 85.67 74.24 84.99 251.09 312.59 249.68 312.59 73.37 85.67"/>
      <polygon class="st73" points="74.24 84.99 75.12 84.31 252.49 312.59 251.09 312.59 74.24 84.99"/>
      <polygon class="st13" points="75.12 84.31 75.99 83.63 253.89 312.59 252.49 312.59 75.12 84.31"/>
      <polygon class="st81" points="75.99 83.63 76.86 82.95 255.29 312.59 253.89 312.59 75.99 83.63"/>
      <polygon class="st7" points="76.86 82.95 77.74 82.27 256.7 312.59 255.29 312.59 76.86 82.95"/>
      <polygon class="st15" points="77.74 82.27 78.61 81.59 258.1 312.59 256.7 312.59 77.74 82.27"/>
      <polygon class="st72" points="78.61 81.59 79.49 80.91 259.5 312.59 258.1 312.59 78.61 81.59"/>
      <polygon class="st21" points="79.49 80.91 80.36 80.24 260.9 312.59 259.5 312.59 79.49 80.91"/>
      <polygon class="st48" points="80.36 80.24 81.24 79.56 262.17 312.42 261.95 312.59 260.9 312.59 80.36 80.24"/>
      <rect class="st67" x="171.59" y="48.2" width="1.11" height="294.89" transform="translate(-83.82 146.74) rotate(-37.84)"/>
      <rect class="st78" x="172.46" y="47.52" width="1.11" height="294.89" transform="translate(-83.23 147.19) rotate(-37.85)"/>
      <rect class="st16" x="173.34" y="46.84" width="1.11" height="294.89" transform="translate(-82.63 147.57) rotate(-37.85)"/>
      <rect class="st2" x="174.21" y="46.16" width="1.11" height="294.89" transform="translate(-82.02 147.92) rotate(-37.84)"/>
      <rect class="st46" x="175.09" y="45.48" width="1.11" height="294.89" transform="translate(-81.44 148.41) rotate(-37.86)"/>
      <rect class="st1" x="175.96" y="44.8" width="1.11" height="294.89" transform="translate(-80.82 148.7) rotate(-37.84)"/>
      <rect class="st5" x="176.84" y="44.12" width="1.11" height="294.89" transform="translate(-80.23 149.16) rotate(-37.85)"/>
      <rect class="st66" x="177.71" y="43.44" width="1.11" height="294.89" transform="translate(-79.62 149.54) rotate(-37.85)"/>
      <rect class="st71" x="178.58" y="42.76" width="1.11" height="294.89" transform="translate(-79.02 149.89) rotate(-37.84)"/>
      <rect class="st77" x="179.46" y="42.08" width="1.11" height="294.89" transform="translate(-78.43 150.34) rotate(-37.85)"/>
      <rect class="st38" x="180.33" y="41.4" width="1.11" height="294.89" transform="translate(-77.82 150.72) rotate(-37.85)"/>
      <rect class="st22" x="181.21" y="40.73" width="1.11" height="294.89" transform="translate(-77.21 151.07) rotate(-37.84)"/>
      <rect class="st32" x="182.08" y="40.05" width="1.11" height="294.89" transform="translate(-76.63 151.56) rotate(-37.86)"/>
      <rect class="st45" x="182.96" y="39.37" width="1.11" height="294.89" transform="translate(-76.01 151.85) rotate(-37.84)"/>
      <rect class="st17" x="183.83" y="38.69" width="1.11" height="294.89" transform="translate(-75.42 152.31) rotate(-37.85)"/>
      <rect class="st47" x="184.71" y="38.01" width="1.11" height="294.89" transform="translate(-74.82 152.69) rotate(-37.85)"/>
      <rect class="st68" x="185.58" y="37.33" width="1.11" height="294.89" transform="translate(-74.21 153.03) rotate(-37.84)"/>
      <rect class="st34" x="186.45" y="36.65" width="1.11" height="294.89" transform="translate(-73.62 153.53) rotate(-37.86)"/>
      <rect class="st63" x="187.33" y="35.97" width="1.11" height="294.89" transform="translate(-73.01 153.82) rotate(-37.84)"/>
      <rect class="st80" x="188.2" y="35.29" width="1.11" height="294.89" transform="translate(-72.41 154.22) rotate(-37.84)"/>
      <rect class="st60" x="189.08" y="34.61" width="1.11" height="294.89" transform="translate(-71.82 154.71) rotate(-37.86)"/>
      <rect class="st26" x="189.95" y="33.93" width="1.11" height="294.89" transform="translate(-71.21 155) rotate(-37.84)"/>
      <rect class="st31" x="190.83" y="33.25" width="1.11" height="294.89" transform="translate(-70.61 155.46) rotate(-37.85)"/>
      <rect class="st6" x="191.7" y="32.57" width="1.11" height="294.89" transform="translate(-70.01 155.84) rotate(-37.85)"/>
      <rect class="st49" x="192.58" y="31.89" width="1.11" height="294.89" transform="translate(-69.41 156.18) rotate(-37.84)"/>
      <rect class="st40" x="193.45" y="31.21" width="1.11" height="294.89" transform="translate(-68.81 156.68) rotate(-37.86)"/>
      <rect class="st25" x="194.33" y="30.53" width="1.11" height="294.89" transform="translate(-68.2 156.97) rotate(-37.84)"/>
      <rect class="st30" x="195.2" y="29.85" width="1.11" height="294.89" transform="translate(-67.6 157.36) rotate(-37.84)"/>
      <rect class="st18" x="196.07" y="29.17" width="1.11" height="294.89" transform="translate(-67.01 157.86) rotate(-37.86)"/>
      <rect class="st79" x="196.95" y="28.49" width="1.11" height="294.89" transform="translate(-66.4 158.15) rotate(-37.84)"/>
      <rect class="st55" x="197.82" y="27.81" width="1.11" height="294.89" transform="translate(-65.8 158.54) rotate(-37.84)"/>
      <rect class="st53" x="198.7" y="27.13" width="1.11" height="294.89" transform="translate(-65.21 159.04) rotate(-37.86)"/>
      <polygon class="st53" points="109.22 57.81 120.96 48.69 293.27 48.69 293.27 288.25 290.16 290.67 109.22 57.81"/>
    </g>
  </g>
  <g>
    <path class="st9" d="M466.02,176.33c20.88-23.12,68.15-24.66,89.37.09-14.57-25.22-40.71-25.92-66.26-26.54-64.6-1.56-239.21,13.24-296.38-30,0,0,31.84-16.31,86.54-24.65,47.15-7.19,88.96,2.41,126.15,35.68l-42.81.56-112.84-.32h0l-25.04.21c104.08,24.89,194.39,3.09,291.27,14.2h-.03c26.89,2.76,54.23,11.33,66.87,17.85,0,0-19.1-36.62-165.61-35.05-36.71-30.41-72.83-48.17-141.29-41.67-22.57,2.14-71.63,9.27-109.79,22.77-45.13,3.81-75.34,13.97-69.71,62.29l8.72.19c20.89-23.12,68.16-24.67,89.37.09-6.74-24.6-27.26-34.89-45.18-39.25,51.3,2.89,55.01,43.83,82.77,43.42,73.91-1.24,162.55-2.49,236.52-3.74-.91,1.23-1.79,2.52-2.63,3.86Z"/>
    <g class="st61">
      <polygon class="st10" points="90.82 176.43 96.62 176.61 90.82 176.61 90.82 176.43"/>
      <polygon class="st10" points="90.82 175.62 123.33 176.61 96.62 176.61 90.82 176.43 90.82 175.62"/>
      <polygon class="st10" points="90.82 174.8 150.05 176.61 123.33 176.61 90.82 175.62 90.82 174.8"/>
      <polygon class="st10" points="90.82 173.98 176.77 176.61 150.05 176.61 90.82 174.8 90.82 173.98"/>
      <polygon class="st10" points="90.82 173.16 203.48 176.61 176.77 176.61 90.82 173.98 90.82 173.16"/>
      <polygon class="st10" points="90.82 172.34 230.2 176.61 203.48 176.61 90.82 173.16 90.82 172.34"/>
      <polygon class="st10" points="90.82 171.52 256.92 176.61 230.2 176.61 90.82 172.34 90.82 171.52"/>
      <polygon class="st10" points="90.82 170.71 283.63 176.61 256.92 176.61 90.82 171.52 90.82 170.71"/>
      <polygon class="st10" points="90.82 169.89 310.35 176.61 283.63 176.61 90.82 170.71 90.82 169.89"/>
      <polygon class="st10" points="90.82 169.07 337.06 176.61 310.35 176.61 90.82 169.89 90.82 169.07"/>
      <polygon class="st10" points="90.82 168.25 363.78 176.61 337.06 176.61 90.82 169.07 90.82 168.25"/>
      <polygon class="st10" points="90.82 167.43 390.5 176.61 363.78 176.61 90.82 168.25 90.82 167.43"/>
      <polygon class="st10" points="90.82 166.61 417.21 176.61 390.5 176.61 90.82 167.43 90.82 166.61"/>
      <polygon class="st10" points="90.82 165.8 443.93 176.61 417.21 176.61 90.82 166.61 90.82 165.8"/>
      <polygon class="st10" points="90.82 164.98 470.64 176.61 443.93 176.61 90.82 165.8 90.82 164.98"/>
      <polygon class="st10" points="90.82 164.16 497.36 176.61 470.64 176.61 90.82 164.98 90.82 164.16"/>
      <polygon class="st10" points="90.82 163.34 524.08 176.61 497.36 176.61 90.82 164.16 90.82 163.34"/>
      <polygon class="st10" points="90.82 162.52 550.79 176.61 524.08 176.61 90.82 163.34 90.82 162.52"/>
      <polygon class="st10" points="90.82 161.7 577.51 176.61 550.79 176.61 90.82 162.52 90.82 161.7"/>
      <polygon class="st10" points="90.82 160.89 582.85 175.96 582.85 176.61 577.51 176.61 90.82 161.7 90.82 160.89"/>
      <polygon class="st10" points="90.82 160.07 582.85 175.14 582.85 175.96 90.82 160.89 90.82 160.07"/>
      <polygon class="st10" points="90.82 159.25 582.85 174.32 582.85 175.14 90.82 160.07 90.82 159.25"/>
      <polygon class="st10" points="90.82 158.43 582.85 173.5 582.85 174.32 90.82 159.25 90.82 158.43"/>
      <polygon class="st10" points="90.82 157.61 582.85 172.68 582.85 173.5 90.82 158.43 90.82 157.61"/>
      <polygon class="st10" points="90.82 156.79 582.85 171.87 582.85 172.68 90.82 157.61 90.82 156.79"/>
      <polygon class="st10" points="90.82 155.98 582.85 171.05 582.85 171.87 90.82 156.79 90.82 155.98"/>
      <polygon class="st10" points="90.82 155.16 582.85 170.23 582.85 171.05 90.82 155.98 90.82 155.16"/>
      <polygon class="st10" points="90.82 154.34 582.85 169.41 582.85 170.23 90.82 155.16 90.82 154.34"/>
      <polygon class="st10" points="90.82 153.52 582.85 168.59 582.85 169.41 90.82 154.34 90.82 153.52"/>
      <polygon class="st10" points="90.82 152.7 582.85 167.77 582.85 168.59 90.82 153.52 90.82 152.7"/>
      <polygon class="st10" points="90.82 151.88 582.85 166.96 582.85 167.77 90.82 152.7 90.82 151.88"/>
      <polygon class="st10" points="90.82 151.07 582.85 166.14 582.85 166.96 90.82 151.88 90.82 151.07"/>
      <polygon class="st10" points="90.82 150.25 582.85 165.32 582.85 166.14 90.82 151.07 90.82 150.25"/>
      <polygon class="st10" points="90.82 149.43 582.85 164.5 582.85 165.32 90.82 150.25 90.82 149.43"/>
      <polygon class="st10" points="90.82 148.61 582.85 163.68 582.85 164.5 90.82 149.43 90.82 148.61"/>
      <polygon class="st10" points="90.82 147.79 582.85 162.86 582.85 163.68 90.82 148.61 90.82 147.79"/>
      <polygon class="st10" points="90.82 146.97 582.85 162.05 582.85 162.86 90.82 147.79 90.82 146.97"/>
      <polygon class="st10" points="90.82 146.16 582.85 161.23 582.85 162.05 90.82 146.97 90.82 146.16"/>
      <polygon class="st10" points="90.82 145.34 582.85 160.41 582.85 161.23 90.82 146.16 90.82 145.34"/>
      <polygon class="st10" points="90.82 144.52 582.85 159.59 582.85 160.41 90.82 145.34 90.82 144.52"/>
      <polygon class="st10" points="90.82 143.7 582.85 158.77 582.85 159.59 90.82 144.52 90.82 143.7"/>
      <polygon class="st10" points="90.82 142.88 582.85 157.95 582.85 158.77 90.82 143.7 90.82 142.88"/>
      <polygon class="st10" points="90.82 142.06 582.85 157.14 582.85 157.95 90.82 142.88 90.82 142.06"/>
      <polygon class="st10" points="90.82 141.25 582.85 156.32 582.85 157.14 90.82 142.06 90.82 141.25"/>
      <polygon class="st10" points="90.82 140.43 582.85 155.5 582.85 156.32 90.82 141.25 90.82 140.43"/>
      <polygon class="st10" points="90.82 139.61 582.85 154.68 582.85 155.5 90.82 140.43 90.82 139.61"/>
      <polygon class="st10" points="90.82 138.79 582.85 153.86 582.85 154.68 90.82 139.61 90.82 138.79"/>
      <polygon class="st10" points="90.82 137.97 582.85 153.04 582.85 153.86 90.82 138.79 90.82 137.97"/>
      <polygon class="st10" points="90.82 137.15 582.85 152.23 582.85 153.04 90.82 137.97 90.82 137.15"/>
      <polygon class="st10" points="90.82 136.34 582.85 151.41 582.85 152.23 90.82 137.15 90.82 136.34"/>
      <polygon class="st10" points="90.82 135.52 582.85 150.59 582.85 151.41 90.82 136.34 90.82 135.52"/>
      <polygon class="st10" points="90.82 134.7 582.85 149.77 582.85 150.59 90.82 135.52 90.82 134.7"/>
      <polygon class="st10" points="90.82 133.88 582.85 148.95 582.85 149.77 90.82 134.7 90.82 133.88"/>
      <polygon class="st10" points="90.82 133.06 582.85 148.13 582.85 148.95 90.82 133.88 90.82 133.06"/>
      <polygon class="st10" points="90.82 132.24 582.85 147.31 582.85 148.13 90.82 133.06 90.82 132.24"/>
      <polygon class="st10" points="90.82 131.43 582.85 146.5 582.85 147.31 90.82 132.24 90.82 131.43"/>
      <polygon class="st10" points="90.82 130.61 582.85 145.68 582.85 146.5 90.82 131.43 90.82 130.61"/>
      <polygon class="st10" points="90.82 129.79 582.85 144.86 582.85 145.68 90.82 130.61 90.82 129.79"/>
      <polygon class="st10" points="90.82 128.97 582.85 144.04 582.85 144.86 90.82 129.79 90.82 128.97"/>
      <polygon class="st10" points="90.82 128.15 582.85 143.22 582.85 144.04 90.82 128.97 90.82 128.15"/>
      <polygon class="st10" points="90.82 127.33 582.85 142.41 582.85 143.22 90.82 128.15 90.82 127.33"/>
      <polygon class="st10" points="90.82 126.52 582.85 141.59 582.85 142.41 90.82 127.33 90.82 126.52"/>
      <polygon class="st10" points="90.82 125.7 582.85 140.77 582.85 141.59 90.82 126.52 90.82 125.7"/>
      <polygon class="st10" points="90.82 124.88 582.85 139.95 582.85 140.77 90.82 125.7 90.82 124.88"/>
      <polygon class="st10" points="90.82 124.06 582.85 139.13 582.85 139.95 90.82 124.88 90.82 124.06"/>
      <polygon class="st10" points="90.82 123.24 582.85 138.31 582.85 139.13 90.82 124.06 90.82 123.24"/>
      <polygon class="st10" points="90.82 122.42 582.85 137.49 582.85 138.31 90.82 123.24 90.82 122.42"/>
      <polygon class="st10" points="90.82 121.6 582.85 136.68 582.85 137.49 90.82 122.42 90.82 121.6"/>
      <polygon class="st10" points="90.82 120.79 582.85 135.86 582.85 136.68 90.82 121.6 90.82 120.79"/>
      <polygon class="st10" points="90.82 119.97 582.85 135.04 582.85 135.86 90.82 120.79 90.82 119.97"/>
      <polygon class="st10" points="90.82 119.15 582.85 134.22 582.85 135.04 90.82 119.97 90.82 119.15"/>
      <polygon class="st10" points="90.82 118.33 582.85 133.4 582.85 134.22 90.82 119.15 90.82 118.33"/>
      <polygon class="st10" points="582.85 133.4 90.82 118.33 90.82 80.19 582.85 80.19 582.85 133.4"/>
    </g>
  </g>
  <g class="st44">
    <polygon class="st56" points="202.5 112.08 268.46 127.65 202.5 127.65 202.5 112.08"/>
    <polygon class="st56" points="202.5 111.81 269.62 127.65 268.46 127.65 202.5 112.08 202.5 111.81"/>
    <polygon class="st14" points="202.5 111.54 270.77 127.65 269.62 127.65 202.5 111.81 202.5 111.54"/>
    <polygon class="st4" points="202.5 111.26 271.92 127.65 270.77 127.65 202.5 111.54 202.5 111.26"/>
    <polygon class="st0" points="202.5 110.99 273.07 127.65 271.92 127.65 202.5 111.26 202.5 110.99"/>
    <polygon class="st51" points="202.5 110.72 274.22 127.65 273.07 127.65 202.5 110.99 202.5 110.72"/>
    <polygon class="st57" points="202.5 110.45 275.38 127.65 274.22 127.65 202.5 110.72 202.5 110.45"/>
    <polygon class="st42" points="202.5 110.18 276.53 127.65 275.38 127.65 202.5 110.45 202.5 110.18"/>
    <polygon class="st35" points="202.5 109.9 277.68 127.65 276.53 127.65 202.5 110.18 202.5 109.9"/>
    <polygon class="st62" points="202.5 109.63 278.83 127.65 277.68 127.65 202.5 109.9 202.5 109.63"/>
    <polygon class="st12" points="202.5 109.36 279.98 127.65 278.83 127.65 202.5 109.63 202.5 109.36"/>
    <polygon class="st39" points="202.5 109.09 281.13 127.65 279.98 127.65 202.5 109.36 202.5 109.09"/>
    <polygon class="st74" points="202.5 108.82 282.29 127.65 281.13 127.65 202.5 109.09 202.5 108.82"/>
    <polygon class="st64" points="202.5 108.55 283.44 127.65 282.29 127.65 202.5 108.82 202.5 108.55"/>
    <polygon class="st54" points="202.5 108.27 284.59 127.65 283.44 127.65 202.5 108.55 202.5 108.27"/>
    <polygon class="st33" points="202.5 108 285.74 127.65 284.59 127.65 202.5 108.27 202.5 108"/>
    <polygon class="st43" points="202.5 107.73 286.89 127.65 285.74 127.65 202.5 108 202.5 107.73"/>
    <polygon class="st69" points="202.5 107.46 288.05 127.65 286.89 127.65 202.5 107.73 202.5 107.46"/>
    <polygon class="st75" points="202.5 107.19 289.2 127.65 288.05 127.65 202.5 107.46 202.5 107.19"/>
    <polygon class="st20" points="202.5 106.91 290.35 127.65 289.2 127.65 202.5 107.19 202.5 106.91"/>
    <polygon class="st70" points="202.5 106.64 291.5 127.65 290.35 127.65 202.5 106.91 202.5 106.64"/>
    <polygon class="st37" points="202.5 106.37 292.65 127.65 291.5 127.65 202.5 106.64 202.5 106.37"/>
    <polygon class="st58" points="202.5 106.1 293.8 127.65 292.65 127.65 202.5 106.37 202.5 106.1"/>
    <polygon class="st23" points="202.5 105.83 294.96 127.65 293.8 127.65 202.5 106.1 202.5 105.83"/>
    <polygon class="st65" points="202.5 105.56 296.11 127.65 294.96 127.65 202.5 105.83 202.5 105.56"/>
    <polygon class="st24" points="202.5 105.28 297.26 127.65 296.11 127.65 202.5 105.56 202.5 105.28"/>
    <polygon class="st3" points="202.5 105.01 298.41 127.65 297.26 127.65 202.5 105.28 202.5 105.01"/>
    <polygon class="st59" points="202.5 104.74 299.56 127.65 298.41 127.65 202.5 105.01 202.5 104.74"/>
    <polygon class="st27" points="202.5 104.47 300.72 127.65 299.56 127.65 202.5 104.74 202.5 104.47"/>
    <polygon class="st41" points="202.5 104.2 301.87 127.65 300.72 127.65 202.5 104.47 202.5 104.2"/>
    <polygon class="st52" points="202.5 103.92 303.02 127.65 301.87 127.65 202.5 104.2 202.5 103.92"/>
    <polygon class="st19" points="202.5 103.65 304.17 127.65 303.02 127.65 202.5 103.92 202.5 103.65"/>
    <polygon class="st50" points="202.5 103.38 305.32 127.65 304.17 127.65 202.5 103.65 202.5 103.38"/>
    <polygon class="st36" points="202.5 103.11 306.47 127.65 305.32 127.65 202.5 103.38 202.5 103.11"/>
    <polygon class="st29" points="202.5 102.84 307.63 127.65 306.47 127.65 202.5 103.11 202.5 102.84"/>
    <polygon class="st73" points="202.5 102.56 308.78 127.65 307.63 127.65 202.5 102.84 202.5 102.56"/>
    <polygon class="st13" points="202.5 102.29 309.93 127.65 308.78 127.65 202.5 102.56 202.5 102.29"/>
    <polygon class="st81" points="202.5 102.02 311.08 127.65 309.93 127.65 202.5 102.29 202.5 102.02"/>
    <polygon class="st7" points="202.5 101.75 312.23 127.65 311.08 127.65 202.5 102.02 202.5 101.75"/>
    <polygon class="st15" points="202.5 101.48 313.39 127.65 312.23 127.65 202.5 101.75 202.5 101.48"/>
    <polygon class="st72" points="202.5 101.21 314.54 127.65 313.39 127.65 202.5 101.48 202.5 101.21"/>
    <polygon class="st21" points="202.5 100.93 315.69 127.65 314.54 127.65 202.5 101.21 202.5 100.93"/>
    <polygon class="st48" points="202.5 100.66 316.84 127.65 315.69 127.65 202.5 100.93 202.5 100.66"/>
    <polygon class="st67" points="202.5 100.39 317.99 127.65 316.84 127.65 202.5 100.66 202.5 100.39"/>
    <polygon class="st78" points="202.5 100.12 319.15 127.65 317.99 127.65 202.5 100.39 202.5 100.12"/>
    <polygon class="st16" points="202.5 99.85 320.3 127.65 319.15 127.65 202.5 100.12 202.5 99.85"/>
    <polygon class="st2" points="202.5 99.57 321.45 127.65 320.3 127.65 202.5 99.85 202.5 99.57"/>
    <polygon class="st46" points="202.5 99.3 322.6 127.65 321.45 127.65 202.5 99.57 202.5 99.3"/>
    <polygon class="st1" points="202.5 99.03 323.75 127.65 322.6 127.65 202.5 99.3 202.5 99.03"/>
    <polygon class="st5" points="202.5 98.76 324.9 127.65 323.75 127.65 202.5 99.03 202.5 98.76"/>
    <polygon class="st66" points="202.5 98.49 326.06 127.65 324.9 127.65 202.5 98.76 202.5 98.49"/>
    <polygon class="st71" points="202.5 98.22 327.21 127.65 326.06 127.65 202.5 98.49 202.5 98.22"/>
    <polygon class="st77" points="202.5 97.94 328.36 127.65 327.21 127.65 202.5 98.22 202.5 97.94"/>
    <polygon class="st38" points="202.5 97.67 329.51 127.65 328.36 127.65 202.5 97.94 202.5 97.67"/>
    <polygon class="st22" points="202.5 97.4 330.66 127.65 329.51 127.65 202.5 97.67 202.5 97.4"/>
    <polygon class="st32" points="202.5 97.13 331.82 127.65 330.66 127.65 202.5 97.4 202.5 97.13"/>
    <polygon class="st45" points="202.5 96.86 332.97 127.65 331.82 127.65 202.5 97.13 202.5 96.86"/>
    <polygon class="st17" points="202.5 96.58 334.12 127.65 332.97 127.65 202.5 96.86 202.5 96.58"/>
    <polygon class="st47" points="202.5 96.31 335.27 127.65 334.12 127.65 202.5 96.58 202.5 96.31"/>
    <polygon class="st68" points="202.5 96.04 336.42 127.65 335.27 127.65 202.5 96.31 202.5 96.04"/>
    <polygon class="st34" points="202.5 95.77 337.57 127.65 336.42 127.65 202.5 96.04 202.5 95.77"/>
    <polygon class="st63" points="202.5 95.5 338.73 127.65 337.57 127.65 202.5 95.77 202.5 95.5"/>
    <polygon class="st80" points="202.5 95.22 339.88 127.65 338.73 127.65 202.5 95.5 202.5 95.22"/>
    <polygon class="st60" points="202.5 94.95 341.03 127.65 339.88 127.65 202.5 95.22 202.5 94.95"/>
    <polygon class="st26" points="202.5 94.68 342.18 127.65 341.03 127.65 202.5 94.95 202.5 94.68"/>
    <polygon class="st31" points="202.5 94.41 343.33 127.65 342.18 127.65 202.5 94.68 202.5 94.41"/>
    <polygon class="st6" points="202.5 94.14 344.49 127.65 343.33 127.65 202.5 94.41 202.5 94.14"/>
    <polygon class="st49" points="202.5 93.87 345.64 127.65 344.49 127.65 202.5 94.14 202.5 93.87"/>
    <polygon class="st40" points="202.5 93.59 346.79 127.65 345.64 127.65 202.5 93.87 202.5 93.59"/>
    <polygon class="st25" points="202.5 93.32 347.94 127.65 346.79 127.65 202.5 93.59 202.5 93.32"/>
    <polygon class="st30" points="202.5 93.05 349.09 127.65 347.94 127.65 202.5 93.32 202.5 93.05"/>
    <polygon class="st18" points="202.5 92.78 350.24 127.65 349.09 127.65 202.5 93.05 202.5 92.78"/>
    <polygon class="st79" points="202.5 92.51 351.4 127.65 350.24 127.65 202.5 92.78 202.5 92.51"/>
    <polygon class="st55" points="202.5 92.42 202.54 92.24 352.55 127.65 351.4 127.65 202.5 92.51 202.5 92.42"/>
    <polygon class="st53" points="202.54 92.24 202.6 91.99 353.7 127.65 352.55 127.65 202.54 92.24"/>
    <polygon class="st53" points="202.6 91.99 204.25 85.02 360.24 85.02 360.24 127.65 353.7 127.65 202.6 91.99"/>
  </g>
  <g>
    <path class="st10" d="M517.59,221.02h17.85c1.28,0,2.32,1.04,2.32,2.32v20.7c0,.37-.08.7-.25,1.08l-2.07,3.98c-.41.7-.37,1.53.04,2.23.46.7,1.16,1.12,1.99,1.12h16.07c.83,0,1.53-.41,1.99-1.12.41-.7.46-1.53.08-2.23l-2.11-3.98c-.17-.37-.25-.7-.25-1.08v-51.42c0-.37.08-.75.25-1.08l2.11-3.97c.37-.75.33-1.53-.08-2.28-.46-.7-1.16-1.08-1.99-1.08h-16.07c-.83,0-1.53.37-1.99,1.08-.41.75-.46,1.53-.04,2.28l2.07,3.97c.17.33.25.7.25,1.08v19.46c0,1.28-1.03,2.32-2.32,2.32h-17.85c-1.24,0-2.28-1.04-2.28-2.32v-19.46c0-.37.08-.75.25-1.08l2.07-3.97c.37-.75.37-1.53-.08-2.28-.41-.7-1.12-1.08-1.95-1.08h-16.19c-.83,0-1.53.37-1.95,1.08-.45.75-.45,1.53-.08,2.28l2.07,3.97c.17.33.25.7.25,1.08v51.42c0,.37-.08.7-.25,1.08l-2.07,3.98c-.37.7-.37,1.53.08,2.23.41.7,1.12,1.12,1.95,1.12h16.19c.83,0,1.53-.41,1.95-1.12.46-.7.46-1.53.08-2.23l-2.07-3.98c-.17-.37-.25-.7-.25-1.08v-20.7c0-1.28,1.03-2.32,2.28-2.32h0Z"/>
    <path class="st10" d="M590.38,184.21h-16.06c-.83,0-1.53.37-1.99,1.08-.41.75-.46,1.53-.08,2.28l2.11,3.97c.17.33.25.7.25,1.08v51.42c0,.37-.08.7-.25,1.08l-2.11,3.98c-.37.7-.33,1.53.08,2.23.46.7,1.16,1.12,1.99,1.12h16.06c.83,0,1.53-.41,1.99-1.12.41-.7.46-1.53.04-2.23l-2.07-3.98c-.17-.37-.25-.7-.25-1.08v-51.42c0-.37.08-.75.25-1.08l2.07-3.97c.41-.75.37-1.53-.04-2.28-.46-.7-1.16-1.08-1.99-1.08h0Z"/>
    <path class="st10" d="M310.56,193.59c2.65-1.53,6.87-2.77,10.6-2.77,7.95,0,12.17,4.76,12.17,10.19,0,8.69-12.09,15.24-21.2,16.89-.7.12-1.33-.04-1.86-.5-.54-.46-.83-1.04-.83-1.78v-20.04c0-.83.41-1.57,1.12-1.99h0ZM326.09,221.54c12.21-4.02,24.31-11.47,23.93-23.19-.21-7.66-6.62-14.16-18.59-14.16h-37.88c-.83,0-1.53.37-1.95,1.08-.46.75-.46,1.53-.08,2.28l2.07,3.97c.17.33.25.7.25,1.08v51.38c0,.42-.08.75-.25,1.08l-2.07,4.02c-.41.7-.37,1.53.04,2.23.46.7,1.16,1.12,1.99,1.12h16.19c.83,0,1.53-.41,1.95-1.12.46-.7.46-1.53.08-2.23l-2.07-4.02c-.17-.33-.25-.66-.25-1.04v-17.06c0-1.16.87-2.15,2.03-2.28.41-.04.87-.08,1.32-.17,1.16-.17,2.24.58,2.53,1.7,3.02,11.3,13.91,25.13,32.71,26.25.66.04,1.24-.17,1.74-.62.45-.46.7-1.04.7-1.66v-18.92c0-1.24-.99-2.28-2.28-2.32-8.2-.12-16.19-.91-22.15-3.06-.95-.33-1.53-1.2-1.53-2.19.04-.99.66-1.86,1.57-2.15h0Z"/>
    <path class="st10" d="M157.11,184.21h-22.28c-.66,0-1.28.25-1.74.79-.46.54-.62,1.16-.5,1.86.79,4.97,3.4,9.48,6.5,13.17,4.43,5.3,4.31,10.27,1.99,16.68l-6.5,16.94c-.33.91-1.16,1.49-2.11,1.49s-1.82-.58-2.15-1.49l-15.57-40.7c-.21-.62-.21-1.2.04-1.78l1.66-3.73c.33-.74.25-1.53-.21-2.19-.41-.66-1.12-1.04-1.91-1.04h-16.27c-.79,0-1.45.33-1.9.99-.41.62-.5,1.37-.25,2.11l24.14,63.64c.37.91,1.2,1.49,2.15,1.49h10.76c.99,0,1.82-.58,2.15-1.49l24.14-63.64c.25-.75.17-1.49-.25-2.11-.45-.66-1.12-.99-1.9-.99h0Z"/>
    <g>
      <path class="st10" d="M261.16,185.66c-.37-.91-1.2-1.49-2.15-1.49h-11.83c-.79,0-1.45.33-1.86.99-.45.62-.54,1.37-.29,2.11l.54,1.49c.21.54.21,1.12,0,1.65l-24.11,58.85c-.33.74-.25,1.53.21,2.15.46.66,1.12,1.03,1.9,1.03h22.21c.7,0,1.28-.29,1.74-.83.46-.5.62-1.16.54-1.86-.83-5-3.35-9.59-6.49-13.23-4.47-5.21-3.64-9.51-1.32-15.8l6.87-16.63c.37-.87,1.2-1.4,2.15-1.4s1.78.58,2.11,1.49l6.86,18.02h-16.93l3.93,4.85c1,1.24,2.39,1.94,3.83,1.94h11.75l5.61,14.73c.25.58.21,1.2-.04,1.78l-1.7,3.72c-.33.7-.25,1.49.17,2.19.46.66,1.16,1.03,1.94,1.03h16.34c.75,0,1.45-.33,1.86-.99.45-.62.54-1.41.29-2.11l-24.11-63.69Z"/>
      <path class="st10" d="M396.6,185.66c-.37-.91-1.2-1.49-2.15-1.49h-11.83c-.79,0-1.45.33-1.86.99-.45.62-.54,1.37-.29,2.11l.54,1.49c.21.54.21,1.12,0,1.65l-24.11,58.85c-.33.74-.25,1.53.21,2.15.46.66,1.12,1.03,1.9,1.03h22.21c.7,0,1.28-.29,1.74-.83.46-.5.62-1.16.54-1.86-.83-5-3.35-9.59-6.49-13.23-4.47-5.21-3.64-9.51-1.32-15.8l6.87-16.63c.37-.87,1.2-1.4,2.15-1.4s1.78.58,2.11,1.49l6.86,18.02h-16.93l3.93,4.85c1,1.24,2.39,1.94,3.83,1.94h11.75l5.61,14.73c.25.58.21,1.2-.04,1.78l-1.7,3.72c-.33.7-.25,1.49.17,2.19.46.66,1.16,1.03,1.94,1.03h16.34c.75,0,1.45-.33,1.86-.99.45-.62.54-1.41.29-2.11l-24.11-63.69Z"/>
      <path class="st10" d="M190.95,185.66c-.37-.91-1.2-1.49-2.15-1.49h-11.83c-.79,0-1.45.33-1.86.99-.45.62-.54,1.37-.29,2.11l.54,1.49c.21.54.21,1.12,0,1.65l-24.11,58.85c-.33.74-.25,1.53.21,2.15.46.66,1.12,1.03,1.9,1.03h22.21c.7,0,1.28-.29,1.74-.83.46-.5.62-1.16.54-1.86-.83-5-3.35-9.59-6.49-13.23-4.47-5.21-3.64-9.51-1.32-15.8l6.87-16.63c.37-.87,1.2-1.4,2.15-1.4s1.78.58,2.11,1.49l6.86,18.02h-16.93l3.93,4.85c1,1.24,2.39,1.94,3.83,1.94h11.75l5.61,14.73c.25.58.21,1.2-.04,1.78l-1.7,3.72c-.33.7-.25,1.49.17,2.19.46.66,1.16,1.03,1.94,1.03h16.34c.75,0,1.45-.33,1.86-.99.45-.62.54-1.41.29-2.11l-24.11-63.69Z"/>
      <path class="st10" d="M466.81,185.66c-.37-.91-1.2-1.49-2.15-1.49h-11.83c-.79,0-1.45.33-1.86.99-.45.62-.54,1.37-.29,2.11l.54,1.49c.21.54.21,1.12,0,1.65l-24.11,58.85c-.33.74-.25,1.53.21,2.15.46.66,1.12,1.03,1.9,1.03h22.21c.7,0,1.28-.29,1.74-.83.46-.5.62-1.16.54-1.86-.83-5-3.35-9.59-6.49-13.23-4.47-5.21-3.64-9.51-1.32-15.8l6.87-16.63c.37-.87,1.2-1.4,2.15-1.4s1.78.58,2.11,1.49l6.86,18.02h-16.93l3.93,4.85c1,1.24,2.39,1.94,3.83,1.94h11.75l5.61,14.73c.25.58.21,1.2-.04,1.78l-1.7,3.72c-.33.7-.25,1.49.17,2.19.46.66,1.16,1.03,1.94,1.03h16.34c.75,0,1.45-.33,1.86-.99.45-.62.54-1.41.29-2.11l-24.11-63.69Z"/>
    </g>
  </g>
  <g>
    <path class="st47" d="M373.98,286.07l.11-1.1c.08-.84-.16-1.48-.64-2.09l-5.4-6.23-4.36,9.42h-8.7l13.92-27.84h15.08l-1.35,27.84h-8.66ZM376.46,258.69l-7.99,16.71h6.61l1.38-16.71Z"/>
    <path class="st47" d="M527.02,286.07l.11-1.1c.08-.84-.16-1.48-.64-2.09l-5.4-6.23-4.36,9.42h-8.7l13.92-27.84h15.08l-1.35,27.84h-8.66ZM529.49,258.69l-7.99,16.71h6.61l1.38-16.71Z"/>
    <path class="st47" d="M506.59,280.83c-1.39,5.09-4.58,6.04-13.01,6.04-7.1,0-12.2-.95-10.92-5.62l4.51-16.48c1.46-5.36,4.56-6.53,14.89-6.53,8.32,0,10.32,1.44,9.5,4.41l-1.28,4.67h-8.2l.34-1.25c.23-.84.09-1.44-.3-1.97l-4.48-5.01-6.3,23.01c-.33,1.22.62,2.16,2.98,2.16,1.94,0,3.31-.72,3.71-2.16l1.38-5.05h8.2l-1.04,3.8Z"/>
    <path class="st47" d="M566.98,286.07l7.62-27.84h17.74l-1.15,4.22h-15.31l4,4.94c.42.53.53.84.34,1.52l-.26.95h8.55l-1.02,3.72h-8.55l-2.2,8.05h9.99l-1.22,4.44h-18.53Z"/>
    <path class="st47" d="M463.83,281.52c-1.05,3.84-4.92,5.35-13.73,5.35s-11.93-1.37-10.84-5.35l4.89-17.89c1.1-4.03,5.16-5.39,13.78-5.39s11.89,1.37,10.79,5.39l-4.89,17.89ZM459.17,265.95c.32-1.18.27-1.56-.4-2.28l-4.41-4.56-6.1,22.29c-.36,1.33.93,2.16,2.75,2.16s3.57-.84,3.93-2.16l4.23-15.46Z"/>
    <path class="st47" d="M555.14,286.07c-.52-.87-.51-1.9-.06-3.53l.54-1.97c.32-1.18.03-2.32-1.01-3.38l-4.3-4.82-3.75,13.71h-8.55l7.62-27.84h11.62c10.71,0,12.64,1.56,11.36,6.23l-.76,2.77c-.96,3.49-4.62,6.19-8.26,6.3,4.63.42,5.97,2.05,5.31,4.48l-1.24,4.52c-.33,1.22-.35,2.39.06,3.53h-8.58ZM559.46,266.55c.18-.65,0-1.25-.52-1.86l-4.97-5.7-3.44,12.57h2.66c3.91,0,5.14-.87,5.78-3.23l.49-1.78Z"/>
    <path class="st47" d="M418.5,286.07l6.46-23.62h-6.91l1.15-4.22h22.52l-1.15,4.22h-13.1l3.75,4.33c.56.72.75,1.56.49,2.51l-4.59,16.79h-8.62Z"/>
    <path class="st47" d="M407.76,258.24h8.58l-5.89,21.53c-1.35,4.94-3.8,6.68-13.83,6.68-9.3,0-11.54-1.56-10.13-6.68l5.89-21.53h8.58l-5.43,19.86c-.26.95-.17,1.75.25,2.28l4.49,5.24,7.49-27.38Z"/>
  </g>
</svg>