<?xml version="1.0" encoding="UTF-8"?>
<svg id="Layer_1" xmlns="http://www.w3.org/2000/svg" version="1.1" xmlns:xlink="http://www.w3.org/1999/xlink" viewBox="0 0 600 368.84">
  <!-- Generator: Adobe Illustrator 29.8.4, SVG Export Plug-In . SVG Version: 2.1.1 Build 6)  -->
  <defs>
    <style>
      .st0 {
        fill: #ebebec;
      }

      .st1 {
        fill: #08a3de;
      }

      .st2 {
        fill: #98979e;
      }

      .st3 {
        fill: #afaeb4;
      }

      .st4 {
        fill: #e5e5e6;
      }

      .st5 {
        fill: #1682c6;
      }

      .st6 {
        fill: #dcdcde;
      }

      .st7 {
        fill: #00b5eb;
      }

      .st8 {
        fill: #06a9e2;
      }

      .st9 {
        fill: #0d99d7;
      }

      .st10 {
        fill: #03afe7;
      }

      .st11 {
        fill: #a3a2a8;
      }

      .st12 {
        fill: #0e97d5;
      }

      .st13 {
        fill: #1d72ba;
      }

      .st14 {
        fill: #1b78bf;
      }

      .st15 {
        fill: #bab9be;
      }

      .st16 {
        fill: #b8b7bc;
      }

      .st17 {
        fill: #c8c8cb;
      }

      .st18 {
        fill: #e0e0e1;
      }

      .st19 {
        fill: #05abe4;
      }

      .st20 {
        fill: #02b2e9;
      }

      .st21 {
        fill: #d2d2d4;
      }

      .st22 {
        fill: #cccccf;
      }

      .st23 {
        fill: #eaeaeb;
      }

      .st24 {
        fill: #206db7;
      }

      .st25 {
        fill: #197bc1;
      }

      .st26 {
        fill: #bfbec2;
      }

      .st27 {
        fill: #0b9cd9;
      }

      .st28 {
        fill: #1a79c0;
      }

      .st29 {
        fill: #e3e3e4;
      }

      .st30 {
        fill: #9d9ca3;
      }

      .st31 {
        fill: #f0f0f0;
      }

      .st32 {
        fill: #09a2dd;
      }

      .st33 {
        fill: #bbbabf;
      }

      .st34 {
        fill: #1488cb;
      }

      .st35 {
        fill: #dadadc;
      }

      .st36 {
        fill: #a1a0a6;
      }

      .st37 {
        fill: #a8a7ad;
      }

      .st38 {
        fill: #0aa0dc;
      }

      .st39 {
        fill: #07a5df;
      }

      .st40 {
        fill: #bebdc2;
      }

      .st41 {
        fill: #1683c7;
      }

      .st42 {
        fill: #118ecf;
      }

      .st43 {
        fill: #07a7e1;
      }

      .st44 {
        fill: #128bcd;
      }

      .st45 {
        fill: #e2e2e3;
      }

      .st46 {
        fill: #08a4df;
      }

      .st47 {
        fill: #d4d4d6;
      }

      .st48 {
        fill: #d3d3d5;
      }

      .st49 {
        fill: #118fd0;
      }

      .st50 {
        fill: #aeadb3;
      }

      .st51 {
        fill: #1586c9;
      }

      .st52 {
        fill: #c0bfc3;
      }

      .st53 {
        fill: #01b3ea;
      }

      .st54 {
        fill: #b7b6bb;
      }

      .st55 {
        fill: #9c9ba2;
      }

      .st56 {
        fill: #dededf;
      }

      .st57 {
        fill: #d7d7d9;
      }

      .st58 {
        fill: #d1d1d3;
      }

      .st59 {
        fill: #1584c8;
      }

      .st60 {
        fill: #cacacd;
      }

      .st61 {
        fill: #03b0e8;
      }

      .st62 {
        fill: #b4b3b8;
      }

      .st63 {
        fill: #138acc;
      }

      .st64 {
        fill: #d0d0d2;
      }

      .st65 {
        clip-path: url(#clippath-1);
      }

      .st66 {
        fill: #1e70b9;
      }

      .st67 {
        fill: #f2f2f2;
      }

      .st68 {
        fill: #b9b8bd;
      }

      .st69 {
        fill: #1585c8;
      }

      .st70 {
        fill: #e4e4e5;
      }

      .st71 {
        fill: #c2c1c5;
      }

      .st72 {
        fill: #00b6ec;
      }

      .st73 {
        fill: #dddddf;
      }

      .st74 {
        fill: #dbdbdd;
      }

      .st75 {
        fill: #0c9bd8;
      }

      .st76 {
        fill: #1781c6;
      }

      .st77 {
        fill: #c3c2c6;
      }

      .st78 {
        fill: #1f6fb8;
      }

      .st79 {
        fill: #1780c5;
      }

      .st80 {
        fill: #0f93d2;
      }

      .st81 {
        fill: #9e9da4;
      }

      .st82 {
        fill: #09a1dc;
      }

      .st83 {
        fill: #d9d9db;
      }

      .st84 {
        fill: #f1f1f1;
      }

      .st85 {
        fill: #b6b5ba;
      }

      .st86 {
        fill: #a6a5ab;
      }

      .st87 {
        fill: #cbcbce;
      }

      .st88 {
        fill: #01b4eb;
      }

      .st89 {
        fill: #1e71ba;
      }

      .st90 {
        clip-path: url(#clippath-3);
      }

      .st91 {
        fill: #abaab0;
      }

      .st92 {
        fill: #9f9ea5;
      }

      .st93 {
        fill: #05aae3;
      }

      .st94 {
        fill: #e1e1e2;
      }

      .st95 {
        fill: #aaa9af;
      }

      .st96 {
        fill: #b2b1b6;
      }

      .st97 {
        fill: #acabb1;
      }

      .st98 {
        clip-rule: evenodd;
        fill: none;
      }

      .st99 {
        fill: #128cce;
      }

      .st100 {
        fill: #efefef;
      }

      .st101 {
        fill: #1487ca;
      }

      .st102 {
        fill: #d5d5d7;
      }

      .st103 {
        fill: #1c76bd;
      }

      .st104 {
        fill: #128dce;
      }

      .st105 {
        fill: #c9c9cc;
      }

      .st106 {
        fill: #b5b4b9;
      }

      .st107 {
        fill: #eee;
      }

      .st108 {
        fill: #197dc3;
      }

      .st109 {
        fill: #c1c0c4;
      }

      .st110 {
        fill: #06a8e2;
      }

      .st111 {
        fill: #b1b0b5;
      }

      .st112 {
        fill: #0b9dda;
      }

      .st113 {
        fill: #07a6e0;
      }

      .st114 {
        fill: #1c74bc;
      }

      .st115 {
        fill: #ececed;
      }

      .st116 {
        fill: #1b77be;
      }

      .st117 {
        fill: #0b9eda;
      }

      .st118 {
        fill: #1d73bb;
      }

      .st119 {
        fill: #a5a4aa;
      }

      .st120 {
        fill: #a9a8ae;
      }

      .st121 {
        fill: #bdbcc1;
      }

      .st122 {
        fill: #d8d8da;
      }

      .st123 {
        fill: #04aee6;
      }

      .st124 {
        fill: #0c9ad7;
      }

      .st125 {
        fill: #dfdfe0;
      }

      .st126 {
        fill: #c5c4c8;
      }

      .st127 {
        fill: #9a99a0;
      }

      .st128 {
        fill: #0f94d3;
      }

      .st129 {
        fill: #f4f4f4;
      }

      .st130 {
        fill: #c6c6c9;
      }

      .st131 {
        fill: #a2a1a7;
      }

      .st132 {
        fill: #04ade5;
      }

      .st133 {
        fill: #0e95d4;
      }

      .st134 {
        fill: #ceced0;
      }

      .st135 {
        fill: #9b9aa1;
      }

      .st136 {
        fill: #04ace5;
      }

      .st137 {
        fill: #c7c7ca;
      }

      .st138 {
        fill: #d6d6d8;
      }

      .st139 {
        fill: #197cc2;
      }

      .st140 {
        fill: #cdcdd0;
      }

      .st141 {
        clip-path: url(#clippath-2);
      }

      .st142 {
        fill: #a4a3a9;
      }

      .st143 {
        fill: #e8e8e9;
      }

      .st144 {
        fill: #99989f;
      }

      .st145 {
        fill: #a09fa5;
      }

      .st146 {
        fill: #e6e6e7;
      }

      .st147 {
        fill: #e7e7e8;
      }

      .st148 {
        fill: #1092d1;
      }

      .st149 {
        fill: #187fc4;
      }

      .st150 {
        fill: #ededed;
      }

      .st151 {
        fill: #0e96d4;
      }

      .st152 {
        fill: #02b1e8;
      }

      .st153 {
        fill: #1090d1;
      }

      .st154 {
        fill: #cfcfd1;
      }

      .st155 {
        fill: #c4c3c7;
      }

      .st156 {
        fill: #1a7ac0;
      }

      .st157 {
        fill: #1f6eb7;
      }

      .st158 {
        fill: #0a9fdb;
      }

      .st159 {
        fill: #a7a6ac;
      }

      .st160 {
        fill: #206cb6;
      }

      .st161 {
        fill: #0d98d6;
      }

      .st162 {
        fill: #b0afb4;
      }

      .st163 {
        fill: #b3b2b7;
      }

      .st164 {
        fill: #1389cb;
      }

      .st165 {
        clip-path: url(#clippath);
      }

      .st166 {
        fill: #187ec3;
      }

      .st167 {
        fill: #adacb2;
      }

      .st168 {
        fill: #bcbbc0;
      }

      .st169 {
        fill: #e9e9ea;
      }

      .st170 {
        fill: #f3f3f3;
      }

      .st171 {
        fill: #1c75bd;
      }
    </style>
    <clipPath id="clippath">
      <path class="st98" d="M86.04,57.22c-8.93,5.52-16.75,12.14-23.42,19.67l-22.48-11.97-8.29,13.75-8.3,13.75,19.05,17.75c-3.74,9.79-6.18,20.26-7.29,31.19l-23.11-.38.95,17.72.94,17.72,23.47,7.79c2.27,11.37,5.84,22.89,10.79,34.38l-17.48,11.33,9.93,16.94,9.92,16.95,21.64-4.24c7.83,10.34,16.55,19.83,25.95,28.35l-7.19,19.98,16.25,11.63,16.24,11.64,14.01-15.15c11.07,6.08,22.55,11.01,34.18,14.7l5.01,23.32,18.21,3.2,18.22,3.2,2.61-21.95c11.3.37,22.47-.56,33.26-2.89l15.88,20.37,15.3-6.09,15.3-6.09-9.47-22.93c8.92-5.52,16.74-12.14,23.41-19.66l22.49,11.97,8.29-13.75,8.29-13.75-2.1-1.95h-39.93c-10.12,10.1-22.61,18.39-37.29,24.23-10.97,4.37-22.48,7.09-34.23,8.29-56.81,9.41-123.81-24.57-158.41-83.65-34.6-59.07-25.21-123.46,19.05-154.27,8.45-6.83,18.18-12.57,29.16-16.93,33.79-13.45,72.67-11.35,107.98,2.89l1.7-2.21c-11.06-6.08-22.54-11.01-34.16-14.69l-5.03-23.33-18.22-3.2-18.21-3.19-2.61,21.96c-11.3-.37-22.45.56-33.25,2.89l-15.89-20.38-15.3,6.09-15.3,6.09,9.47,22.92Z"/>
    </clipPath>
    <clipPath id="clippath-1">
      <path class="st98" d="M127.87,66.41c-10.09,4.02-19.26,9.36-27.27,15.84-46.5,37.62-44.6,100.79-17.48,147.09,27.12,46.29,85.96,86.81,150.61,80.19,11.15-1.14,21.92-3.73,32.02-7.75,10.09-4.02,19.26-9.36,27.27-15.84.9-.73,1.79-1.47,2.65-2.22h-15.85c-5.8,3.89-12.11,7.21-18.86,9.89-9.46,3.77-19.57,6.2-30.01,7.27-60.22,6.16-115.02-31.39-140.3-74.54-25.28-43.15-26.87-101.88,16.44-136.92,7.51-6.08,16.1-11.08,25.56-14.84,9.47-3.77,19.57-6.2,30.01-7.27,29.84-3.05,58.35,4.63,82.6,18.41,4.12-.61,8.24-1.17,12.34-1.68-27.85-18.24-61.88-29.05-97.72-25.39-11.14,1.14-21.91,3.74-32.01,7.76Z"/>
    </clipPath>
    <clipPath id="clippath-2">
      <path class="st98" d="M466.63,181.3c20.67-22.88,67.44-24.41,88.44.09-14.42-24.96-40.29-25.65-65.58-26.26-63.93-1.55-236.73,13.1-293.31-29.69,0,0,31.51-16.14,85.64-24.39,46.66-7.11,88.04,2.38,124.84,35.31l-42.37.55-111.67-.32h0l-24.78.21c103.01,24.63,192.38,3.06,288.25,14.06h-.03c26.61,2.73,53.67,11.21,66.17,17.66,0,0-18.9-36.24-163.89-34.69-36.33-30.1-72.07-47.67-139.83-41.24-22.33,2.11-70.88,9.17-108.65,22.54-44.66,3.77-74.56,13.82-68.99,61.65l8.63.19c20.68-22.88,67.45-24.41,88.44.09-6.67-24.34-26.98-34.53-44.71-38.84,50.77,2.86,54.44,43.38,81.91,42.97,73.14-1.23,160.86-2.47,234.07-3.7-.9,1.22-1.78,2.49-2.61,3.82Z"/>
    </clipPath>
    <clipPath id="clippath-3">
      <path class="st98" d="M361.94,111.89c-42.71-20.95-113.23-5.06-156.1,13.64l17.83,7.6h73.76l-71.77-3.41c-1.79-.89-8.65-3.54-9.77-4.33,12.86-4.91,87.44-33.56,146.04-13.5Z"/>
    </clipPath>
  </defs>
  <g>
    <path class="st64" d="M518.2,225.58h17.65c1.27,0,2.29,1.02,2.29,2.29v20.48c0,.37-.08.7-.25,1.06l-2.05,3.93c-.41.7-.37,1.52.04,2.21.45.7,1.15,1.1,1.97,1.1h15.89c.82,0,1.52-.41,1.97-1.1.41-.7.45-1.52.08-2.21l-2.09-3.93c-.16-.37-.25-.7-.25-1.06v-50.87c0-.37.08-.74.25-1.07l2.09-3.93c.37-.74.33-1.52-.08-2.25-.45-.7-1.15-1.07-1.97-1.07h-15.89c-.82,0-1.52.37-1.97,1.07-.41.74-.45,1.52-.04,2.25l2.05,3.93c.16.33.25.7.25,1.07v19.25c0,1.27-1.02,2.29-2.29,2.29h-17.65c-1.23,0-2.25-1.02-2.25-2.29v-19.25c0-.37.08-.74.25-1.07l2.05-3.93c.37-.74.37-1.52-.08-2.25-.41-.7-1.11-1.07-1.92-1.07h-16.02c-.82,0-1.52.37-1.93,1.07-.45.74-.45,1.52-.08,2.25l2.05,3.93c.16.33.25.7.25,1.07v50.87c0,.37-.08.7-.25,1.06l-2.05,3.93c-.37.7-.37,1.52.08,2.21.41.7,1.11,1.1,1.93,1.1h16.02c.82,0,1.52-.41,1.92-1.1.45-.7.45-1.52.08-2.21l-2.05-3.93c-.16-.37-.25-.7-.25-1.06v-20.48c0-1.27,1.02-2.29,2.25-2.29h0Z"/>
    <path class="st64" d="M590.21,189.17h-15.89c-.82,0-1.52.37-1.97,1.07-.41.74-.45,1.52-.08,2.25l2.09,3.93c.16.33.25.7.25,1.07v50.87c0,.37-.08.7-.25,1.06l-2.09,3.93c-.37.7-.33,1.52.08,2.21.45.7,1.15,1.1,1.97,1.1h15.89c.82,0,1.52-.41,1.97-1.1.41-.7.45-1.52.04-2.21l-2.05-3.93c-.16-.37-.25-.7-.25-1.06v-50.87c0-.37.08-.74.25-1.07l2.05-3.93c.41-.74.37-1.52-.04-2.25-.45-.7-1.15-1.07-1.97-1.07h0Z"/>
    <path class="st64" d="M313.4,198.44c2.62-1.52,6.8-2.74,10.49-2.74,7.86,0,12.04,4.71,12.04,10.08,0,8.6-11.96,15.07-20.97,16.71-.7.12-1.31-.04-1.84-.49-.53-.45-.82-1.02-.82-1.76v-19.82c0-.82.41-1.56,1.11-1.97h0ZM328.76,226.09c12.08-3.97,24.04-11.35,23.68-22.94-.21-7.58-6.55-14.01-18.39-14.01h-37.48c-.82,0-1.52.37-1.92,1.07-.45.74-.45,1.52-.08,2.25l2.05,3.93c.16.33.25.7.25,1.07v50.83c0,.41-.08.74-.25,1.07l-2.05,3.97c-.41.7-.37,1.52.04,2.21.45.7,1.15,1.1,1.97,1.1h16.01c.82,0,1.52-.41,1.93-1.1.45-.7.45-1.52.08-2.21l-2.05-3.97c-.16-.33-.25-.65-.25-1.02v-16.88c0-1.15.86-2.13,2.01-2.25.41-.04.86-.08,1.31-.17,1.15-.16,2.21.57,2.5,1.68,2.99,11.18,13.76,24.86,32.36,25.97.66.04,1.23-.16,1.72-.62.45-.45.7-1.02.7-1.64v-18.72c0-1.23-.98-2.25-2.25-2.29-8.11-.12-16.01-.9-21.91-3.03-.94-.33-1.52-1.19-1.52-2.17.04-.98.66-1.84,1.56-2.13h0Z"/>
    <path class="st64" d="M161.6,189.17h-22.04c-.66,0-1.27.25-1.72.78-.45.53-.62,1.15-.49,1.84.78,4.92,3.36,9.38,6.43,13.03,4.38,5.24,4.26,10.16,1.97,16.51l-6.43,16.75c-.33.9-1.15,1.48-2.09,1.48s-1.8-.57-2.13-1.48l-15.4-40.26c-.2-.61-.2-1.19.04-1.76l1.64-3.69c.33-.74.25-1.52-.2-2.17-.41-.65-1.11-1.02-1.89-1.02h-16.1c-.78,0-1.43.33-1.88.98-.41.61-.49,1.35-.25,2.09l23.88,62.95c.37.9,1.19,1.47,2.13,1.47h10.65c.98,0,1.8-.57,2.13-1.47l23.88-62.95c.25-.74.17-1.48-.25-2.09-.45-.66-1.1-.98-1.88-.98h0Z"/>
    <g>
      <path class="st64" d="M264.26,190.58c-.37-.9-1.19-1.47-2.13-1.47h-11.71c-.78,0-1.43.33-1.84.98-.45.62-.53,1.35-.29,2.09l.53,1.48c.2.53.2,1.11,0,1.64l-23.88,58.29c-.33.74-.25,1.52.2,2.13.45.66,1.11,1.02,1.88,1.02h21.99c.7,0,1.27-.28,1.72-.82.45-.49.61-1.15.53-1.84-.82-4.96-3.32-9.5-6.43-13.11-4.42-5.16-3.6-9.42-1.31-15.65l6.8-16.47c.37-.86,1.19-1.39,2.13-1.39s1.76.57,2.09,1.47l6.8,17.85h-16.77l3.89,4.8c.99,1.23,2.36,1.92,3.8,1.92h11.64l5.55,14.59c.25.57.2,1.19-.04,1.76l-1.68,3.69c-.33.7-.25,1.48.16,2.17.45.66,1.15,1.02,1.92,1.02h16.18c.74,0,1.43-.33,1.84-.98.45-.62.53-1.39.29-2.09l-23.88-63.08Z"/>
      <path class="st64" d="M398.4,190.58c-.37-.9-1.19-1.47-2.13-1.47h-11.71c-.78,0-1.43.33-1.84.98-.45.62-.53,1.35-.29,2.09l.53,1.48c.2.53.2,1.11,0,1.64l-23.88,58.29c-.33.74-.25,1.52.2,2.13.45.66,1.11,1.02,1.88,1.02h21.99c.7,0,1.27-.28,1.72-.82.45-.49.61-1.15.53-1.84-.82-4.96-3.32-9.5-6.43-13.11-4.42-5.16-3.6-9.42-1.31-15.65l6.8-16.47c.37-.86,1.19-1.39,2.13-1.39s1.76.57,2.09,1.47l6.8,17.85h-16.77l3.89,4.8c.99,1.23,2.36,1.92,3.8,1.92h11.64l5.55,14.59c.25.57.2,1.19-.04,1.76l-1.68,3.69c-.33.7-.25,1.48.16,2.17.45.66,1.15,1.02,1.92,1.02h16.18c.74,0,1.43-.33,1.84-.98.45-.62.53-1.39.29-2.09l-23.88-63.08Z"/>
      <path class="st64" d="M194.73,190.58c-.37-.9-1.19-1.47-2.13-1.47h-11.71c-.78,0-1.43.33-1.84.98-.45.62-.53,1.35-.29,2.09l.53,1.48c.2.53.2,1.11,0,1.64l-23.88,58.29c-.33.74-.25,1.52.2,2.13.45.66,1.11,1.02,1.88,1.02h21.99c.7,0,1.27-.28,1.72-.82.45-.49.61-1.15.53-1.84-.82-4.96-3.32-9.5-6.43-13.11-4.42-5.16-3.6-9.42-1.31-15.65l6.8-16.47c.37-.86,1.19-1.39,2.13-1.39s1.76.57,2.09,1.47l6.8,17.85h-16.77l3.89,4.8c.99,1.23,2.36,1.92,3.8,1.92h11.64l5.55,14.59c.25.57.2,1.19-.04,1.76l-1.68,3.69c-.33.7-.25,1.48.16,2.17.45.66,1.15,1.02,1.92,1.02h16.18c.74,0,1.43-.33,1.84-.98.45-.62.53-1.39.29-2.09l-23.88-63.08Z"/>
      <path class="st64" d="M467.94,190.58c-.37-.9-1.19-1.47-2.13-1.47h-11.71c-.78,0-1.43.33-1.84.98-.45.62-.53,1.35-.29,2.09l.53,1.48c.2.53.2,1.11,0,1.64l-23.88,58.29c-.33.74-.25,1.52.2,2.13.45.66,1.11,1.02,1.88,1.02h21.99c.7,0,1.27-.28,1.72-.82.45-.49.61-1.15.53-1.84-.82-4.96-3.32-9.5-6.43-13.11-4.42-5.16-3.6-9.42-1.31-15.65l6.8-16.47c.37-.86,1.19-1.39,2.13-1.39s1.76.57,2.09,1.47l6.8,17.85h-16.77l3.89,4.8c.99,1.23,2.36,1.92,3.8,1.92h11.64l5.55,14.59c.25.57.2,1.19-.04,1.76l-1.68,3.69c-.33.7-.25,1.48.16,2.17.45.66,1.15,1.02,1.92,1.02h16.18c.74,0,1.43-.33,1.84-.98.45-.62.53-1.39.29-2.09l-23.88-63.08Z"/>
    </g>
  </g>
  <g>
    <g>
      <g class="st165">
        <polygon class="st2" points="59.73 360.44 52.95 336.49 345.99 253.44 348.61 262.7 348.61 360.44 59.73 360.44"/>
        <rect class="st2" x="46.7" y="291.56" width="304.58" height="3.47" transform="translate(-72.42 65.36) rotate(-15.82)"/>
        <rect class="st144" x="45.75" y="288.22" width="304.58" height="3.47" transform="translate(-71.57 65) rotate(-15.83)"/>
        <rect class="st127" x="44.81" y="284.87" width="304.58" height="3.47" transform="translate(-70.7 64.62) rotate(-15.83)"/>
        <rect class="st135" x="43.86" y="281.53" width="304.58" height="3.47" transform="translate(-69.8 64.21) rotate(-15.82)"/>
        <rect class="st55" x="42.91" y="278.19" width="304.58" height="3.47" transform="translate(-68.94 63.85) rotate(-15.83)"/>
        <rect class="st30" x="41.96" y="274.85" width="304.58" height="3.47" transform="translate(-68.06 63.46) rotate(-15.83)"/>
        <rect class="st81" x="41.02" y="271.51" width="304.58" height="3.47" transform="translate(-67.17 63.05) rotate(-15.82)"/>
        <rect class="st92" x="40.07" y="268.16" width="304.58" height="3.47" transform="translate(-66.32 62.7) rotate(-15.83)"/>
        <rect class="st145" x="39.12" y="264.82" width="304.58" height="3.47" transform="translate(-65.44 62.3) rotate(-15.83)"/>
        <rect class="st36" x="38.18" y="261.48" width="304.58" height="3.47" transform="translate(-64.55 61.9) rotate(-15.82)"/>
        <rect class="st131" x="37.23" y="258.14" width="304.58" height="3.47" transform="translate(-63.69 61.53) rotate(-15.83)"/>
        <rect class="st11" x="36.28" y="254.8" width="304.58" height="3.47" transform="translate(-62.81 61.15) rotate(-15.83)"/>
        <rect class="st142" x="35.33" y="251.45" width="304.58" height="3.47" transform="translate(-61.92 60.75) rotate(-15.82)"/>
        <rect class="st119" x="34.39" y="248.11" width="304.58" height="3.47" transform="translate(-61.06 60.38) rotate(-15.83)"/>
        <rect class="st86" x="33.44" y="244.77" width="304.58" height="3.47" transform="translate(-60.19 60) rotate(-15.83)"/>
        <rect class="st159" x="32.49" y="241.43" width="304.58" height="3.47" transform="translate(-59.29 59.59) rotate(-15.82)"/>
        <rect class="st37" x="31.55" y="238.09" width="304.58" height="3.47" transform="translate(-58.43 59.22) rotate(-15.83)"/>
        <rect class="st120" x="30.6" y="234.74" width="304.58" height="3.47" transform="translate(-57.56 58.84) rotate(-15.83)"/>
        <rect class="st95" x="29.65" y="231.4" width="304.58" height="3.47" transform="translate(-56.67 58.43) rotate(-15.82)"/>
        <rect class="st91" x="28.7" y="228.06" width="304.58" height="3.47" transform="translate(-55.81 58.07) rotate(-15.83)"/>
        <rect class="st97" x="27.76" y="224.72" width="304.58" height="3.47" transform="translate(-54.93 57.68) rotate(-15.83)"/>
        <rect class="st167" x="26.81" y="221.38" width="304.58" height="3.47" transform="translate(-54.04 57.28) rotate(-15.82)"/>
        <rect class="st50" x="25.86" y="218.03" width="304.58" height="3.47" transform="translate(-53.18 56.92) rotate(-15.83)"/>
        <rect class="st3" x="24.91" y="214.69" width="304.58" height="3.47" transform="translate(-52.31 56.53) rotate(-15.83)"/>
        <rect class="st162" x="23.97" y="211.35" width="304.58" height="3.47" transform="translate(-51.42 56.13) rotate(-15.82)"/>
        <rect class="st111" x="23.02" y="208.01" width="304.58" height="3.47" transform="translate(-50.55 55.76) rotate(-15.83)"/>
        <rect class="st96" x="22.07" y="204.67" width="304.58" height="3.47" transform="translate(-49.68 55.37) rotate(-15.83)"/>
        <rect class="st163" x="21.13" y="201.33" width="304.58" height="3.47" transform="translate(-48.79 54.98) rotate(-15.82)"/>
        <rect class="st62" x="20.18" y="197.98" width="304.58" height="3.47" transform="translate(-47.93 54.6) rotate(-15.83)"/>
        <rect class="st106" x="19.23" y="194.64" width="304.58" height="3.47" transform="translate(-47.06 54.22) rotate(-15.83)"/>
        <rect class="st85" x="18.28" y="191.3" width="304.58" height="3.47" transform="translate(-46.17 53.82) rotate(-15.82)"/>
        <rect class="st54" x="17.34" y="187.96" width="304.58" height="3.47" transform="translate(-45.3 53.45) rotate(-15.83)"/>
        <rect class="st16" x="16.39" y="184.62" width="304.58" height="3.47" transform="translate(-44.43 53.07) rotate(-15.83)"/>
        <rect class="st68" x="15.44" y="181.27" width="304.58" height="3.47" transform="translate(-43.54 52.66) rotate(-15.82)"/>
        <rect class="st15" x="14.5" y="177.93" width="304.58" height="3.47" transform="translate(-42.68 52.29) rotate(-15.83)"/>
        <rect class="st33" x="13.55" y="174.59" width="304.58" height="3.47" transform="translate(-41.8 51.91) rotate(-15.83)"/>
        <rect class="st168" x="12.6" y="171.25" width="304.58" height="3.47" transform="translate(-40.91 51.51) rotate(-15.82)"/>
        <rect class="st121" x="11.65" y="167.91" width="304.58" height="3.47" transform="translate(-40.05 51.14) rotate(-15.83)"/>
        <rect class="st40" x="10.71" y="164.56" width="304.58" height="3.47" transform="translate(-39.17 50.75) rotate(-15.83)"/>
        <rect class="st26" x="9.76" y="161.22" width="304.58" height="3.47" transform="translate(-38.29 50.35) rotate(-15.82)"/>
        <rect class="st52" x="8.81" y="157.88" width="304.58" height="3.47" transform="translate(-37.42 49.99) rotate(-15.83)"/>
        <rect class="st109" x="7.86" y="154.54" width="304.58" height="3.47" transform="translate(-36.55 49.6) rotate(-15.83)"/>
        <rect class="st71" x="6.92" y="151.2" width="304.58" height="3.47" transform="translate(-35.66 49.2) rotate(-15.82)"/>
        <polygon class="st77" points="12.22 192.79 12.2 192.74 12.2 189.18 304.31 106.39 305.26 109.73 12.22 192.79"/>
        <polygon class="st155" points="12.2 185.57 303.36 103.05 304.31 106.39 12.2 189.18 12.2 185.57"/>
        <polygon class="st126" points="12.2 181.96 302.41 99.71 303.36 103.05 12.2 185.57 12.2 181.96"/>
        <polygon class="st130" points="12.2 178.35 301.47 96.36 302.41 99.71 12.2 181.96 12.2 178.35"/>
        <polygon class="st137" points="12.2 174.74 300.52 93.02 301.47 96.36 12.2 178.35 12.2 174.74"/>
        <polygon class="st17" points="12.2 171.13 299.57 89.68 300.52 93.02 12.2 174.74 12.2 171.13"/>
        <polygon class="st105" points="12.2 167.52 298.63 86.34 299.57 89.68 12.2 171.13 12.2 167.52"/>
        <polygon class="st60" points="12.2 163.91 297.68 83 298.63 86.34 12.2 167.52 12.2 163.91"/>
        <polygon class="st87" points="12.2 160.3 296.73 79.65 297.68 83 12.2 163.91 12.2 160.3"/>
        <polygon class="st22" points="12.2 156.69 295.78 76.31 296.73 79.65 12.2 160.3 12.2 156.69"/>
        <polygon class="st140" points="12.2 153.08 294.84 72.97 295.78 76.31 12.2 156.69 12.2 153.08"/>
        <polygon class="st134" points="12.2 149.47 293.89 69.63 294.84 72.97 12.2 153.08 12.2 149.47"/>
        <polygon class="st154" points="12.2 145.86 292.94 66.29 293.89 69.63 12.2 149.47 12.2 145.86"/>
        <polygon class="st64" points="12.2 142.25 292 62.94 292.94 66.29 12.2 145.86 12.2 142.25"/>
        <polygon class="st58" points="12.2 138.64 291.05 59.6 292 62.94 12.2 142.25 12.2 138.64"/>
        <polygon class="st21" points="12.2 135.03 290.1 56.26 291.05 59.6 12.2 138.64 12.2 135.03"/>
        <polygon class="st48" points="12.2 131.42 289.15 52.92 290.1 56.26 12.2 135.03 12.2 131.42"/>
        <polygon class="st47" points="12.2 127.81 288.21 49.58 289.15 52.92 12.2 131.42 12.2 127.81"/>
        <polygon class="st102" points="12.2 124.2 287.26 46.24 288.21 49.58 12.2 127.81 12.2 124.2"/>
        <polygon class="st138" points="12.2 120.58 286.31 42.89 287.26 46.24 12.2 124.2 12.2 120.58"/>
        <polygon class="st57" points="12.2 116.97 285.36 39.55 286.31 42.89 12.2 120.58 12.2 116.97"/>
        <polygon class="st122" points="12.2 113.36 284.42 36.21 285.36 39.55 12.2 116.97 12.2 113.36"/>
        <polygon class="st83" points="12.2 109.75 283.47 32.87 284.42 36.21 12.2 113.36 12.2 109.75"/>
        <polygon class="st35" points="12.2 106.14 282.52 29.53 283.47 32.87 12.2 109.75 12.2 106.14"/>
        <polygon class="st74" points="12.2 102.53 281.58 26.18 282.52 29.53 12.2 106.14 12.2 102.53"/>
        <polygon class="st6" points="12.2 98.92 280.63 22.84 281.58 26.18 12.2 102.53 12.2 98.92"/>
        <polygon class="st73" points="12.2 95.31 279.68 19.5 280.63 22.84 12.2 98.92 12.2 95.31"/>
        <polygon class="st56" points="12.2 91.7 273.48 17.65 279.16 17.65 279.68 19.5 12.2 95.31 12.2 91.7"/>
        <polygon class="st125" points="12.2 88.09 260.75 17.65 273.48 17.65 12.2 91.7 12.2 88.09"/>
        <polygon class="st18" points="12.2 84.48 248.01 17.65 260.75 17.65 12.2 88.09 12.2 84.48"/>
        <polygon class="st94" points="12.2 80.87 235.27 17.65 248.01 17.65 12.2 84.48 12.2 80.87"/>
        <polygon class="st45" points="12.2 77.26 222.53 17.65 235.27 17.65 12.2 80.87 12.2 77.26"/>
        <polygon class="st29" points="12.2 73.65 209.79 17.65 222.53 17.65 12.2 77.26 12.2 73.65"/>
        <polygon class="st70" points="12.2 70.04 197.05 17.65 209.79 17.65 12.2 73.65 12.2 70.04"/>
        <polygon class="st4" points="12.2 66.43 184.32 17.65 197.05 17.65 12.2 70.04 12.2 66.43"/>
        <polygon class="st146" points="12.2 62.82 171.58 17.65 184.32 17.65 12.2 66.43 12.2 62.82"/>
        <polygon class="st147" points="12.2 59.21 158.84 17.65 171.58 17.65 12.2 62.82 12.2 59.21"/>
        <polygon class="st143" points="12.2 55.6 146.1 17.65 158.84 17.65 12.2 59.21 12.2 55.6"/>
        <polygon class="st169" points="12.2 51.99 133.36 17.65 146.1 17.65 12.2 55.6 12.2 51.99"/>
        <polygon class="st23" points="12.2 48.38 120.62 17.65 133.36 17.65 12.2 51.99 12.2 48.38"/>
        <polygon class="st0" points="12.2 44.77 107.89 17.65 120.62 17.65 12.2 48.38 12.2 44.77"/>
        <polygon class="st115" points="12.2 41.15 95.15 17.65 107.89 17.65 12.2 44.77 12.2 41.15"/>
        <polygon class="st150" points="12.2 37.54 82.41 17.65 95.15 17.65 12.2 41.15 12.2 37.54"/>
        <polygon class="st107" points="12.2 33.93 69.67 17.65 82.41 17.65 12.2 37.54 12.2 33.93"/>
        <polygon class="st100" points="12.2 30.32 56.93 17.65 69.67 17.65 12.2 33.93 12.2 30.32"/>
        <polygon class="st31" points="12.2 26.71 44.19 17.65 56.93 17.65 12.2 30.32 12.2 26.71"/>
        <polygon class="st84" points="12.2 23.1 31.45 17.65 44.19 17.65 12.2 26.71 12.2 23.1"/>
        <polygon class="st67" points="12.2 19.49 18.72 17.65 31.45 17.65 12.2 23.1 12.2 19.49"/>
        <polygon class="st170" points="18.72 17.65 12.2 19.49 12.2 17.65 18.72 17.65"/>
      </g>
      <g class="st65">
        <polygon class="st160" points="54.1 119.72 206.73 316.15 54.1 316.15 54.1 119.72"/>
        <polygon class="st160" points="54.1 117.93 208.12 316.15 206.73 316.15 54.1 119.72 54.1 117.93"/>
        <polygon class="st24" points="54.1 116.15 209.51 316.15 208.12 316.15 54.1 117.93 54.1 116.15"/>
        <polygon class="st157" points="54.1 114.36 210.89 316.15 209.51 316.15 54.1 116.15 54.1 114.36"/>
        <polygon class="st78" points="54.1 112.58 212.28 316.15 210.89 316.15 54.1 114.36 54.1 112.58"/>
        <polygon class="st66" points="54.1 110.79 213.67 316.15 212.28 316.15 54.1 112.58 54.1 110.79"/>
        <polygon class="st89" points="54.1 110.19 54.68 109.74 215.06 316.15 213.67 316.15 54.1 110.79 54.1 110.19"/>
        <polygon class="st13" points="54.68 109.74 55.54 109.07 216.45 316.15 215.06 316.15 54.68 109.74"/>
        <polygon class="st118" points="55.54 109.07 56.41 108.4 217.83 316.15 216.45 316.15 55.54 109.07"/>
        <polygon class="st114" points="56.41 108.4 57.27 107.73 219.22 316.15 217.83 316.15 56.41 108.4"/>
        <polygon class="st171" points="57.27 107.73 58.14 107.05 220.61 316.15 219.22 316.15 57.27 107.73"/>
        <polygon class="st103" points="58.14 107.05 59 106.38 222 316.15 220.61 316.15 58.14 107.05"/>
        <polygon class="st116" points="59 106.38 59.87 105.71 223.39 316.15 222 316.15 59 106.38"/>
        <polygon class="st14" points="59.87 105.71 60.73 105.04 224.78 316.15 223.39 316.15 59.87 105.71"/>
        <polygon class="st28" points="60.73 105.04 61.6 104.36 226.16 316.15 224.78 316.15 60.73 105.04"/>
        <polygon class="st156" points="61.6 104.36 62.47 103.69 227.55 316.15 226.16 316.15 61.6 104.36"/>
        <polygon class="st25" points="62.47 103.69 63.33 103.02 228.94 316.15 227.55 316.15 62.47 103.69"/>
        <polygon class="st139" points="63.33 103.02 64.2 102.35 230.33 316.15 228.94 316.15 63.33 103.02"/>
        <polygon class="st108" points="64.2 102.35 65.06 101.67 231.72 316.15 230.33 316.15 64.2 102.35"/>
        <polygon class="st166" points="65.06 101.67 65.93 101 233.1 316.15 231.72 316.15 65.06 101.67"/>
        <polygon class="st149" points="65.93 101 66.79 100.33 234.49 316.15 233.1 316.15 65.93 101"/>
        <polygon class="st79" points="66.79 100.33 67.66 99.66 235.88 316.15 234.49 316.15 66.79 100.33"/>
        <polygon class="st76" points="67.66 99.66 68.52 98.98 237.27 316.15 235.88 316.15 67.66 99.66"/>
        <polygon class="st5" points="68.52 98.98 69.39 98.31 238.66 316.15 237.27 316.15 68.52 98.98"/>
        <polygon class="st41" points="69.39 98.31 70.25 97.64 240.04 316.15 238.66 316.15 69.39 98.31"/>
        <polygon class="st59" points="70.25 97.64 71.12 96.97 241.43 316.15 240.04 316.15 70.25 97.64"/>
        <polygon class="st69" points="71.12 96.97 71.99 96.29 242.82 316.15 241.43 316.15 71.12 96.97"/>
        <polygon class="st51" points="71.99 96.29 72.85 95.62 244.21 316.15 242.82 316.15 71.99 96.29"/>
        <polygon class="st101" points="72.85 95.62 73.72 94.95 245.59 316.15 244.21 316.15 72.85 95.62"/>
        <polygon class="st34" points="73.72 94.95 74.58 94.28 246.98 316.15 245.59 316.15 73.72 94.95"/>
        <polygon class="st164" points="74.58 94.28 75.45 93.6 248.37 316.15 246.98 316.15 74.58 94.28"/>
        <polygon class="st63" points="75.45 93.6 76.31 92.93 249.76 316.15 248.37 316.15 75.45 93.6"/>
        <polygon class="st44" points="76.31 92.93 77.18 92.26 251.15 316.15 249.76 316.15 76.31 92.93"/>
        <polygon class="st99" points="77.18 92.26 78.04 91.59 252.53 316.15 251.15 316.15 77.18 92.26"/>
        <polygon class="st104" points="78.04 91.59 78.91 90.91 253.92 316.15 252.53 316.15 78.04 91.59"/>
        <polygon class="st42" points="78.91 90.91 79.77 90.24 255.31 316.15 253.92 316.15 78.91 90.91"/>
        <polygon class="st49" points="79.77 90.24 80.64 89.57 256.7 316.15 255.31 316.15 79.77 90.24"/>
        <polygon class="st153" points="80.64 89.57 81.51 88.9 258.09 316.15 256.7 316.15 80.64 89.57"/>
        <polygon class="st148" points="81.51 88.9 82.37 88.22 259.47 316.15 258.09 316.15 81.51 88.9"/>
        <polygon class="st80" points="82.37 88.22 83.24 87.55 260.86 316.15 259.47 316.15 82.37 88.22"/>
        <polygon class="st128" points="83.24 87.55 84.1 86.88 262.25 316.15 260.86 316.15 83.24 87.55"/>
        <polygon class="st133" points="84.1 86.88 84.97 86.21 263.64 316.15 262.25 316.15 84.1 86.88"/>
        <polygon class="st151" points="84.97 86.21 85.83 85.53 264.89 315.98 264.67 316.15 263.64 316.15 84.97 86.21"/>
        <rect class="st12" x="175.25" y="54.5" width="1.1" height="291.84" transform="translate(-85.98 149.98) rotate(-37.84)"/>
        <rect class="st161" x="176.11" y="53.83" width="1.1" height="291.84" transform="translate(-85.4 150.43) rotate(-37.85)"/>
        <rect class="st9" x="176.98" y="53.16" width="1.1" height="291.84" transform="translate(-84.8 150.81) rotate(-37.85)"/>
        <rect class="st124" x="177.84" y="52.49" width="1.1" height="291.84" transform="translate(-84.2 151.15) rotate(-37.84)"/>
        <rect class="st75" x="178.71" y="51.81" width="1.1" height="291.84" transform="translate(-83.62 151.65) rotate(-37.86)"/>
        <rect class="st27" x="179.58" y="51.14" width="1.1" height="291.84" transform="translate(-83.01 151.93) rotate(-37.84)"/>
        <rect class="st112" x="180.44" y="50.47" width="1.1" height="291.84" transform="translate(-82.43 152.38) rotate(-37.85)"/>
        <rect class="st117" x="181.31" y="49.79" width="1.1" height="291.84" transform="translate(-81.83 152.76) rotate(-37.85)"/>
        <rect class="st158" x="182.17" y="49.12" width="1.1" height="291.84" transform="translate(-81.23 153.1) rotate(-37.84)"/>
        <rect class="st38" x="183.04" y="48.45" width="1.1" height="291.84" transform="translate(-80.64 153.55) rotate(-37.85)"/>
        <rect class="st82" x="183.9" y="47.78" width="1.1" height="291.84" transform="translate(-80.05 153.92) rotate(-37.85)"/>
        <rect class="st32" x="184.77" y="47.11" width="1.1" height="291.84" transform="translate(-79.44 154.27) rotate(-37.84)"/>
        <rect class="st1" x="185.63" y="46.43" width="1.1" height="291.84" transform="translate(-78.86 154.76) rotate(-37.86)"/>
        <rect class="st46" x="186.5" y="45.76" width="1.1" height="291.84" transform="translate(-78.25 155.05) rotate(-37.84)"/>
        <rect class="st39" x="187.36" y="45.09" width="1.1" height="291.84" transform="translate(-77.67 155.5) rotate(-37.85)"/>
        <rect class="st113" x="188.23" y="44.42" width="1.1" height="291.84" transform="translate(-77.07 155.87) rotate(-37.85)"/>
        <rect class="st43" x="189.1" y="43.74" width="1.1" height="291.84" transform="translate(-76.47 156.21) rotate(-37.84)"/>
        <rect class="st110" x="189.96" y="43.07" width="1.1" height="291.84" transform="translate(-75.89 156.71) rotate(-37.86)"/>
        <rect class="st8" x="190.83" y="42.4" width="1.1" height="291.84" transform="translate(-75.28 156.99) rotate(-37.84)"/>
        <rect class="st93" x="191.69" y="41.73" width="1.1" height="291.84" transform="translate(-74.69 157.38) rotate(-37.84)"/>
        <rect class="st19" x="192.56" y="41.05" width="1.1" height="291.84" transform="translate(-74.11 157.88) rotate(-37.86)"/>
        <rect class="st136" x="193.42" y="40.38" width="1.1" height="291.84" transform="translate(-73.5 158.16) rotate(-37.84)"/>
        <rect class="st132" x="194.29" y="39.71" width="1.1" height="291.84" transform="translate(-72.91 158.61) rotate(-37.85)"/>
        <rect class="st123" x="195.15" y="39.04" width="1.1" height="291.84" transform="translate(-72.31 158.99) rotate(-37.85)"/>
        <rect class="st10" x="196.02" y="38.36" width="1.1" height="291.84" transform="translate(-71.72 159.33) rotate(-37.84)"/>
        <rect class="st61" x="196.88" y="37.69" width="1.1" height="291.84" transform="translate(-71.13 159.83) rotate(-37.86)"/>
        <rect class="st152" x="197.75" y="37.02" width="1.1" height="291.84" transform="translate(-70.53 160.11) rotate(-37.84)"/>
        <rect class="st20" x="198.62" y="36.35" width="1.1" height="291.84" transform="translate(-69.93 160.5) rotate(-37.84)"/>
        <rect class="st53" x="199.48" y="35.67" width="1.1" height="291.84" transform="translate(-69.35 161) rotate(-37.86)"/>
        <rect class="st88" x="200.35" y="35" width="1.1" height="291.84" transform="translate(-68.74 161.28) rotate(-37.84)"/>
        <rect class="st7" x="201.21" y="34.33" width="1.1" height="291.84" transform="translate(-68.15 161.67) rotate(-37.84)"/>
        <rect class="st72" x="202.08" y="33.66" width="1.1" height="291.84" transform="translate(-67.56 162.17) rotate(-37.86)"/>
        <polygon class="st72" points="113.53 64.01 125.15 54.98 295.67 54.98 295.67 292.07 292.59 294.46 113.53 64.01"/>
      </g>
    </g>
    <g>
      <g class="st141">
        <polygon class="st167" points="95.31 181.41 101.05 181.58 95.31 181.58 95.31 181.41"/>
        <polygon class="st50" points="95.31 180.6 127.49 181.58 101.05 181.58 95.31 181.41 95.31 180.6"/>
        <polygon class="st3" points="95.31 179.79 153.93 181.58 127.49 181.58 95.31 180.6 95.31 179.79"/>
        <polygon class="st162" points="95.31 178.98 180.37 181.58 153.93 181.58 95.31 179.79 95.31 178.98"/>
        <polygon class="st111" points="95.31 178.17 206.81 181.58 180.37 181.58 95.31 178.98 95.31 178.17"/>
        <polygon class="st96" points="95.31 177.36 233.25 181.58 206.81 181.58 95.31 178.17 95.31 177.36"/>
        <polygon class="st163" points="95.31 176.55 259.69 181.58 233.25 181.58 95.31 177.36 95.31 176.55"/>
        <polygon class="st62" points="95.31 175.74 286.13 181.58 259.69 181.58 95.31 176.55 95.31 175.74"/>
        <polygon class="st106" points="95.31 174.93 312.57 181.58 286.13 181.58 95.31 175.74 95.31 174.93"/>
        <polygon class="st85" points="95.31 174.12 339.01 181.58 312.57 181.58 95.31 174.93 95.31 174.12"/>
        <polygon class="st54" points="95.31 173.31 365.45 181.58 339.01 181.58 95.31 174.12 95.31 173.31"/>
        <polygon class="st16" points="95.31 172.5 391.89 181.58 365.45 181.58 95.31 173.31 95.31 172.5"/>
        <polygon class="st68" points="95.31 171.69 418.33 181.58 391.89 181.58 95.31 172.5 95.31 171.69"/>
        <polygon class="st15" points="95.31 170.88 444.77 181.58 418.33 181.58 95.31 171.69 95.31 170.88"/>
        <polygon class="st33" points="95.31 170.07 471.21 181.58 444.77 181.58 95.31 170.88 95.31 170.07"/>
        <polygon class="st168" points="95.31 169.26 497.64 181.58 471.21 181.58 95.31 170.07 95.31 169.26"/>
        <polygon class="st121" points="95.31 168.45 524.08 181.58 497.64 181.58 95.31 169.26 95.31 168.45"/>
        <polygon class="st40" points="95.31 167.64 550.52 181.58 524.08 181.58 95.31 168.45 95.31 167.64"/>
        <polygon class="st26" points="95.31 166.83 576.96 181.58 550.52 181.58 95.31 167.64 95.31 166.83"/>
        <polygon class="st52" points="95.31 166.02 582.25 180.94 582.25 181.58 576.96 181.58 95.31 166.83 95.31 166.02"/>
        <polygon class="st109" points="95.31 165.21 582.25 180.13 582.25 180.94 95.31 166.02 95.31 165.21"/>
        <polygon class="st71" points="95.31 164.4 582.25 179.32 582.25 180.13 95.31 165.21 95.31 164.4"/>
        <polygon class="st77" points="95.31 163.59 582.25 178.51 582.25 179.32 95.31 164.4 95.31 163.59"/>
        <polygon class="st155" points="95.31 162.78 582.25 177.7 582.25 178.51 95.31 163.59 95.31 162.78"/>
        <polygon class="st126" points="95.31 161.97 582.25 176.89 582.25 177.7 95.31 162.78 95.31 161.97"/>
        <polygon class="st130" points="95.31 161.16 582.25 176.08 582.25 176.89 95.31 161.97 95.31 161.16"/>
        <polygon class="st137" points="95.31 160.35 582.25 175.27 582.25 176.08 95.31 161.16 95.31 160.35"/>
        <polygon class="st17" points="95.31 159.54 582.25 174.46 582.25 175.27 95.31 160.35 95.31 159.54"/>
        <polygon class="st105" points="95.31 158.73 582.25 173.65 582.25 174.46 95.31 159.54 95.31 158.73"/>
        <polygon class="st60" points="95.31 157.92 582.25 172.84 582.25 173.65 95.31 158.73 95.31 157.92"/>
        <polygon class="st87" points="95.31 157.11 582.25 172.03 582.25 172.84 95.31 157.92 95.31 157.11"/>
        <polygon class="st22" points="95.31 156.3 582.25 171.22 582.25 172.03 95.31 157.11 95.31 156.3"/>
        <polygon class="st140" points="95.31 155.49 582.25 170.41 582.25 171.22 95.31 156.3 95.31 155.49"/>
        <polygon class="st134" points="95.31 154.68 582.25 169.6 582.25 170.41 95.31 155.49 95.31 154.68"/>
        <polygon class="st154" points="95.31 153.87 582.25 168.79 582.25 169.6 95.31 154.68 95.31 153.87"/>
        <polygon class="st64" points="95.31 153.06 582.25 167.98 582.25 168.79 95.31 153.87 95.31 153.06"/>
        <polygon class="st58" points="95.31 152.25 582.25 167.17 582.25 167.98 95.31 153.06 95.31 152.25"/>
        <polygon class="st21" points="95.31 151.44 582.25 166.36 582.25 167.17 95.31 152.25 95.31 151.44"/>
        <polygon class="st48" points="95.31 150.63 582.25 165.55 582.25 166.36 95.31 151.44 95.31 150.63"/>
        <polygon class="st47" points="95.31 149.82 582.25 164.74 582.25 165.55 95.31 150.63 95.31 149.82"/>
        <polygon class="st102" points="95.31 149.01 582.25 163.93 582.25 164.74 95.31 149.82 95.31 149.01"/>
        <polygon class="st138" points="95.31 148.2 582.25 163.12 582.25 163.93 95.31 149.01 95.31 148.2"/>
        <polygon class="st57" points="95.31 147.39 582.25 162.31 582.25 163.12 95.31 148.2 95.31 147.39"/>
        <polygon class="st122" points="95.31 146.58 582.25 161.5 582.25 162.31 95.31 147.39 95.31 146.58"/>
        <polygon class="st83" points="95.31 145.77 582.25 160.69 582.25 161.5 95.31 146.58 95.31 145.77"/>
        <polygon class="st35" points="95.31 144.96 582.25 159.88 582.25 160.69 95.31 145.77 95.31 144.96"/>
        <polygon class="st74" points="95.31 144.15 582.25 159.07 582.25 159.88 95.31 144.96 95.31 144.15"/>
        <polygon class="st6" points="95.31 143.34 582.25 158.26 582.25 159.07 95.31 144.15 95.31 143.34"/>
        <polygon class="st73" points="95.31 142.53 582.25 157.45 582.25 158.26 95.31 143.34 95.31 142.53"/>
        <polygon class="st56" points="95.31 141.72 582.25 156.64 582.25 157.45 95.31 142.53 95.31 141.72"/>
        <polygon class="st125" points="95.31 140.91 582.25 155.83 582.25 156.64 95.31 141.72 95.31 140.91"/>
        <polygon class="st18" points="95.31 140.1 582.25 155.02 582.25 155.83 95.31 140.91 95.31 140.1"/>
        <polygon class="st94" points="95.31 139.29 582.25 154.21 582.25 155.02 95.31 140.1 95.31 139.29"/>
        <polygon class="st45" points="95.31 138.48 582.25 153.4 582.25 154.21 95.31 139.29 95.31 138.48"/>
        <polygon class="st29" points="95.31 137.67 582.25 152.59 582.25 153.4 95.31 138.48 95.31 137.67"/>
        <polygon class="st70" points="95.31 136.87 582.25 151.78 582.25 152.59 95.31 137.67 95.31 136.87"/>
        <polygon class="st4" points="95.31 136.06 582.25 150.97 582.25 151.78 95.31 136.87 95.31 136.06"/>
        <polygon class="st146" points="95.31 135.25 582.25 150.16 582.25 150.97 95.31 136.06 95.31 135.25"/>
        <polygon class="st147" points="95.31 134.44 582.25 149.35 582.25 150.16 95.31 135.25 95.31 134.44"/>
        <polygon class="st143" points="95.31 133.63 582.25 148.54 582.25 149.35 95.31 134.44 95.31 133.63"/>
        <polygon class="st169" points="95.31 132.82 582.25 147.73 582.25 148.54 95.31 133.63 95.31 132.82"/>
        <polygon class="st23" points="95.31 132.01 582.25 146.92 582.25 147.73 95.31 132.82 95.31 132.01"/>
        <polygon class="st0" points="95.31 131.2 582.25 146.11 582.25 146.92 95.31 132.01 95.31 131.2"/>
        <polygon class="st115" points="95.31 130.39 582.25 145.3 582.25 146.11 95.31 131.2 95.31 130.39"/>
        <polygon class="st150" points="95.31 129.58 582.25 144.49 582.25 145.3 95.31 130.39 95.31 129.58"/>
        <polygon class="st107" points="95.31 128.77 582.25 143.68 582.25 144.49 95.31 129.58 95.31 128.77"/>
        <polygon class="st100" points="95.31 127.96 582.25 142.87 582.25 143.68 95.31 128.77 95.31 127.96"/>
        <polygon class="st31" points="95.31 127.15 582.25 142.06 582.25 142.87 95.31 127.96 95.31 127.15"/>
        <polygon class="st84" points="95.31 126.34 582.25 141.25 582.25 142.06 95.31 127.15 95.31 126.34"/>
        <polygon class="st67" points="95.31 125.53 582.25 140.44 582.25 141.25 95.31 126.34 95.31 125.53"/>
        <polygon class="st170" points="95.31 124.72 582.25 139.63 582.25 140.44 95.31 125.53 95.31 124.72"/>
        <polygon class="st129" points="95.31 123.91 582.25 138.82 582.25 139.63 95.31 124.72 95.31 123.91"/>
        <polygon class="st129" points="582.25 138.82 95.31 123.91 95.31 86.16 582.25 86.16 582.25 138.82"/>
      </g>
      <g class="st90">
        <polygon class="st160" points="205.84 117.72 271.12 133.13 205.84 133.13 205.84 117.72"/>
        <polygon class="st160" points="205.84 117.45 272.26 133.13 271.12 133.13 205.84 117.72 205.84 117.45"/>
        <polygon class="st24" points="205.84 117.18 273.4 133.13 272.26 133.13 205.84 117.45 205.84 117.18"/>
        <polygon class="st157" points="205.84 116.91 274.54 133.13 273.4 133.13 205.84 117.18 205.84 116.91"/>
        <polygon class="st78" points="205.84 116.64 275.68 133.13 274.54 133.13 205.84 116.91 205.84 116.64"/>
        <polygon class="st66" points="205.84 116.38 276.82 133.13 275.68 133.13 205.84 116.64 205.84 116.38"/>
        <polygon class="st89" points="205.84 116.11 277.96 133.13 276.82 133.13 205.84 116.38 205.84 116.11"/>
        <polygon class="st13" points="205.84 115.84 279.1 133.13 277.96 133.13 205.84 116.11 205.84 115.84"/>
        <polygon class="st118" points="205.84 115.57 280.24 133.13 279.1 133.13 205.84 115.84 205.84 115.57"/>
        <polygon class="st114" points="205.84 115.3 281.38 133.13 280.24 133.13 205.84 115.57 205.84 115.3"/>
        <polygon class="st171" points="205.84 115.03 282.52 133.13 281.38 133.13 205.84 115.3 205.84 115.03"/>
        <polygon class="st103" points="205.84 114.76 283.66 133.13 282.52 133.13 205.84 115.03 205.84 114.76"/>
        <polygon class="st116" points="205.84 114.49 284.8 133.13 283.66 133.13 205.84 114.76 205.84 114.49"/>
        <polygon class="st14" points="205.84 114.22 285.94 133.13 284.8 133.13 205.84 114.49 205.84 114.22"/>
        <polygon class="st28" points="205.84 113.95 287.08 133.13 285.94 133.13 205.84 114.22 205.84 113.95"/>
        <polygon class="st156" points="205.84 113.68 288.22 133.13 287.08 133.13 205.84 113.95 205.84 113.68"/>
        <polygon class="st25" points="205.84 113.42 289.36 133.13 288.22 133.13 205.84 113.68 205.84 113.42"/>
        <polygon class="st139" points="205.84 113.15 290.5 133.13 289.36 133.13 205.84 113.42 205.84 113.15"/>
        <polygon class="st108" points="205.84 112.88 291.64 133.13 290.5 133.13 205.84 113.15 205.84 112.88"/>
        <polygon class="st166" points="205.84 112.61 292.78 133.13 291.64 133.13 205.84 112.88 205.84 112.61"/>
        <polygon class="st149" points="205.84 112.34 293.92 133.13 292.78 133.13 205.84 112.61 205.84 112.34"/>
        <polygon class="st79" points="205.84 112.07 295.06 133.13 293.92 133.13 205.84 112.34 205.84 112.07"/>
        <polygon class="st76" points="205.84 111.8 296.2 133.13 295.06 133.13 205.84 112.07 205.84 111.8"/>
        <polygon class="st5" points="205.84 111.53 297.34 133.13 296.2 133.13 205.84 111.8 205.84 111.53"/>
        <polygon class="st41" points="205.84 111.26 298.48 133.13 297.34 133.13 205.84 111.53 205.84 111.26"/>
        <polygon class="st59" points="205.84 110.99 299.62 133.13 298.48 133.13 205.84 111.26 205.84 110.99"/>
        <polygon class="st69" points="205.84 110.73 300.76 133.13 299.62 133.13 205.84 110.99 205.84 110.73"/>
        <polygon class="st51" points="205.84 110.46 301.9 133.13 300.76 133.13 205.84 110.73 205.84 110.46"/>
        <polygon class="st101" points="205.84 110.19 303.04 133.13 301.9 133.13 205.84 110.46 205.84 110.19"/>
        <polygon class="st34" points="205.84 109.92 304.18 133.13 303.04 133.13 205.84 110.19 205.84 109.92"/>
        <polygon class="st164" points="205.84 109.65 305.32 133.13 304.18 133.13 205.84 109.92 205.84 109.65"/>
        <polygon class="st63" points="205.84 109.38 306.46 133.13 305.32 133.13 205.84 109.65 205.84 109.38"/>
        <polygon class="st44" points="205.84 109.11 307.6 133.13 306.46 133.13 205.84 109.38 205.84 109.11"/>
        <polygon class="st99" points="205.84 108.84 308.74 133.13 307.6 133.13 205.84 109.11 205.84 108.84"/>
        <polygon class="st104" points="205.84 108.57 309.88 133.13 308.74 133.13 205.84 108.84 205.84 108.57"/>
        <polygon class="st42" points="205.84 108.3 311.02 133.13 309.88 133.13 205.84 108.57 205.84 108.3"/>
        <polygon class="st49" points="205.84 108.03 312.16 133.13 311.02 133.13 205.84 108.3 205.84 108.03"/>
        <polygon class="st153" points="205.84 107.77 313.3 133.13 312.16 133.13 205.84 108.03 205.84 107.77"/>
        <polygon class="st148" points="205.84 107.5 314.44 133.13 313.3 133.13 205.84 107.77 205.84 107.5"/>
        <polygon class="st80" points="205.84 107.23 315.58 133.13 314.44 133.13 205.84 107.5 205.84 107.23"/>
        <polygon class="st128" points="205.84 106.96 316.72 133.13 315.58 133.13 205.84 107.23 205.84 106.96"/>
        <polygon class="st133" points="205.84 106.69 317.86 133.13 316.72 133.13 205.84 106.96 205.84 106.69"/>
        <polygon class="st151" points="205.84 106.42 319 133.13 317.86 133.13 205.84 106.69 205.84 106.42"/>
        <polygon class="st12" points="205.84 106.15 320.14 133.13 319 133.13 205.84 106.42 205.84 106.15"/>
        <polygon class="st161" points="205.84 105.88 321.28 133.13 320.14 133.13 205.84 106.15 205.84 105.88"/>
        <polygon class="st9" points="205.84 105.61 322.42 133.13 321.28 133.13 205.84 105.88 205.84 105.61"/>
        <polygon class="st124" points="205.84 105.34 323.56 133.13 322.42 133.13 205.84 105.61 205.84 105.34"/>
        <polygon class="st75" points="205.84 105.08 324.7 133.13 323.56 133.13 205.84 105.34 205.84 105.08"/>
        <polygon class="st27" points="205.84 104.81 325.84 133.13 324.7 133.13 205.84 105.08 205.84 104.81"/>
        <polygon class="st112" points="205.84 104.54 326.98 133.13 325.84 133.13 205.84 104.81 205.84 104.54"/>
        <polygon class="st117" points="205.84 104.27 328.12 133.13 326.98 133.13 205.84 104.54 205.84 104.27"/>
        <polygon class="st158" points="205.84 104 329.26 133.13 328.12 133.13 205.84 104.27 205.84 104"/>
        <polygon class="st38" points="205.84 103.73 330.4 133.13 329.26 133.13 205.84 104 205.84 103.73"/>
        <polygon class="st82" points="205.84 103.46 331.54 133.13 330.4 133.13 205.84 103.73 205.84 103.46"/>
        <polygon class="st32" points="205.84 103.19 332.67 133.13 331.54 133.13 205.84 103.46 205.84 103.19"/>
        <polygon class="st1" points="205.84 102.92 333.81 133.13 332.67 133.13 205.84 103.19 205.84 102.92"/>
        <polygon class="st46" points="205.84 102.65 334.95 133.13 333.81 133.13 205.84 102.92 205.84 102.65"/>
        <polygon class="st39" points="205.84 102.39 336.09 133.13 334.95 133.13 205.84 102.65 205.84 102.39"/>
        <polygon class="st113" points="205.84 102.12 337.23 133.13 336.09 133.13 205.84 102.39 205.84 102.12"/>
        <polygon class="st43" points="205.84 101.85 338.37 133.13 337.23 133.13 205.84 102.12 205.84 101.85"/>
        <polygon class="st110" points="205.84 101.58 339.51 133.13 338.37 133.13 205.84 101.85 205.84 101.58"/>
        <polygon class="st8" points="205.84 101.31 340.65 133.13 339.51 133.13 205.84 101.58 205.84 101.31"/>
        <polygon class="st93" points="205.84 101.04 341.79 133.13 340.65 133.13 205.84 101.31 205.84 101.04"/>
        <polygon class="st19" points="205.84 100.77 342.93 133.13 341.79 133.13 205.84 101.04 205.84 100.77"/>
        <polygon class="st136" points="205.84 100.5 344.07 133.13 342.93 133.13 205.84 100.77 205.84 100.5"/>
        <polygon class="st132" points="205.84 100.23 345.21 133.13 344.07 133.13 205.84 100.5 205.84 100.23"/>
        <polygon class="st123" points="205.84 99.96 346.35 133.13 345.21 133.13 205.84 100.23 205.84 99.96"/>
        <polygon class="st10" points="205.84 99.69 347.49 133.13 346.35 133.13 205.84 99.96 205.84 99.69"/>
        <polygon class="st61" points="205.84 99.43 348.63 133.13 347.49 133.13 205.84 99.69 205.84 99.43"/>
        <polygon class="st152" points="205.84 99.16 349.77 133.13 348.63 133.13 205.84 99.43 205.84 99.16"/>
        <polygon class="st20" points="205.84 98.89 350.91 133.13 349.77 133.13 205.84 99.16 205.84 98.89"/>
        <polygon class="st53" points="205.84 98.62 352.05 133.13 350.91 133.13 205.84 98.89 205.84 98.62"/>
        <polygon class="st88" points="205.84 98.35 353.19 133.13 352.05 133.13 205.84 98.62 205.84 98.35"/>
        <polygon class="st7" points="205.84 98.26 205.88 98.09 354.33 133.13 353.19 133.13 205.84 98.35 205.84 98.26"/>
        <polygon class="st72" points="205.88 98.09 205.94 97.84 355.47 133.13 354.33 133.13 205.88 98.09"/>
        <polygon class="st72" points="205.94 97.84 207.57 90.94 361.94 90.94 361.94 133.13 355.47 133.13 205.94 97.84"/>
      </g>
    </g>
    <g>
      <path class="st113" d="M375.54,289.91l.11-1.09c.08-.83-.16-1.47-.64-2.07l-5.34-6.16-4.32,9.32h-8.61l13.78-27.55h14.92l-1.34,27.55h-8.57ZM378,262.81l-7.91,16.54h6.54l1.37-16.54Z"/>
      <path class="st113" d="M526.99,289.91l.11-1.09c.08-.83-.16-1.47-.64-2.07l-5.34-6.16-4.32,9.32h-8.61l13.78-27.55h14.92l-1.34,27.55h-8.57ZM529.45,262.81l-7.91,16.54h6.54l1.37-16.54Z"/>
      <path class="st113" d="M506.78,284.72c-1.38,5.04-4.53,5.98-12.87,5.98-7.03,0-12.07-.94-10.81-5.56l4.46-16.31c1.45-5.3,4.51-6.46,14.74-6.46,8.23,0,10.21,1.43,9.41,4.36l-1.26,4.62h-8.12l.34-1.24c.23-.83.09-1.43-.29-1.95l-4.43-4.96-6.23,22.78c-.33,1.2.62,2.14,2.95,2.14,1.92,0,3.28-.71,3.67-2.14l1.37-5h8.12l-1.03,3.76Z"/>
      <path class="st113" d="M566.55,289.91l7.54-27.55h17.55l-1.14,4.17h-15.15l3.96,4.89c.42.53.53.83.34,1.5l-.26.94h8.46l-1.01,3.68h-8.46l-2.18,7.97h9.88l-1.2,4.4h-18.34Z"/>
      <path class="st113" d="M464.46,285.4c-1.04,3.8-4.87,5.3-13.59,5.3s-11.81-1.35-10.73-5.3l4.84-17.7c1.09-3.98,5.11-5.34,13.64-5.34s11.77,1.35,10.68,5.34l-4.84,17.7ZM459.85,269.99c.32-1.17.27-1.54-.4-2.26l-4.37-4.51-6.04,22.06c-.36,1.32.92,2.14,2.72,2.14s3.53-.83,3.89-2.14l4.18-15.3Z"/>
      <path class="st113" d="M554.83,289.91c-.52-.86-.5-1.88-.06-3.5l.53-1.95c.32-1.16.03-2.29-1-3.34l-4.26-4.77-3.71,13.57h-8.46l7.54-27.55h11.5c10.6,0,12.51,1.54,11.24,6.16l-.75,2.74c-.95,3.46-4.57,6.13-8.17,6.24,4.58.41,5.91,2.03,5.25,4.44l-1.22,4.47c-.33,1.2-.35,2.37.06,3.5h-8.49ZM559.1,270.59c.17-.64,0-1.24-.51-1.84l-4.92-5.64-3.4,12.44h2.63c3.87,0,5.08-.86,5.72-3.19l.48-1.77Z"/>
      <path class="st113" d="M419.6,289.91l6.4-23.38h-6.84l1.14-4.17h22.29l-1.14,4.17h-12.97l3.71,4.28c.56.71.74,1.54.49,2.48l-4.54,16.61h-8.53Z"/>
      <path class="st113" d="M408.97,262.36h8.49l-5.83,21.31c-1.34,4.89-3.76,6.61-13.69,6.61-9.21,0-11.42-1.54-10.03-6.61l5.83-21.31h8.49l-5.38,19.66c-.26.94-.17,1.73.25,2.25l4.44,5.19,7.41-27.1Z"/>
    </g>
  </g>
</svg>