<svg width="136" height="56" viewBox="0 0 136 56" fill="none" xmlns="http://www.w3.org/2000/svg">
<path fill-rule="evenodd" clip-rule="evenodd" d="M89.4922 16.5462C90.1149 16.1807 90.7376 15.8152 91.3606 15.4497C92.0468 15.206 92.7683 15.1243 93.4916 15.0415C94.9394 14.8758 96.3805 14.6905 97.7968 14.339C99.4278 13.934 100.435 12.9825 100.946 11.5325C100.974 11.4654 101.002 11.398 101.03 11.3308C101.034 11.3218 101.038 11.3123 101.042 11.3024C101.113 11.1319 101.184 10.9618 101.255 10.7914C101.3 10.68 101.353 10.5708 101.39 10.4571C101.82 9.10944 101.983 7.7389 101.796 6.33945C101.779 5.52723 101.535 4.76077 101.268 3.91907C101.124 4.11142 101.026 4.23361 100.938 4.36219C99.8649 5.9419 98.7858 7.51834 97.7286 9.10706C97.563 9.35554 97.3816 9.47772 97.0703 9.50421C95.8289 9.61044 94.6426 9.51332 93.5628 8.85639C92.8788 8.44033 92.4214 7.84039 91.9327 7.26138C91.8303 7.07797 91.7479 6.88151 91.6214 6.71343C91.1919 6.14299 91.1398 5.58908 91.6577 5.04063C92.5523 3.77288 93.4378 2.49995 94.2518 1.1859C94.3713 1.01742 94.4906 0.849011 94.6098 0.680467C94.7764 0.475564 94.9549 0.276823 95.0299 0C94.6932 0.0122518 94.3923 0.0898012 94.096 0.188709C93.1459 0.407784 92.2211 0.690401 91.358 1.12507C91.1586 1.20617 90.963 1.29653 90.759 1.3663C90.2859 1.52819 87.9476 3.27496 87.3341 4.02258C86.1226 5.49938 85.7447 7.08499 85.9894 8.88331C86.1749 10.2473 85.7603 11.5132 85.0125 12.6968C84.6506 13.2697 84.1311 13.7224 83.7118 14.25C83.4543 14.4766 83.1952 14.702 82.9389 14.9297C82.5669 15.2601 81.9956 15.767 81.271 16.4099L72.5853 16.2659L63.4906 17.441C62.6641 16.8677 62.0138 16.4166 61.5929 16.1244C61.3086 15.9269 61.0219 15.732 60.7365 15.5359C60.2512 15.0589 59.6762 14.6675 59.2418 14.1391C58.3445 13.0476 57.767 11.8372 57.7723 10.4626C57.7796 8.65013 57.1966 7.1183 55.8004 5.78743C55.0935 5.11368 52.5434 3.64052 52.0525 3.53261C51.841 3.48612 51.6349 3.41824 51.4264 3.35996C50.5126 3.02472 49.5575 2.84731 48.5858 2.73582C48.2786 2.67065 47.9697 2.62727 47.6339 2.65264C47.7446 2.91906 47.9478 3.09645 48.1401 3.28125C48.2805 3.43526 48.421 3.58913 48.5617 3.74304C49.5419 4.95669 50.5879 6.12151 51.642 7.28019C52.228 7.76685 52.2488 8.32252 51.8973 8.93666C51.7938 9.11766 51.7377 9.32183 51.6601 9.51531C51.2508 10.1446 50.8754 10.7911 50.251 11.2804C49.2652 12.0529 48.1003 12.2817 46.8541 12.3147C46.5416 12.3231 46.3455 12.222 46.1487 11.9938C44.8908 10.5347 43.6131 9.09017 42.3405 7.64175C42.2369 7.52387 42.1228 7.41357 41.9549 7.23867C41.8004 8.1039 41.6587 8.89199 41.7479 9.70018C41.7462 11.1102 42.0871 12.4525 42.6913 13.7422C42.7423 13.8511 42.8094 13.9535 42.869 14.0591C42.9617 14.2203 43.0547 14.3813 43.1474 14.5426C43.152 14.552 43.1573 14.561 43.163 14.5694C43.1996 14.633 43.2364 14.6967 43.2731 14.7602C43.97 16.1426 45.0945 16.9748 46.7666 17.1949C48.2185 17.386 49.6734 17.4092 51.1322 17.4122C51.8611 17.4137 52.588 17.4144 53.3011 17.5797C53.9905 17.8832 54.6797 18.1867 55.3689 18.4903M59.5932 20.2758C58.4882 19.5158 57.8362 19.0695 57.831 19.0707C57.2665 18.6194 56.5962 18.3137 55.9869 17.924C55.2417 17.5957 54.4962 17.2675 53.7507 16.9393C53.0377 16.7739 52.3108 16.7733 51.5819 16.7717C50.123 16.7687 48.6682 16.7455 47.2162 16.5545C45.5441 16.3344 44.4196 15.5021 43.7226 14.1197C43.686 14.0562 43.6492 13.9925 43.6126 13.929C43.6069 13.9205 43.6016 13.9115 43.597 13.9021C43.5043 13.7408 43.4113 13.5797 43.3186 13.4186C43.2589 13.313 43.192 13.2106 43.1409 13.1018C42.5367 11.812 42.1958 10.4697 42.1975 9.05964C42.1082 8.25142 42.9206 11.2529 43.5247 12.5425C43.5758 12.6514 43.6428 12.7538 43.7024 12.8594C43.7952 13.0206 43.8881 13.1816 43.9809 13.3429C43.9854 13.3523 43.9906 13.3613 43.9965 13.3697C44.033 13.4333 44.0697 13.497 44.1064 13.5606C44.8034 14.9429 45.9279 15.7752 47.5999 15.9953C49.0519 16.1863 50.5069 16.2095 51.9656 16.2126C52.6946 16.2141 53.4215 16.2147 54.1346 16.38C54.8801 16.7083 55.6254 17.0365 56.3707 17.3648C56.98 17.7545 57.6503 18.0602 58.2148 18.5115C58.2211 18.51 58.0546 19.2166 59.5932 20.2758L84.3612 18.8895C85.7498 17.6665 86.5985 16.9218 86.6049 16.9226C87.1062 16.4116 87.7315 16.0334 88.2853 15.5786C88.982 15.1696 89.6789 14.7606 90.3759 14.3517C91.0621 14.108 91.7835 14.0263 92.507 13.9435C93.9546 13.7778 95.3959 13.5925 96.8122 13.2409C98.4431 12.836 99.4503 11.8844 99.961 10.4345C99.9891 10.3673 100.017 10.3 100.045 10.2328C100.05 10.2238 100.054 10.2142 100.057 10.2044C100.128 10.0339 100.199 9.86372 100.27 9.69332C100.316 9.58186 100.369 9.47275 100.405 9.35901C100.836 8.01142 101.249 4.94139 101.266 5.75362C101.453 7.15317 101.29 8.52367 100.859 9.87133C100.823 9.98508 100.77 10.0942 100.724 10.2056C100.653 10.3759 100.582 10.5462 100.511 10.7167C100.508 10.7264 100.504 10.736 100.499 10.7451C100.471 10.8122 100.443 10.8796 100.415 10.9467C99.9046 12.3968 98.8974 13.3483 97.2664 13.7532C95.85 14.1048 94.409 14.29 92.9613 14.4558C92.2378 14.5386 91.5165 14.6203 90.8303 14.864C90.1332 15.2729 89.4363 15.6818 88.7395 16.0909C88.1857 16.5457 87.5605 16.9239 87.0592 17.4348C87.0539 17.4342 86.4652 17.95 85.4679 18.8276M91.061 5.12381C91.0675 5.11385 91.0737 5.10391 91.08 5.09391C91.0834 5.09706 91.0869 5.10027 91.0905 5.10328C91.0811 5.10974 91.0718 5.11596 91.061 5.12381ZM94.0952 1.24233L94.0983 1.24405C94.0954 1.24772 94.0919 1.25067 94.089 1.25461C94.091 1.25064 94.0932 1.24643 94.0952 1.24233ZM93.3021 1.51359L93.3053 1.51531C93.3022 1.51902 93.2989 1.52196 93.2958 1.52587C93.298 1.5219 93.3 1.51763 93.3021 1.51359ZM90.4102 4.79957C91.9337 3.144 94.1352 0.893715 93.9689 1.09862C93.8495 1.26703 91.7592 4.0442 90.8646 5.3119C90.447 5.75415 90.8151 6.8077 91.027 7.29532C91.1126 7.46469 91.1627 7.55989 91.1397 7.53264C91.1199 7.49715 91.0779 7.41237 91.027 7.29532C90.7309 6.70856 90.0085 5.2252 90.4102 4.79957ZM90.2678 5.39504C90.2744 5.38504 90.2807 5.37511 90.2869 5.36511C90.2903 5.36828 90.2939 5.3715 90.2974 5.37454C90.288 5.38097 90.2786 5.38719 90.2678 5.39504ZM86.4238 9.77905C86.4429 9.82024 86.4709 9.88071 86.5065 9.95766C86.5798 10.1104 86.6864 10.3264 86.8258 10.5781C86.8947 10.7042 86.9758 10.8376 87.0606 10.978C87.1478 11.1174 87.2409 11.2631 87.3442 11.4093C87.4452 11.5568 87.5588 11.7027 87.6746 11.8503C87.7953 11.9943 87.9174 12.1408 88.052 12.2767L88.1513 12.38L88.2548 12.479C88.3224 12.5462 88.3954 12.6074 88.4655 12.6708C88.5362 12.7334 88.6117 12.7898 88.6825 12.85C88.7573 12.9057 88.8311 12.9608 88.9036 13.0149C88.9795 13.0656 89.0539 13.1154 89.1267 13.1641C89.2021 13.2099 89.276 13.2545 89.3478 13.2979C89.4223 13.3382 89.4946 13.3774 89.5646 13.4152C89.6348 13.4535 89.7061 13.4843 89.773 13.5175C89.8395 13.5517 89.9067 13.577 89.9698 13.6037C90.033 13.63 90.0923 13.6581 90.15 13.6792C90.2664 13.7186 90.3664 13.7611 90.4517 13.788C90.6224 13.841 90.721 13.8758 90.721 13.8758C90.721 13.8758 90.6174 13.872 90.434 13.8575C90.3427 13.8493 90.2332 13.831 90.1063 13.8105C90.0432 13.7997 89.9774 13.7824 89.907 13.7672C89.8366 13.7514 89.763 13.7331 89.6883 13.7081C89.6135 13.6838 89.5333 13.6619 89.4535 13.6324C89.3742 13.6011 89.2924 13.5688 89.2082 13.5355C89.1266 13.4967 89.0429 13.4568 88.9573 13.416C88.8736 13.3716 88.7905 13.3229 88.7045 13.2749C88.6221 13.2225 88.538 13.1687 88.4551 13.112C88.3748 13.0524 88.2906 12.9946 88.2125 12.9293C88.1354 12.8635 88.0531 12.8009 87.9803 12.7291L87.8681 12.6239L87.7607 12.5144C87.6183 12.3675 87.4891 12.2108 87.3683 12.0531C87.2512 11.8933 87.1413 11.7327 87.0482 11.571C86.9518 11.4109 86.8713 11.2504 86.7991 11.0972C86.7286 10.9432 86.6688 10.7953 86.6203 10.6568C86.5696 10.5194 86.5319 10.3907 86.5014 10.2763C86.4694 10.1623 86.4493 10.061 86.4329 9.97809C86.4011 9.81167 86.3952 9.71511 86.3952 9.71511C86.3952 9.71511 86.4053 9.73733 86.4238 9.77905ZM52.2132 7.27913C52.2163 7.27575 52.2195 7.27218 52.2224 7.26867C52.2299 7.2779 52.2375 7.28708 52.2452 7.29622C52.2335 7.28966 52.2234 7.28453 52.2132 7.27913ZM53.9855 15.8289C54.0666 15.7927 54.1603 15.7393 54.2708 15.6873C54.3251 15.6599 54.3805 15.6254 54.4398 15.5922C54.4989 15.5587 54.5622 15.526 54.6237 15.4846C54.6858 15.4442 54.7526 15.4057 54.8172 15.3599C54.8818 15.3145 54.9484 15.2676 55.017 15.2193C55.0826 15.1682 55.1501 15.1156 55.219 15.0618C55.2849 15.0054 55.3522 14.9476 55.4209 14.8888C55.4858 14.827 55.5519 14.7641 55.6188 14.7004C55.6813 14.6328 55.7487 14.5684 55.8107 14.4983C55.872 14.4276 55.9363 14.3587 55.9947 14.2845L56.0845 14.1746L56.1696 14.061C56.2853 13.911 56.3874 13.752 56.4882 13.5957C56.5838 13.4363 56.6775 13.2787 56.7585 13.121C56.8418 12.9644 56.9152 12.8094 56.9834 12.6613C57.0493 12.5124 57.1122 12.371 57.1641 12.2381C57.2695 11.9727 57.3471 11.7464 57.3998 11.5866C57.4251 11.5062 57.4449 11.4431 57.4585 11.4001C57.4714 11.3566 57.4784 11.3335 57.4784 11.3335C57.4784 11.3335 57.4852 11.43 57.4756 11.5987C57.4701 11.6829 57.4635 11.7857 57.4466 11.9023C57.4312 12.0193 57.4108 12.1513 57.3783 12.2934C57.3484 12.4362 57.3085 12.5897 57.2587 12.7505C57.207 12.9105 57.1482 13.0788 57.0735 13.2486C57.0023 13.4195 56.9142 13.5911 56.8189 13.7629C56.7197 13.9329 56.6119 14.1028 56.4898 14.2645L56.3976 14.3852L56.3 14.5021C56.2372 14.5815 56.1637 14.6528 56.0957 14.7267C56.0267 14.8002 55.9508 14.867 55.8789 14.9352C55.804 15.0007 55.7275 15.0634 55.6526 15.1247C55.5736 15.1819 55.4974 15.2396 55.4202 15.293C55.3406 15.343 55.2627 15.3919 55.1868 15.4395C55.1076 15.4819 55.0306 15.5232 54.956 15.5631C54.8806 15.6012 54.8039 15.6319 54.7327 15.6644C54.662 15.6974 54.5913 15.7239 54.5234 15.7474C54.4555 15.7703 54.3925 15.7948 54.3313 15.8126C54.2081 15.8471 54.1017 15.8776 54.0121 15.8959C53.832 15.9307 53.7297 15.946 53.7297 15.946C53.7297 15.946 53.823 15.9006 53.9855 15.8289ZM53.0453 7.44946C53.0527 7.45867 53.0603 7.46784 53.0681 7.47704C53.0563 7.47045 53.0462 7.46532 53.036 7.46002C53.0391 7.45658 53.0423 7.45297 53.0453 7.44946ZM49.5474 3.96241C49.5499 3.96619 49.5525 3.9702 49.5552 3.97387C49.5516 3.97033 49.548 3.96778 49.5444 3.96443L49.5474 3.96241ZM48.7217 3.7837L48.7246 3.78162C48.7271 3.78546 48.7297 3.7894 48.7323 3.79311C48.7289 3.78956 48.7251 3.78702 48.7217 3.7837ZM48.8312 3.62486C48.6391 3.44003 51.1194 5.42825 52.8487 6.90181C53.3033 7.27953 52.7805 8.83255 52.5635 9.44802C52.5284 9.56991 52.4979 9.65872 52.4829 9.69617C52.4635 9.72577 52.5008 9.62571 52.5635 9.44802C52.71 8.94034 52.9373 7.85347 52.4648 7.46102C51.4106 6.30237 48.9717 3.77874 48.8312 3.62486Z" fill="white"/>
<path d="M132.992 30.7899C132.385 30.15 131.662 29.5556 130.854 29.0001C131.202 27.7085 131.606 26.1501 131.952 24.8027C132.334 23.3084 131.082 21.9002 129.536 22.086L116.76 23.6191C112.267 22.5959 108.715 22.1839 108.715 22.1839C108.715 22.1839 91.8639 15.6716 71.5154 15.6699C53.9346 15.6682 39.1963 27.2931 34.6178 31.32C30.5389 31.4669 26.9477 31.6104 24.1221 31.754C5.26062 32.713 0.0784112 45.5451 0 45.746C13.8925 33.6838 21.5268 34.9721 33.5895 35.1325C45.6523 35.2929 99.858 32.7197 107.264 32.1558C114.67 31.5936 122.227 32.2369 129.251 36.2587C135.383 39.7706 133.945 44.1876 133.91 44.299C134.01 44.1623 139.116 37.2397 132.992 30.7899ZM69.0974 30.1027C60.266 30.4572 50.8992 30.7611 42.6016 31.0414C41.4216 31.0819 40.9066 29.586 41.8632 28.9022C48.0055 24.5139 58.8149 18.3748 71.4557 18.1417C72.1753 18.1299 72.8932 18.1266 73.606 18.135C74.2608 18.1418 74.6957 18.8053 74.4314 19.3979L69.8886 29.5674C69.7488 29.8815 69.4436 30.0875 69.0974 30.1027ZM104.477 26.4253C103.846 26.7866 103.125 27.1462 102.302 27.4924C99.8563 28.5156 88.1652 29.2753 74.2063 29.8882C73.531 29.917 73.0621 29.2314 73.34 28.6219C74.6923 25.6604 76.5748 21.4815 77.5996 19.2021C77.8435 18.6618 78.4045 18.3275 79.0014 18.3714C89.6403 19.1768 98.9491 21.8462 104.194 23.6326C105.458 24.0631 105.632 25.7617 104.477 26.4253Z" fill="#EB3300"/>
<path d="M20.2662 55.6693C18.7135 55.6693 17.3247 55.449 16.0998 55.0083C14.875 54.5677 13.8312 53.9491 12.9686 53.1526C12.106 52.356 11.4418 51.4155 10.976 50.3308C10.5275 49.2462 10.3032 48.0599 10.3032 46.7718C10.3032 45.4838 10.5275 44.2975 10.976 43.2129C11.4418 42.1282 12.106 41.1877 12.9686 40.3911C13.8312 39.5946 14.875 38.976 16.0998 38.5354C17.3247 38.0947 18.7135 37.8744 20.2662 37.8744H23.0351V41.8147H20.4214C19.6106 41.8147 18.886 41.9418 18.2477 42.196C17.6266 42.4502 17.1004 42.8061 16.6691 43.2637C16.2379 43.7044 15.9101 44.2297 15.6858 44.8398C15.4615 45.433 15.3494 46.077 15.3494 46.7718C15.3494 47.4667 15.4615 48.1192 15.6858 48.7293C15.9101 49.3394 16.2379 49.8648 16.6691 50.3054C17.1004 50.746 17.6266 51.0935 18.2477 51.3477C18.886 51.6019 19.6106 51.729 20.4214 51.729H23.0351V55.6693H20.2662Z" fill="white"/>
<path d="M23.7564 55.6693L29.5789 40.0352C29.9067 39.2048 30.4243 38.5862 31.1316 38.1795C31.8389 37.7558 32.6411 37.5439 33.5382 37.5439C34.4353 37.5439 35.2375 37.7473 35.9448 38.1541C36.6694 38.5608 37.187 39.1794 37.4975 40.0098L43.32 55.6693H38.0151L36.9541 52.4154H30.0188L28.9061 55.6693H23.7564ZM31.1833 48.5513H35.8155L33.8229 42.1198C33.8056 42.052 33.7711 42.0011 33.7194 41.9672C33.6676 41.9333 33.6072 41.9164 33.5382 41.9164C33.4865 41.9164 33.4347 41.9333 33.3829 41.9672C33.3484 42.0011 33.3139 42.052 33.2794 42.1198L31.1833 48.5513Z" fill="white"/>
<path d="M44.3088 55.6693V37.8744H52.7191C53.9957 37.8744 55.1516 38.1456 56.1867 38.6879C57.2218 39.2133 58.0499 39.9505 58.671 40.8995C59.292 41.8317 59.6026 42.9248 59.6026 44.1789C59.6026 45.2635 59.3352 46.2634 58.8004 47.1786C58.2828 48.0768 57.5841 48.8055 56.7043 49.3648L57.9205 51.3477C58.024 51.5002 58.1362 51.6188 58.2569 51.7036C58.3949 51.7714 58.5761 51.8053 58.8004 51.8053H60.2495V55.6693H57.5582C56.6956 55.6693 55.9279 55.4829 55.2551 55.11C54.5823 54.7202 54.0647 54.2203 53.7024 53.6102L51.8651 50.5088C51.7616 50.5088 51.6581 50.5088 51.5546 50.5088C51.4511 50.5088 51.3562 50.5088 51.2699 50.5088H49.2515V55.6693H44.3088ZM49.2515 46.6447H52.2015C52.6328 46.6447 53.0296 46.5515 53.3919 46.3651C53.7714 46.1617 54.0647 45.8736 54.2717 45.5008C54.496 45.1279 54.6082 44.6958 54.6082 44.2043C54.6082 43.7128 54.496 43.2891 54.2717 42.9332C54.0475 42.5773 53.7542 42.3062 53.3919 42.1198C53.0296 41.9164 52.6328 41.8147 52.2015 41.8147H49.2515V46.6447Z" fill="white"/>
<path d="M71.03 55.9998C69.5981 55.9998 68.287 55.771 67.0966 55.3134C65.9062 54.8389 64.8797 54.1864 64.0171 53.3559C63.1718 52.5086 62.5076 51.5256 62.0246 50.4071C61.5588 49.2885 61.3259 48.0768 61.3259 46.7718C61.3259 45.4669 61.5588 44.2551 62.0246 43.1366C62.5076 42.0011 63.1718 41.0182 64.0171 40.1878C64.8797 39.3573 65.9062 38.7133 67.0966 38.2557C68.287 37.7812 69.5981 37.5439 71.03 37.5439C72.4792 37.5439 73.7903 37.7812 74.9634 38.2557C76.1538 38.7133 77.1803 39.3573 78.0429 40.1878C78.9055 41.0182 79.5697 42.0011 80.0355 43.1366C80.5013 44.2551 80.7342 45.4669 80.7342 46.7718C80.7342 48.0768 80.5013 49.2885 80.0355 50.4071C79.5697 51.5256 78.9055 52.5086 78.0429 53.3559C77.1803 54.1864 76.1538 54.8389 74.9634 55.3134C73.7903 55.771 72.4792 55.9998 71.03 55.9998ZM71.03 51.9832C71.7373 51.9832 72.3757 51.8561 72.945 51.6019C73.5315 51.3307 74.0318 50.9579 74.4459 50.4833C74.8772 49.9919 75.1963 49.4326 75.4034 48.8055C75.6276 48.1785 75.7398 47.5006 75.7398 46.7718C75.7398 46.0431 75.6276 45.3652 75.4034 44.7382C75.1963 44.0941 74.8772 43.5349 74.4459 43.0604C74.0318 42.5858 73.5315 42.2214 72.945 41.9672C72.3757 41.6961 71.7373 41.5605 71.03 41.5605C70.3399 41.5605 69.7016 41.6961 69.1151 41.9672C68.5285 42.2214 68.0282 42.5858 67.6142 43.0604C67.2001 43.5349 66.881 44.0941 66.6567 44.7382C66.4324 45.3652 66.3203 46.0431 66.3203 46.7718C66.3203 47.5006 66.4324 48.1785 66.6567 48.8055C66.881 49.4326 67.2001 49.9919 67.6142 50.4833C68.0282 50.9579 68.5285 51.3307 69.1151 51.6019C69.7016 51.8561 70.3399 51.9832 71.03 51.9832Z" fill="white"/>
<path d="M82.9516 55.6693V43.0604C82.9516 42.0943 83.1845 41.2215 83.6503 40.442C84.1333 39.6624 84.7716 39.0438 85.5652 38.5862C86.3761 38.1117 87.2645 37.8744 88.2306 37.8744H94.7777V41.0775H88.6447C88.0926 41.0775 87.6182 41.2724 87.2214 41.6622C86.8419 42.052 86.6521 42.518 86.6521 43.0604V45.9329H93.8979V49.136H86.6521V55.6693H82.9516Z" fill="white"/>
<path d="M97.024 55.6693V52.4662H100.285V41.0775H97.024V37.8744H107.246V41.0775H103.985V52.4662H107.246V55.6693H97.024Z" fill="white"/>
<path d="M110.093 55.6693L114.829 47.9666C113.983 47.6616 113.241 47.2294 112.603 46.6702C111.982 46.094 111.499 45.3991 111.154 44.5856C110.809 43.7721 110.636 42.8485 110.636 41.8147V37.8744H114.337V42.0435C114.337 42.5689 114.449 43.0604 114.673 43.5179C114.898 43.9586 115.217 44.3229 115.631 44.611C116.045 44.8992 116.528 45.0771 117.08 45.1449L121.453 37.8744H125.62L120.884 45.4245C121.85 45.6618 122.695 46.0685 123.42 46.6447C124.145 47.221 124.705 47.9412 125.102 48.8055C125.499 49.6529 125.697 50.6274 125.697 51.729V55.6693H121.997V51.5002C121.997 50.6189 121.703 49.8817 121.117 49.2885C120.548 48.6784 119.728 48.3734 118.658 48.3734L114.259 55.6693H110.093Z" fill="white"/>
</svg>
