<svg width="48" height="48" viewBox="0 0 48 48" fill="none" xmlns="http://www.w3.org/2000/svg">
<path d="M45.984 40.8961C41.376 40.8961 38.4 38.9761 36.768 37.3441C35.904 36.4801 35.616 35.3281 35.904 34.1761C36.192 33.0241 37.056 32.0641 38.208 31.7761C39.84 31.2961 42.336 30.7201 45.216 30.5281C45.12 30.3361 44.928 30.1441 44.832 29.9521L43.584 28.3201C43.2 27.7441 42.816 27.1681 42.528 26.5921H44.832C45.312 26.5921 45.696 26.3041 45.792 25.8241L46.176 23.9041C46.272 23.2321 45.792 22.6561 45.216 22.6561H41.376C40.8 20.4481 39.84 18.2401 38.688 16.1281C38.208 15.2641 37.44 14.5921 36.48 14.3041C36.192 15.5521 35.712 16.8001 35.04 17.8561C35.136 17.8561 35.328 17.9521 35.424 17.9521C36.768 20.3521 37.632 22.6561 38.016 24.6721H10.176C10.56 22.6561 11.424 20.3521 12.768 17.9521C13.056 17.8561 13.344 17.7601 13.632 17.6641C12.96 16.6081 12.48 15.3601 12.288 14.1121C12.096 14.2081 11.904 14.2081 11.712 14.3041C10.752 14.5921 9.98405 15.2641 9.50405 16.1281C8.35205 18.2401 7.39205 20.4481 6.81605 22.6561H2.59205C1.92005 22.6561 1.44005 23.2321 1.63205 23.9041L2.01605 25.8241C2.11205 26.3041 2.49605 26.5921 2.97605 26.5921H5.47205C5.18405 27.1681 4.80005 27.7441 4.41605 28.3201L3.16805 29.9521C3.07205 30.1441 2.88005 30.3361 2.78405 30.5281C5.66405 30.7201 8.16005 31.2961 9.79205 31.7761C10.944 32.1601 11.808 33.0241 12.096 34.1761C12.384 35.3281 12 36.5761 11.232 37.3441C9.60005 38.9761 6.62405 40.8961 2.01605 40.8961C1.72805 40.8961 1.53605 40.8961 1.24805 40.8961V45.2161C1.24805 46.2721 2.11205 47.0401 3.07205 47.0401H8.44805C9.40805 47.0401 10.272 46.2721 10.272 45.2161V43.0081H37.632V45.2161C37.632 46.2721 38.4 47.0401 39.456 47.0401H44.832C45.888 47.0401 46.656 46.2721 46.656 45.2161V40.8961C46.464 40.8961 46.272 40.8961 45.984 40.8961ZM20.736 39.1681H19.872C18.72 39.1681 17.76 38.4961 17.376 37.5361L16.704 35.9041C16.224 34.8481 16.512 33.6001 17.376 32.8321C17.856 32.3521 18.528 32.0641 19.296 32.0641H20.928V39.1681H20.736ZM25.248 39.1681H22.656V32.0641H25.152V39.1681H25.248ZM31.392 35.9041L30.72 37.5361C30.24 38.4961 29.28 39.1681 28.224 39.1681H27.264V32.0641H28.896C29.568 32.0641 30.24 32.3521 30.816 32.8321C31.392 33.3121 31.68 34.0801 31.68 34.8481C31.584 35.1361 31.584 35.5201 31.392 35.9041Z" fill="#EB3300"/>
<path d="M44.2561 36.576C43.6801 36.576 43.2961 36.096 43.2961 35.616C43.2961 35.04 43.7761 34.656 44.2561 34.656H46.7521C46.6561 33.888 46.5601 33.1201 46.2721 32.3521C43.2001 32.4481 40.5121 33.0241 38.7841 33.6001C37.7281 33.8881 37.4401 35.2321 38.2081 35.9041C39.6481 37.3441 42.3361 39.0721 46.8481 38.8801V36.576H44.2561Z" fill="#EB3300"/>
<path d="M9.31205 33.6001C7.58405 33.1201 4.89605 32.4481 1.82405 32.3521C1.63205 33.1201 1.44005 33.792 1.34405 34.656H3.84005C4.41605 34.656 4.80005 35.136 4.80005 35.616C4.80005 36.192 4.32005 36.576 3.84005 36.576H1.24805V38.8801C5.66405 39.0721 8.44805 37.3441 9.88805 35.9041C10.656 35.1361 10.272 33.8881 9.31205 33.6001Z" fill="#EB3300"/>
<path d="M33.792 11.616C33.216 11.52 32.736 11.904 32.736 12.48C32.256 16.8 28.608 19.968 24.288 19.968C19.584 19.968 15.744 16.128 15.744 11.424C15.744 6.71996 19.584 2.87996 24.288 2.87996C26.208 2.87996 28.032 3.55196 29.568 4.70396H28.224C27.648 4.70396 27.264 5.18396 27.264 5.66396C27.264 6.14396 27.744 6.62396 28.224 6.62396H31.872C32.352 6.62396 32.832 6.14396 32.832 5.66396V2.11196C32.832 1.53596 32.352 1.15196 31.872 1.15196C31.296 1.15196 30.912 1.63196 30.912 2.11196V3.35996C29.088 1.82396 26.784 0.959961 24.288 0.959961C18.528 0.959961 13.824 5.66396 13.824 11.424C13.824 17.184 18.528 21.888 24.288 21.888C29.568 21.888 34.08 17.952 34.656 12.672C34.752 12.096 34.368 11.616 33.792 11.616Z" fill="#EB3300"/>
<path d="M21.312 13.248C21.888 12.864 22.272 12.576 22.656 12.288C23.04 12 23.328 11.712 23.616 11.328C23.904 10.944 24 10.464 24 9.98398C24 9.50398 23.904 9.11998 23.616 8.73598C23.328 8.35198 23.04 8.06398 22.656 7.87198C22.272 7.67998 21.792 7.58398 21.312 7.58398C20.448 7.58398 19.584 7.77598 18.816 8.15998C18.624 8.25598 18.432 8.54398 18.432 8.73598C18.432 8.92798 18.528 9.11998 18.624 9.21598C18.816 9.40798 19.104 9.50398 19.392 9.31198C19.968 9.02398 20.544 8.92798 21.12 8.92798C21.6 8.92798 21.984 9.02398 22.272 9.21598C22.464 9.40798 22.56 9.69598 22.56 9.98398C22.56 10.176 22.464 10.368 22.368 10.56C22.176 10.752 21.984 10.944 21.792 11.136C21.504 11.328 21.216 11.52 20.736 11.808C20.256 12.096 19.776 12.384 19.488 12.672C19.2 12.96 18.912 13.248 18.624 13.536C18.432 14.016 18.24 14.4 18.24 14.88C18.24 15.072 18.336 15.264 18.432 15.456C18.624 15.648 18.816 15.648 19.008 15.648H23.136C23.328 15.648 23.52 15.552 23.616 15.456C23.712 15.36 23.808 15.168 23.808 14.976C23.808 14.784 23.712 14.592 23.616 14.496C23.52 14.4 23.328 14.304 23.136 14.304H19.872C19.968 14.208 19.968 14.208 20.064 14.112C20.448 13.824 20.736 13.632 21.312 13.248Z" fill="#EB3300"/>
<path d="M28.6079 15.4559C28.7039 15.5519 28.8959 15.6479 29.0879 15.6479C29.2799 15.6479 29.4719 15.5519 29.5679 15.4559C29.6639 15.3599 29.7599 15.1679 29.7599 14.9759V13.7279H30.3359C30.5279 13.7279 30.7199 13.6319 30.8159 13.5359C30.9119 13.4399 31.0079 13.2479 31.0079 13.0559C31.0079 12.8639 30.9119 12.6719 30.8159 12.5759C30.7199 12.4799 30.5279 12.3839 30.3359 12.3839H29.7599V8.54393C29.7599 8.25593 29.6639 8.06393 29.5679 7.96793C29.4719 7.77593 29.2799 7.67993 28.9919 7.67993H28.7999C28.7039 7.67993 28.5119 7.67993 28.4159 7.77593C28.3199 7.87193 28.2239 7.96793 28.1279 8.06393L24.7679 12.2879C24.6719 12.4799 24.5759 12.5759 24.5759 12.8639V12.9599C24.5759 13.1519 24.6719 13.4399 24.8639 13.5359C25.0559 13.7279 25.2479 13.8239 25.4399 13.8239H28.4159V15.0719C28.4159 15.1679 28.5119 15.3599 28.6079 15.4559ZM28.4159 9.69593V12.3839H26.3039L28.4159 9.69593Z" fill="#EB3300"/>
</svg>
