<svg width="64" height="64" viewBox="0 0 64 64" fill="none" xmlns="http://www.w3.org/2000/svg">
<path d="M32 14.3825C32.8622 14.3825 33.5601 15.081 33.5601 15.9438V15.9468C33.5601 16.8095 32.8622 17.5091 32 17.5091C31.1379 17.5091 30.4342 16.8095 30.4342 15.9468C30.4342 15.0834 31.1379 14.3825 32 14.3825ZM35.9529 13.1996C36.3517 13.1996 36.7564 13.0471 37.0555 12.7421C37.6713 12.1316 37.6713 11.1423 37.0555 10.5323C35.7066 9.181 33.9119 8.43675 32 8.43675C30.0882 8.43675 28.2934 9.181 26.9387 10.5323C26.3287 11.1423 26.3287 12.1316 26.9387 12.7421C27.5485 13.3521 28.5398 13.3521 29.1497 12.7421C29.9122 11.9809 30.9208 11.5615 32 11.5615C33.0733 11.5615 34.0879 11.9809 34.8503 12.7421C35.1553 13.0471 35.5542 13.1996 35.9529 13.1996ZM23.7131 8.86663C24.1118 8.86663 24.5107 8.7135 24.8157 8.40863C28.7744 4.44863 35.2199 4.448 39.1846 8.40863C39.7887 9.01913 40.7798 9.01913 41.3898 8.40863C41.9998 7.79863 41.9998 6.80925 41.3898 6.19938C36.2112 1.02013 27.7833 1.02013 22.6047 6.19938C21.9948 6.80938 21.9948 7.79875 22.6047 8.40863C22.9095 8.71413 23.3142 8.86663 23.7131 8.86663ZM19.0563 51.9224C18.7456 51.1183 17.8364 50.7224 17.0329 51.0374C16.2294 51.3524 15.8366 52.2584 16.1474 53.0625C16.6049 54.2284 16.4289 54.8085 16.1357 55.7685C15.7779 56.9286 15.338 58.3708 16.1298 60.6364C16.3527 61.2809 16.9568 61.685 17.6019 61.685C17.7719 61.685 17.9479 61.6563 18.1179 61.5976C18.9332 61.3138 19.3613 60.4235 19.0798 59.6089C18.6282 58.3086 18.8334 57.6259 19.1267 56.6823C19.4727 55.5321 19.9125 54.1011 19.0563 51.9224ZM33.4369 51.9224C33.1202 51.1183 32.2171 50.7224 31.4136 51.0374C30.6101 51.3524 30.2112 52.2584 30.5279 53.0625C30.9854 54.2284 30.8037 54.8085 30.5103 55.7685C30.1584 56.9286 29.7185 58.3708 30.5044 60.6364C30.7273 61.2809 31.3373 61.685 31.9823 61.685C32.1524 61.685 32.3225 61.6563 32.4925 61.5976C33.3078 61.3138 33.7418 60.4235 33.4603 59.6089C33.0029 58.3086 33.2139 57.6259 33.5014 56.6823C33.8533 55.5321 34.2932 54.1011 33.4369 51.9224ZM58.7732 27.3773V40.3809C58.7732 44.7298 55.2367 48.2663 50.8908 48.2663H13.1094C8.76355 48.2663 5.22705 44.7298 5.22705 40.3809V27.3773C5.22705 23.0296 8.76355 19.4919 13.1094 19.4919H50.8908C55.2367 19.492 58.7732 23.0296 58.7732 27.3773ZM42.287 27.9456C42.287 28.8084 42.9849 29.508 43.8529 29.508H48.7207C49.5828 29.508 50.2865 28.8084 50.2865 27.9456C50.2865 27.0824 49.5828 26.3826 48.7207 26.3826H43.8529C42.9849 26.3826 42.287 27.0823 42.287 27.9456ZM52.92 39.0073C52.92 38.144 52.2163 37.4443 51.354 37.4443H12.6402C11.7781 37.4443 11.0802 38.144 11.0802 39.0073C11.0802 39.87 11.7781 40.5696 12.6402 40.5696H51.354C52.2162 40.5698 52.92 39.87 52.92 39.0073ZM47.8176 51.9224C47.5009 51.1183 46.5918 50.7224 45.7883 51.0374C44.9848 51.3524 44.5919 52.2584 44.9028 53.0625C45.3602 54.2284 45.1843 54.8085 44.891 55.7685C44.5392 56.9286 44.0993 58.3708 44.8852 60.6364C45.108 61.2809 45.7122 61.685 46.3632 61.685C46.5333 61.685 46.7033 61.6563 46.8734 61.5976C47.6885 61.3138 48.1168 60.4235 47.8352 59.6089C47.3837 58.3086 47.5889 57.6259 47.8822 56.6823C48.2341 55.5321 48.6679 54.1011 47.8176 51.9224Z" fill="#EB3300"/>
</svg>
