<svg width="48" height="48" viewBox="0 0 48 48" fill="none" xmlns="http://www.w3.org/2000/svg">
<path d="M32.9573 37.8245C30.1251 36.0906 27.0897 34.3812 24.1433 32.7269V31.6928C24.23 31.5878 24.3158 31.4812 24.4 31.3716C25.3755 30.1017 26.1089 28.6328 26.5715 27.0566C28.2123 26.4682 29.4481 24.7577 29.4481 22.9893C29.4481 22.0767 29.1134 21.271 28.5055 20.7205C28.225 20.4665 27.8981 20.2789 27.5415 20.1613C27.5416 20.1611 27.5417 20.1609 27.5418 20.1607C28.1939 18.5514 28.5645 16.9289 28.5645 15.5095C28.5645 10.0854 23.9208 5.67281 18.2132 5.67281C12.5047 5.67281 7.86094 10.0854 7.86094 15.5095C7.86094 16.9289 8.23331 18.5512 8.88544 20.1614C8.51935 20.2825 8.18485 20.4781 7.90022 20.742C7.30716 21.2918 6.98063 22.0899 6.98063 22.9893C6.98063 24.7576 8.21625 26.4679 9.85688 27.0564C10.3192 28.6327 11.0522 30.1014 12.0272 31.3713C12.1169 31.4881 12.2083 31.6017 12.3008 31.7133V32.7192C9.49556 34.2902 6.35644 36.054 3.46706 37.8252C2.37422 38.4989 1.74731 39.6199 1.74731 40.8998V46.9312C1.74731 47.2932 2.04113 47.5861 2.40225 47.5861H34.0233C34.3853 47.5861 34.6782 47.2932 34.6782 46.9312V40.8998C34.678 39.6182 34.0511 38.4972 32.9573 37.8245ZM27.0981 21.3937C27.2954 21.4536 27.4733 21.5535 27.626 21.6918C27.956 21.9907 28.1378 22.4515 28.1378 22.9894C28.1378 23.864 27.656 24.7622 26.961 25.3385C27.0831 24.5842 27.1459 23.8142 27.1459 23.0371C27.1458 22.6175 27.1401 22.0209 27.0981 21.3937ZM8.2906 22.9895C8.2906 22.4589 8.46825 22.0021 8.79085 21.7029C8.93841 21.5662 9.11044 21.4659 9.3015 21.4035C9.28256 22.0083 9.28238 22.5389 9.28247 22.9459V23.0372C9.28247 23.8143 9.34519 24.5842 9.46716 25.3385C8.77247 24.7621 8.2906 23.864 8.2906 22.9895ZM10.5998 23.3936C10.9972 23.989 11.4299 24.5582 11.8916 25.0882C12.1133 25.3427 12.4913 25.3867 12.7656 25.1911C14.3468 24.0645 16.2304 23.4695 18.213 23.4695C20.1967 23.4695 22.081 24.0645 23.6624 25.1911C23.7775 25.2734 23.9104 25.3128 24.0423 25.3128C24.2257 25.3128 24.4081 25.2361 24.5363 25.0882C24.9979 24.5585 25.4314 23.9877 25.8286 23.3917C25.7573 26.0462 24.8888 28.5846 23.361 30.5736C21.8815 32.4996 20.0051 33.6041 18.2129 33.6041C16.4209 33.6041 14.5449 32.4996 13.0662 30.5737C11.5395 28.5852 10.6716 26.0476 10.5998 23.3936ZM22.8334 33.0321V33.1105C22.8334 35.6537 20.7637 37.7225 18.2205 37.7225C15.6792 37.7225 13.6114 35.6537 13.6114 33.1105V33.0474C15.0303 34.2512 16.6349 34.9142 18.2128 34.9142C19.7977 34.9142 21.4096 34.2457 22.8334 33.0321ZM28.817 46.2764H7.60913V36.887C8.49797 36.3714 9.38972 35.8624 10.2692 35.3647V42.733C10.2692 43.0952 10.563 43.388 10.9241 43.388H25.5037C25.8658 43.388 26.1587 43.0951 26.1587 42.733V35.3665C27.0485 35.8709 27.9374 36.378 28.8169 36.8888L28.817 46.2764ZM42.6771 17.3183C42.474 17.2154 42.2318 17.2248 42.038 17.3436C41.8433 17.4634 41.7254 17.6748 41.7254 17.9022V20.5623C41.7254 21.526 40.9413 22.3102 39.9776 22.3102C39.0139 22.3102 38.2298 21.526 38.2298 20.5623V17.9022C38.2298 17.6749 38.111 17.4634 37.9173 17.3436C37.7227 17.2247 37.4813 17.2154 37.2773 17.3183C35.2618 18.3429 34.0099 20.3827 34.0099 22.6423C34.0099 24.5249 34.8894 26.2802 36.3809 27.4068V44.3593C36.3809 46.3411 37.994 47.9532 39.9776 47.9532C41.9594 47.9532 43.5715 46.3411 43.5715 44.3593V27.4067C45.0639 26.281 45.9454 24.5257 45.9454 22.6422C45.9454 20.3827 44.6934 18.3428 42.6771 17.3183ZM40.6327 39.2299C40.6327 39.591 40.3398 39.8848 39.9777 39.8848C39.6157 39.8848 39.3228 39.591 39.3228 39.2299V33.8377C39.3228 33.4755 39.6157 33.1817 39.9777 33.1817C40.3398 33.1817 40.6327 33.4755 40.6327 33.8377V39.2299ZM45.908 9.97706L44.5615 8.90381C44.5728 8.72887 44.5784 8.5529 44.5756 8.37421L45.9782 7.37306C46.2215 7.19906 46.316 6.88368 46.2093 6.60487L45.3026 4.24143C45.195 3.96356 44.9134 3.79134 44.6177 3.82499L42.9036 4.01868C42.7875 3.88678 42.6668 3.75853 42.5414 3.63599L42.8249 1.93771C42.8745 1.64296 42.7182 1.3529 42.446 1.23131L40.1303 0.199213C39.858 0.0776193 39.537 0.156182 39.3517 0.389151L38.2766 1.73653C38.1007 1.72528 37.9248 1.72059 37.7508 1.72246L36.7496 0.321838C36.5766 0.0785568 36.2603 -0.0168808 35.9824 0.0907442L33.616 0.997401C33.3372 1.10409 33.1659 1.38665 33.1997 1.68328L33.3934 3.39553C33.2605 3.51159 33.1332 3.63318 33.0107 3.75853L31.3116 3.47503C31.0168 3.42543 30.7268 3.58171 30.6052 3.8549L29.5759 6.1679C29.4551 6.44015 29.5328 6.76021 29.7668 6.9464L31.1123 8.01965C31.101 8.19459 31.0973 8.37149 31.0991 8.54924L29.6984 9.5504C29.4551 9.72346 29.3606 10.0398 29.4673 10.3186L30.3749 12.6811C30.4816 12.9599 30.7632 13.1311 31.0598 13.0974L32.7702 12.9037C32.8872 13.0375 33.0088 13.1667 33.1332 13.2883L32.8516 14.9866C32.8029 15.2804 32.9592 15.5705 33.2315 15.6921L35.5435 16.7232C35.8167 16.8449 36.1367 16.7672 36.323 16.5342L37.3972 15.1859C37.574 15.1981 37.749 15.2028 37.9239 15.2L38.9251 16.6016C39.0504 16.7775 39.2507 16.8757 39.4584 16.8757C39.5361 16.8757 39.6157 16.8617 39.6923 16.8327L42.0578 15.9251C42.3366 15.8184 42.5078 15.5368 42.475 15.2402L42.2813 13.5289C42.4123 13.4129 42.5406 13.2912 42.664 13.164L44.3623 13.4484C44.6571 13.4971 44.9481 13.3408 45.0687 13.0686L46.098 10.7556C46.2196 10.4832 46.1409 10.1632 45.908 9.97706ZM41.0584 9.89653C40.4754 11.2065 39.1842 11.9868 37.834 11.9868C37.355 11.9868 36.8684 11.8885 36.4034 11.6818C34.6275 10.8911 33.8247 8.80274 34.6153 7.02684C35.4087 5.25187 37.4963 4.4519 39.2703 5.24156C40.1311 5.62424 40.7907 6.31949 41.1285 7.19803C41.4664 8.07759 41.442 9.03571 41.0584 9.89653Z" fill="#EB3300"/>
</svg>
