<svg width="48" height="48" viewBox="0 0 48 48" fill="none" xmlns="http://www.w3.org/2000/svg">
<path d="M35.4151 30.1126C35.2746 29.9729 35.0845 29.8945 34.8863 29.8945C34.6882 29.8945 34.4981 29.9729 34.3576 30.1126L33.8251 30.6451L32.7676 29.5801C32.9073 29.4396 32.9857 29.2495 32.9857 29.0513C32.9857 28.8532 32.9073 28.6631 32.7676 28.5226L30.6451 26.4001C30.5754 26.3298 30.4924 26.274 30.401 26.2359C30.3096 26.1978 30.2116 26.1782 30.1126 26.1782C30.0136 26.1782 29.9155 26.1978 29.8241 26.2359C29.7327 26.274 29.6498 26.3298 29.5801 26.4001L27.3301 24.1501L32.9251 18.5476C34.27 19.253 35.7835 19.5735 37.2989 19.4738C38.8144 19.3741 40.2729 18.858 41.5137 17.9824C42.7546 17.1068 43.7297 15.9057 44.3316 14.5114C44.9335 13.1171 45.1389 11.5836 44.9251 10.0801C44.906 9.94215 44.8488 9.81227 44.7601 9.70497C44.6713 9.59768 44.5545 9.51721 44.4226 9.47258C44.293 9.43184 44.1548 9.42707 44.0227 9.45878C43.8906 9.49048 43.7696 9.55746 43.6726 9.65258L39.9976 13.3276L35.7751 12.2251L34.6651 8.03258L38.3401 4.35758C38.4352 4.26058 38.5022 4.13958 38.5339 4.00749C38.5656 3.87539 38.5608 3.73717 38.5201 3.60758C38.4754 3.47568 38.395 3.35881 38.2877 3.27006C38.1804 3.18131 38.0505 3.12418 37.9126 3.10507C36.5091 2.90806 35.0786 3.07591 33.7588 3.59244C32.4391 4.10898 31.2747 4.95677 30.3778 6.05411C29.481 7.15144 28.8819 8.46131 28.6384 9.85745C28.3949 11.2536 28.5152 12.6889 28.9876 14.0251L23.0926 19.9126L12.3976 9.21758L11.9101 6.78758C11.8891 6.68504 11.8469 6.58803 11.7862 6.50277C11.7255 6.41752 11.6476 6.34592 11.5576 6.29258L6.25508 3.10507C6.1118 3.01928 5.944 2.98376 5.77825 3.00414C5.6125 3.02452 5.4583 3.09963 5.34008 3.21758L3.21758 5.34008C3.09963 5.4583 3.02452 5.6125 3.00414 5.77825C2.98376 5.944 3.01928 6.1118 3.10507 6.25508L6.29258 11.5576C6.34592 11.6476 6.41752 11.7255 6.50277 11.7862C6.58803 11.8469 6.68504 11.8891 6.78758 11.9101L9.21758 12.3976L19.9126 23.0926L14.0251 28.9801C12.3748 28.3906 10.5797 28.342 8.89993 28.8412C7.22016 29.3404 5.74297 30.3615 4.68243 31.7565C3.6219 33.1515 3.03313 34.848 3.00143 36.6001C2.96972 38.3522 3.49675 40.0689 4.50612 41.5014C5.5155 42.9339 6.95478 44.0077 8.6154 44.5674C10.276 45.127 12.0717 45.1433 13.7422 44.614C15.4127 44.0846 16.8713 43.0371 17.9065 41.6232C18.9418 40.2093 19.4999 38.5025 19.5001 36.7501C19.4995 35.4198 19.1752 34.1095 18.5551 32.9326L24.1576 27.3376L26.4076 29.5876C26.3373 29.6573 26.2815 29.7403 26.2434 29.8316C26.2053 29.923 26.1857 30.0211 26.1857 30.1201C26.1857 30.2191 26.2053 30.3171 26.2434 30.4085C26.2815 30.4999 26.3373 30.5829 26.4076 30.6526L28.5001 32.7676C28.6406 32.9073 28.8307 32.9857 29.0288 32.9857C29.227 32.9857 29.4171 32.9073 29.5576 32.7676L30.6226 33.8251L30.0901 34.3576C29.9504 34.4981 29.872 34.6882 29.872 34.8863C29.872 35.0845 29.9504 35.2746 30.0901 35.4151L38.5951 43.9051C39.2992 44.6092 40.2543 45.0048 41.2501 45.0048C42.2459 45.0048 43.2009 44.6092 43.9051 43.9051C44.6092 43.2009 45.0048 42.2459 45.0048 41.2501C45.0048 40.2543 44.6092 39.2992 43.9051 38.5951L35.4151 30.1126ZM14.5951 37.6501L12.1501 40.0951L8.79757 39.2026L7.90508 35.8501L10.3501 33.4051L13.7026 34.2976L14.5951 37.6501ZM27.9901 30.1126L30.1126 27.9901L31.1701 29.0551L29.0551 31.1701L27.9901 30.1126Z" fill="#EB3300"/>
</svg>
