<svg width="64" height="48" viewBox="0 0 64 48" fill="none" xmlns="http://www.w3.org/2000/svg">
<path d="M47.7705 0.877197C46.5683 2.58409 43.7979 6.56774 40.4551 12.1303C38.3672 15.6048 36.2832 19.3624 34.7379 22.784C33.1925 26.2056 32.2215 29.3366 32.2215 31.2652C32.2215 33.9947 32.9277 36.5566 34.1673 38.7815C34.2094 38.8431 34.2459 38.9084 34.2765 38.9765C36.957 43.6278 41.9928 46.7545 47.7795 46.7545C56.3896 46.7545 63.3367 39.8321 63.3367 31.2652C63.3367 29.4122 62.3344 26.3896 60.895 23.1159C59.6989 23.7578 58.3507 24.1421 56.9194 24.1961C56.804 24.2016 56.688 24.2054 56.571 24.2054C51.4174 24.2054 47.2413 19.9156 47.2413 14.6917C47.2413 14.5982 47.2438 14.5041 47.2481 14.4096C47.2491 14.388 47.2512 14.3662 47.2524 14.3446C47.2564 14.2723 47.2609 14.1999 47.2674 14.127C47.2717 14.0774 47.2779 14.0273 47.2834 13.9775C47.2881 13.9349 47.2921 13.8924 47.2976 13.8496C47.3059 13.7844 47.3159 13.7189 47.326 13.6533C47.3307 13.6231 47.3347 13.5931 47.3397 13.5627C47.3505 13.4975 47.3631 13.4316 47.3755 13.3659C47.3814 13.3347 47.3869 13.3037 47.3931 13.2725C47.4087 13.1946 47.4259 13.1162 47.4437 13.0377C47.4472 13.022 47.4505 13.0064 47.4542 12.9906C47.4737 12.9067 47.4945 12.8222 47.5163 12.7375C47.5198 12.724 47.523 12.7107 47.5266 12.6972C47.5508 12.6047 47.5765 12.5116 47.6034 12.4182C47.6042 12.4153 47.6052 12.4125 47.606 12.4096C47.7063 12.062 47.8271 11.707 47.9597 11.3469C47.9829 11.2841 48.0047 11.222 48.0287 11.1588C48.082 11.0184 48.1388 10.8761 48.1961 10.7337C48.2255 10.6604 48.2538 10.5874 48.2842 10.5135C48.3308 10.4005 48.3793 10.2861 48.4279 10.1719C48.4611 10.0938 48.4923 10.0169 48.5263 9.9382C48.5407 9.90504 48.5565 9.87143 48.5711 9.8382C48.5837 9.80929 48.5952 9.78113 48.6079 9.75214C48.647 9.66334 48.6893 9.57329 48.7295 9.48398C48.7499 9.43905 48.7695 9.39427 48.7903 9.34924C49.3863 8.04013 50.0973 6.68665 50.8337 5.38231C49.1793 2.87976 48.3239 1.65875 47.7705 0.877197ZM56.571 1.01141C55.9024 1.99395 55.1049 3.10565 53.642 5.60572C53.575 5.72016 53.5083 5.83648 53.4414 5.95205C53.4396 5.95531 53.4378 5.95856 53.4359 5.96179C53.2047 6.36159 52.9749 6.76757 52.7493 7.17577C52.7341 7.20324 52.7189 7.23064 52.7038 7.25814C52.6045 7.43847 52.5062 7.61928 52.4091 7.79999C52.3896 7.83615 52.3702 7.87225 52.3509 7.90841C52.258 8.0821 52.1662 8.25569 52.0759 8.42895C52.0529 8.47303 52.0303 8.51704 52.0075 8.56106C51.9225 8.72507 51.839 8.88866 51.7569 9.0516C51.7304 9.10436 51.7045 9.15688 51.6782 9.20949C51.6005 9.36548 51.5239 9.52095 51.4493 9.67529C51.4189 9.73821 51.3894 9.8006 51.3596 9.86319C51.2946 9.99935 51.2305 10.1349 51.1685 10.2693C51.1286 10.3558 51.0903 10.4412 51.0517 10.5269C51.0014 10.6384 50.9514 10.7497 50.9035 10.8595C50.8514 10.9793 50.8021 11.0976 50.7532 11.2156C50.7228 11.2888 50.6916 11.3625 50.6624 11.4348C50.597 11.5978 50.5351 11.7584 50.4764 11.9161C50.4672 11.9407 50.4572 11.9659 50.4482 11.9903C50.1782 12.7246 49.9853 13.3887 49.88 13.9233C49.8752 13.9481 49.8682 13.9759 49.8637 14.0001C49.8604 14.0181 49.8582 14.0348 49.855 14.0525C49.835 14.1666 49.8181 14.2754 49.8071 14.3751C49.7943 14.4913 49.7877 14.5973 49.7877 14.6917C49.7877 18.5701 52.8248 21.659 56.571 21.659C56.6785 21.659 56.7855 21.6559 56.8918 21.6508C56.9292 21.649 56.9663 21.6461 57.0036 21.6437C57.073 21.6393 57.1422 21.6342 57.211 21.6277C57.2557 21.6234 57.3002 21.6184 57.3447 21.6132C57.4031 21.6065 57.4612 21.5988 57.5192 21.5906C57.5678 21.5836 57.6164 21.5765 57.6647 21.5685C57.7167 21.5599 57.7683 21.5501 57.82 21.5403C57.8738 21.53 57.9279 21.5203 57.9813 21.5087C58.0029 21.5041 58.0242 21.4983 58.0458 21.4935C59.0288 21.2697 59.9295 20.8271 60.7048 20.214C60.7387 20.1871 60.774 20.162 60.8106 20.1387L60.8108 20.1384C62.3614 18.8669 63.3554 16.909 63.3554 14.6917C63.3554 13.9296 62.9289 12.423 62.2048 10.7766C61.4807 9.13025 60.493 7.30048 59.5013 5.60573C58.0383 3.10557 57.2395 1.99391 56.571 1.01141ZM23.4708 1.05957C22.8834 1.06354 22.3239 1.09491 21.8176 1.20431C20.8049 1.42311 20.0148 1.82283 19.2812 3.10804L19.2733 3.12198L11.8818 15.2499L31.5749 15.2507H31.6028C32.306 15.2507 32.876 15.8207 32.876 16.5239C32.8759 17.227 32.3059 17.7968 31.6028 17.7968H27.464C27.4571 17.7968 27.4502 17.7967 27.4432 17.7965L8.63175 17.796L8.58491 17.7928C7.06936 17.6815 6.24875 18.0121 5.6309 18.5836C5.01777 19.1508 4.56388 20.1012 4.27718 21.3984L2.81399 32.4816C2.75221 33.7761 2.78718 35.3956 3.25453 36.4822C3.72557 37.5774 4.33697 38.2638 6.45329 38.2257H6.46434H31.078C30.175 36.083 29.6751 33.7315 29.6751 31.2652C29.6751 28.565 30.8068 25.3013 32.4173 21.7356C34.0278 18.1698 36.1528 14.346 38.2727 10.8185C40.3973 7.28301 42.5196 4.0444 44.1091 1.69143C44.0042 1.60582 43.8836 1.52531 43.7362 1.44905C43.303 1.22486 42.5997 1.02945 41.388 1.07799L41.3622 1.07904H25.2908C24.6733 1.07904 24.0581 1.0556 23.4708 1.05957ZM53.2991 12.9527C53.9964 12.9452 54.57 13.5 54.5857 14.1972C54.6114 15.3303 55.0536 15.9782 55.6202 16.4381C56.1868 16.8979 56.9568 17.0738 57.2197 17.0578C57.9218 17.0148 58.5258 17.5493 58.5684 18.2515C58.6108 18.9533 58.0764 19.5566 57.3747 19.5992C56.2727 19.6662 55.0834 19.2818 54.0159 18.4155C52.9484 17.5492 52.0815 16.1056 52.0396 14.2549C52.0235 13.5517 52.5807 12.9688 53.2838 12.953C53.2889 12.9529 53.294 12.9527 53.2991 12.9527ZM9.25335 21.1995H16.0824C17.3774 21.1995 18.6238 21.3656 19.702 21.9574C20.6815 22.495 21.4338 23.5297 21.6255 24.7643C21.6763 24.9042 21.7022 25.052 21.702 25.2009V25.388V25.7359V28.5589C21.7023 29.2371 21.1709 29.7965 20.4936 29.831C20.3939 29.8361 20.2901 29.8389 20.1812 29.8389H13.3521C12.0397 29.8389 10.7798 29.6392 9.70678 29.0162C8.72997 28.4492 7.99316 27.4044 7.807 26.1646C7.75776 26.027 7.73257 25.882 7.73252 25.7359V25.548V25.2009V22.4787C7.73267 21.8008 8.26394 21.2419 8.94097 21.2074C9.04064 21.2023 9.14443 21.1995 9.25335 21.1995ZM10.2789 23.7459V25.2009V25.548V25.6277C10.2801 25.641 10.281 25.6542 10.2818 25.6675C10.3157 26.3034 10.4988 26.5321 10.985 26.8144C11.4711 27.0966 12.3268 27.2925 13.3521 27.2925H19.1559V25.7359V25.388V25.3093C19.1547 25.2957 19.1536 25.2821 19.1528 25.2685C19.119 24.6376 18.9575 24.4543 18.4765 24.1903C17.9955 23.9264 17.1252 23.7459 16.0825 23.7459H10.2789ZM35.9321 28.0094C36.6294 28.0014 37.2034 28.5559 37.2195 29.2531C37.3312 34.0175 39.4361 37.2162 42.0922 39.3009C44.7484 41.3857 48.0302 42.2526 50.0532 42.1336C50.7553 42.0923 51.358 42.6281 51.399 43.3302C51.4402 44.0319 50.9051 44.6342 50.2035 44.6758C47.3686 44.8425 43.6804 43.7842 40.5206 41.3041C37.3608 38.8241 34.8032 34.8192 34.6742 29.3128C34.6574 28.6096 35.2141 28.026 35.9174 28.0096C35.9223 28.0095 35.9272 28.0094 35.9321 28.0094ZM0.75 37.0622C0.777485 40.2894 0.917645 44.4288 1.44054 45.5445C2.32961 47.4417 2.77075 47.6346 11.3579 47.6346C16.1942 47.6346 17.5134 43.9724 17.7446 40.772H6.49908C3.61662 40.824 1.6943 39.2991 0.915267 37.4878C0.854645 37.3468 0.800782 37.2047 0.75 37.0622Z" fill="#EB3300"/>
</svg>
