<svg width="40" height="40" viewBox="0 0 40 40" fill="none" xmlns="http://www.w3.org/2000/svg">
<path d="M34.4 0.800049V8.12485C34.4 9.89221 32.9672 11.325 31.1999 11.325C29.4325 11.325 28.0002 9.89221 28.0002 8.12485V0.800049C25.1783 2.03605 23.2002 4.84693 23.2002 8.12485C23.2002 10.7327 24.4688 13.028 26.3999 14.4892V34.4C26.3999 37.0501 28.5498 39.2 31.1999 39.2C33.85 39.2 35.9999 37.0501 35.9999 34.4V14.4892C37.9328 13.028 39.2 10.7327 39.2 8.12485C39.2 4.84549 37.2234 2.03605 34.4 0.800049Z" fill="#EB3300"/>
<path d="M23.2002 23.2001V16.7998H5.60005C2.94997 16.7998 0.800049 18.9483 0.800049 21.5984L0.801489 21.5998H0.800049V32.8001H4.00021V37.6001C4.00021 38.4814 4.72021 39.2 5.60005 39.2H8.80021C9.67957 39.2 10.4 38.4814 10.4 37.6001V32.8001H23.2002V26.3998H11.9999V23.2001H23.2002ZM7.19989 26.8001C6.09685 26.8001 5.20021 25.9049 5.20021 24.8C5.20021 23.6936 6.09685 22.7998 7.19989 22.7998C8.30341 22.7998 9.20005 23.6936 9.20005 24.8C9.20005 25.9049 8.30341 26.8001 7.19989 26.8001Z" fill="#EB3300"/>
<path d="M19.9999 8.12488C19.9999 6.68104 20.3033 5.29384 20.8188 3.99976H10.9029C9.57814 3.99976 8.37814 4.53736 7.50934 5.40616C7.0687 5.84824 6.71254 6.37624 6.47062 6.96232L3.7207 13.5998H21.4505C20.514 11.9514 19.9999 10.0828 19.9999 8.12488Z" fill="#EB3300"/>
</svg>
