<svg width="44" height="56" viewBox="0 0 44 56" fill="none" xmlns="http://www.w3.org/2000/svg">
<path d="M22 15.641C22.906 15.641 23.6406 14.9064 23.6406 14.0004V1.6411C23.6406 0.735045 22.906 0.000488281 22 0.000488281C21.0939 0.000488281 20.3594 0.735045 20.3594 1.6411V14.0004C20.3594 14.9064 21.0939 15.641 22 15.641Z" fill="#EB3300"/>
<path d="M29 15.641C29.906 15.641 30.6406 14.9064 30.6406 14.0004V10.391H32.4453C35.3099 10.391 37.6405 8.06038 37.6405 5.19576C37.6405 2.33114 35.3099 0.000488281 32.4453 0.000488281H29C28.0939 0.000488281 27.3594 0.735045 27.3594 1.6411V14.0004C27.3594 14.9064 28.0939 15.641 29 15.641ZM34.3593 5.19576C34.3593 6.25111 33.5006 7.10981 32.4453 7.10981H30.6406V3.28171H32.4453C33.5006 3.28171 34.3593 4.14041 34.3593 5.19576Z" fill="#EB3300"/>
<path d="M9.92159 14.4473C10.1208 15.1505 10.763 15.6409 11.5006 15.6409C12.1934 15.6409 12.8143 15.2045 13.0468 14.5478L17.4218 2.18853C17.7241 1.33432 17.2768 0.39676 16.4227 0.0944501C15.5681 -0.207641 14.631 0.23959 14.3286 1.09358L11.674 8.59282L9.57881 1.1941C9.33195 0.322386 8.42502 -0.184454 7.5532 0.0625129C6.68138 0.30948 6.17476 1.2163 6.42161 2.08812L9.92159 14.4473Z" fill="#EB3300"/>
<path d="M18.906 46.1768L18.0088 49.7655H25.9912L25.094 46.1768H18.906Z" fill="#EB3300"/>
<path d="M16.7501 29.6616C15.0225 29.6616 13.5745 30.8817 13.2224 32.5054H20.2778C19.9257 30.8817 18.4777 29.6616 16.7501 29.6616Z" fill="#EB3300"/>
<path d="M3.51584 35.7866C1.70362 35.7866 0.234619 37.2556 0.234619 39.0678V42.4379L10.0053 49.766H14.6267L16.0335 44.1388C16.216 43.4085 16.8723 42.8961 17.6251 42.8961H26.375C27.1279 42.8961 27.7841 43.4085 27.9667 44.1388L29.3734 49.766H34.004L43.7655 42.4448V39.0678C43.7655 37.2556 42.2965 35.7866 40.4843 35.7866C39.4272 35.7866 2.52371 35.7866 3.51584 35.7866ZM10.6252 42.7866H8.87518C7.96912 42.7866 7.23456 42.052 7.23456 41.146C7.23456 40.2399 7.96912 39.5053 8.87518 39.5053H10.6252C11.5312 39.5053 12.2658 40.2399 12.2658 41.146C12.2658 42.052 11.5312 42.7866 10.6252 42.7866ZM33.375 39.5053H35.125C36.031 39.5053 36.7656 40.2399 36.7656 41.146C36.7656 42.052 36.031 42.7866 35.125 42.7866H33.375C32.4689 42.7866 31.7344 42.052 31.7344 41.146C31.7344 40.2399 32.4689 39.5053 33.375 39.5053Z" fill="#EB3300"/>
<path d="M1.87523 29.6405H4.03964L3.32356 32.5049H9.90308C10.2853 29.0646 13.2095 26.38 16.7501 26.38C20.2908 26.38 23.2149 29.0646 23.5972 32.5049H40.723L40.0069 29.6405H42.125C43.0311 29.6405 43.7656 28.906 43.7656 27.9999C43.7656 27.0939 43.0311 26.3593 42.125 26.3593H39.1867L38.1499 22.2124C37.6011 20.0175 35.6376 18.4844 33.3751 18.4844H10.6714C8.40881 18.4844 6.44543 20.0175 5.8967 22.2125L4.85994 26.3593H1.87523C0.969176 26.3593 0.234619 27.0939 0.234619 27.9999C0.234619 28.906 0.969176 29.6405 1.87523 29.6405Z" fill="#EB3300"/>
<path d="M0.234619 46.5391V54.3594C0.234619 55.2654 0.969182 56 1.87524 56H8.00024C8.90631 56 9.64087 55.2654 9.64087 54.3594V53.5938L0.234619 46.5391Z" fill="#EB3300"/>
<path d="M34.3594 53.6006V54.3593C34.3594 55.2654 35.0939 56 36 56H42.125C43.0311 56 43.7656 55.2654 43.7656 54.3593V46.5459L34.3594 53.6006Z" fill="#EB3300"/>
</svg>
