<svg width="48" height="48" viewBox="0 0 48 48" fill="none" xmlns="http://www.w3.org/2000/svg">
<path d="M45.361 4.46344C44.8857 3.99 44.2285 3.69562 43.5085 3.69562H39.3863V6.48563C39.3863 8.63062 37.6295 10.3866 35.4854 10.3866C33.3404 10.3866 31.5845 8.62969 31.5845 6.48563V3.69562H16.4129V6.48563C16.4129 8.63062 14.6588 10.3866 12.5148 10.3866C10.3679 10.3866 8.61384 8.62969 8.61384 6.48563V3.69562H4.49165C3.76884 3.69562 3.1154 3.99094 2.63915 4.46344C2.16571 4.93875 1.87134 5.59313 1.87134 6.31594V45.3328C1.87134 46.0556 2.16665 46.7091 2.63915 47.1853C3.11446 47.6587 3.76884 47.9531 4.49165 47.9531H43.5085C44.2285 47.9531 44.8848 47.6578 45.361 47.1853C45.8345 46.71 46.1288 46.0556 46.1288 45.3328V6.31594C46.1288 5.59313 45.8335 4.93969 45.361 4.46344ZM44.6091 45.3328C44.6091 45.6356 44.4845 45.9094 44.2848 46.1091C44.0851 46.3088 43.8095 46.4334 43.5085 46.4334H4.49165C4.18884 46.4334 3.91509 46.3088 3.7154 46.1091C3.51571 45.9094 3.39103 45.6356 3.39103 45.3328V12.7341H44.6082V45.3328H44.6091ZM10.1335 6.48563V2.42531C10.1335 1.1175 11.2042 0.046875 12.5148 0.046875C13.8226 0.046875 14.8932 1.1175 14.8932 2.42531V6.48563C14.8932 7.79344 13.8226 8.86406 12.5148 8.86406C11.2042 8.86406 10.1335 7.79344 10.1335 6.48563ZM33.107 6.48563V2.42531C33.107 1.1175 34.1776 0.046875 35.4854 0.046875C36.7951 0.046875 37.8666 1.1175 37.8666 2.42531V6.48563C37.8666 7.79344 36.796 8.86406 35.4854 8.86406C34.1785 8.86406 33.107 7.79344 33.107 6.48563ZM31.0848 38.5434V28.1897H32.1104V34.4531C32.1104 34.8731 32.4507 35.2134 32.8707 35.2134H40.4766V40.4756H39.406C39.406 38.055 37.442 36.0909 35.0213 36.0909C33.2935 36.09 31.8001 37.0894 31.0848 38.5434ZM40.1176 33.6928H33.6329V28.1887H35.7723L40.1176 33.6928ZM9.30665 40.4747H7.52071V24.1181H9.49227C9.49227 29.1169 13.5451 33.1697 18.5438 33.1697C23.5426 33.1697 27.5954 29.1169 27.5954 24.1181H29.5641V40.4747H18.0741C18.0741 38.0541 16.1129 36.09 13.6923 36.09C11.2707 36.09 9.30665 38.0541 9.30665 40.4747ZM35.0204 37.6125C33.4445 37.6125 32.1582 38.8988 32.1582 40.4747C32.1582 42.0506 33.4445 43.3369 35.0204 43.3369C36.5991 43.3369 37.8826 42.0506 37.8826 40.4747C37.8826 38.8988 36.5991 37.6125 35.0204 37.6125ZM35.026 41.235H35.0157C34.5957 41.235 34.2554 40.8947 34.2554 40.4747C34.2554 40.0547 34.5957 39.7144 35.0157 39.7144H35.026C35.4488 39.7144 35.7892 40.0547 35.7892 40.4747C35.7892 40.8947 35.4488 41.235 35.026 41.235ZM13.6913 37.6125C12.1126 37.6125 10.8263 38.8988 10.8263 40.4747C10.8263 42.0506 12.1126 43.3369 13.6913 43.3369C15.2673 43.3369 16.5535 42.0506 16.5535 40.4747C16.5535 38.8988 15.2673 37.6125 13.6913 37.6125ZM13.697 41.235H13.6838C13.2638 41.235 12.9235 40.8947 12.9235 40.4747C12.9235 40.0547 13.2638 39.7144 13.6838 39.7144H13.697C14.117 39.7144 14.4573 40.0547 14.4573 40.4747C14.4573 40.8947 14.117 41.235 13.697 41.235ZM18.5438 31.65C22.6923 31.65 26.0748 28.2675 26.0748 24.1191C26.0748 19.9706 22.6923 16.5881 18.5438 16.5881C14.3954 16.5881 11.0129 19.9706 11.0129 24.1191C11.0129 28.2666 14.3963 31.65 18.5438 31.65ZM18.5438 19.6406C21.0104 19.6406 23.0213 21.6525 23.0213 24.1181C23.0213 26.5847 21.0095 28.5956 18.5438 28.5956C16.0773 28.5956 14.0663 26.5838 14.0663 24.1181C14.0663 21.6525 16.0782 19.6406 18.5438 19.6406ZM17.7845 24.1181V22.0584C17.7845 21.6384 18.1248 21.2953 18.5448 21.2953C18.9648 21.2953 19.3051 21.6384 19.3051 22.0584V23.3578H20.6045C21.0245 23.3578 21.3648 23.6981 21.3648 24.1181C21.3648 24.5381 21.0245 24.8784 20.6045 24.8784H18.5438C18.1248 24.8784 17.7845 24.5381 17.7845 24.1181Z" fill="#EB3300"/>
</svg>
