<svg width="51" height="51" viewBox="0 0 51 51" fill="none" xmlns="http://www.w3.org/2000/svg">
<path fill-rule="evenodd" clip-rule="evenodd" d="M6.97648 31.6438C15.1162 31.1188 23.7513 31.1221 32.6796 31.6504L30.5654 27.2557C29.8818 25.8349 28.5321 24.9862 26.9549 24.9862H12.6968C11.1196 24.9862 9.76992 25.8349 9.08633 27.2557L6.97648 31.6438ZM49.1373 12.4299V18.4018H50.032C50.5263 18.4018 50.9277 18.0004 50.9277 17.5071V13.3246C50.9277 12.8313 50.5263 12.4299 50.032 12.4299H49.1373ZM46.3941 16.234H47.8248V14.5977H46.3941V16.234ZM41.0884 19.186L43.5066 28.2116H47.653L46.6763 24.5683H44.4276C44.0655 24.5683 43.7713 24.2741 43.7713 23.9121C43.7713 23.549 44.0655 23.2558 44.4276 23.2558H46.3252L45.9555 21.8777H43.7068C43.3448 21.8777 43.0505 21.5835 43.0505 21.2215C43.0505 20.8583 43.3448 20.5652 43.7068 20.5652H45.6045L45.2348 19.186H41.0884ZM39.7299 19.186H38.273V20.7337C38.273 21.2707 38.7105 21.7082 39.2476 21.7082H40.4059L39.7299 19.186ZM34.7512 1.80631H42.8712V0.337402H34.7512V1.80631ZM34.7512 5.03178C34.7512 6.80256 35.9379 8.40053 37.6376 8.91787C37.9143 9.00209 38.1035 9.25693 38.1035 9.54568V11.6468H39.5199V9.54568C39.5199 9.25693 39.7091 9.00209 39.9848 8.91787C41.6845 8.40053 42.8712 6.80256 42.8712 5.03178V3.11881H34.7512V5.03178ZM20.3257 9.81912L23.7776 13.2721C23.9055 13.4001 24.074 13.4635 24.2413 13.4635C24.4098 13.4635 24.5771 13.4001 24.7062 13.2721C24.9621 13.0151 24.9621 12.6005 24.7062 12.3435L21.2532 8.89162C20.9973 8.63568 20.5816 8.63568 20.3257 8.89162C20.0687 9.14756 20.0687 9.56318 20.3257 9.81912ZM18.2793 16.0721H23.1618C23.5238 16.0721 23.818 15.7779 23.818 15.4158C23.818 15.0538 23.5238 14.7596 23.1618 14.7596H18.2793C17.9173 14.7596 17.623 15.0538 17.623 15.4158C17.623 15.7779 17.9173 16.0721 18.2793 16.0721ZM24.7062 18.4882C24.9621 18.2312 24.9621 17.8155 24.7062 17.5596C24.4491 17.3037 24.0335 17.3037 23.7776 17.5596L20.3257 21.0126C20.0687 21.2685 20.0687 21.6841 20.3257 21.9401C20.4537 22.068 20.621 22.1326 20.7895 22.1326C20.9579 22.1326 21.1252 22.068 21.2532 21.9401L24.7062 18.4882ZM31.2282 17.8735V12.9582H30.2362L27.7774 15.4158L30.2362 17.8735H31.2282ZM32.5407 17.8735H45.0816V12.9582H32.5407V17.8735ZM6.2393 30.1487C6.03477 29.6007 5.5043 29.2201 4.9082 29.2201H1.93211C1.72211 29.2201 1.55039 29.3918 1.55039 29.6029V31.3343C1.55039 31.5443 1.72211 31.716 1.93211 31.716H5.48461L6.2393 30.1487ZM34.1671 31.716H37.7196C37.9307 31.716 38.1013 31.5443 38.1013 31.3343V29.6029C38.1013 29.3918 37.9307 29.2201 37.7196 29.2201H34.7446C34.1474 29.2201 33.617 29.6007 33.4135 30.1487L34.1671 31.716ZM30.4166 40.8335H35.718C36.1271 40.8335 36.4607 40.501 36.4607 40.0908V37.9263C36.4607 37.8377 36.4334 37.7776 36.3666 37.7185C36.312 37.6704 36.2605 37.6485 36.1949 37.6485C36.1807 37.6485 36.1654 37.6496 36.149 37.6518L31.6023 38.2369C30.7557 38.3463 30.141 39.0441 30.141 39.8983V40.5579C30.141 40.7099 30.2646 40.8335 30.4166 40.8335ZM33.4671 48.9524C33.4671 49.7683 34.131 50.4312 34.9459 50.4312H36.1818C36.9977 50.4312 37.6605 49.7683 37.6605 48.9524V47.4747H33.4671V48.9524ZM6.18461 47.4747H1.99227V48.9524C1.99227 49.7683 2.65508 50.4312 3.46992 50.4312H4.70586C5.5218 50.4312 6.18461 49.7683 6.18461 48.9524V47.4747ZM9.5118 39.8983C9.5118 39.0441 8.89711 38.3463 8.05055 38.2369L3.50273 37.6518C3.48742 37.6496 3.47211 37.6485 3.45789 37.6485C3.39227 37.6485 3.33977 37.6704 3.28508 37.7185C3.21836 37.7776 3.19211 37.8366 3.19211 37.9263V40.0908C3.19211 40.501 3.52461 40.8335 3.93367 40.8335H9.23508C9.38711 40.8335 9.5118 40.7099 9.5118 40.5579V39.8983ZM33.7132 33.0274C36.6237 33.2133 38.8177 35.391 38.8177 38.0915V46.1622H0.833984V38.0915C0.833984 35.4107 3.03023 33.233 5.94398 33.0274C14.6896 32.4083 24.0324 32.4083 33.7132 33.0274ZM15.6105 37.1005C15.2474 37.1005 14.9543 37.3947 14.9543 37.7568C14.9543 38.1188 15.2474 38.413 15.6105 38.413H24.0423C24.4043 38.413 24.6985 38.1188 24.6985 37.7568C24.6985 37.3947 24.4043 37.1005 24.0423 37.1005H15.6105ZM15.6105 40.0701C15.2474 40.0701 14.9543 40.3632 14.9543 40.7263C14.9543 41.0883 15.2474 41.3826 15.6105 41.3826H24.0423C24.4043 41.3826 24.6985 41.0883 24.6985 40.7263C24.6985 40.3632 24.4043 40.0701 24.0423 40.0701H15.6105ZM10.8243 39.8983V40.5579C10.8243 41.434 10.1112 42.146 9.23508 42.146H3.93367C2.80055 42.146 1.87961 41.224 1.87961 40.0908V37.9263C1.87961 37.4626 2.07102 37.0393 2.41883 36.733C2.76664 36.4268 3.2118 36.2912 3.67008 36.3502L8.21789 36.9354C9.7032 37.1268 10.8243 38.3999 10.8243 39.8983ZM28.8285 39.8983C28.8285 38.3999 29.9485 37.1268 31.4349 36.9354L35.9816 36.3502C36.441 36.2922 36.8862 36.4268 37.234 36.733C37.5818 37.0393 37.7732 37.4626 37.7732 37.9263V40.0908C37.7732 41.224 36.8512 42.146 35.718 42.146H30.4166C29.5405 42.146 28.8285 41.434 28.8285 40.5579V39.8983Z" fill="#EB3300"/>
</svg>
